<?xml version="1.0" encoding="UTF-8"?>
<svg id="_Слой_1" data-name="Слой 1" xmlns="http://www.w3.org/2000/svg" xmlns:xlink="http://www.w3.org/1999/xlink" viewBox="0 0 40 40">
  <defs>
    <style>
      .cls-1 {
        fill: #fa5b07;
      }

      .cls-2 {
        fill: #917934;
      }

      .cls-3 {
        fill: url(#_Безымянный_градиент_2);
      }

      .cls-4 {
        fill: #fed413;
      }

      .cls-5 {
        fill: #eaf34b;
      }

      .cls-6 {
        fill: #32cd32;
      }

      .cls-7 {
        fill: #9cc00f;
      }

      .cls-8 {
        fill: #fefefe;
      }
    </style>
    <linearGradient id="_Безымянный_градиент_2" data-name="Безымянный градиент 2" x1="542.08" y1="497.95" x2="49.02" y2="460.43" gradientTransform="translate(.9 49.06) scale(.06 -.06)" gradientUnits="userSpaceOnUse">
      <stop offset="0" stop-color="#d05602"/>
      <stop offset="1" stop-color="#ff9f06"/>
    </linearGradient>
  </defs>
  <g>
    <rect class="cls-6" x=".5" y=".5" width="39" height="39" rx="4.96" ry="4.96"/>
    <path d="M34.54,1c2.46,0,4.46,2,4.46,4.46v29.07c0,2.46-2,4.46-4.46,4.46H5.46c-2.46,0-4.46-2-4.46-4.46V5.46C1,3,3,1,5.46,1h29.07m0-1H5.46C2.45,0,0,2.45,0,5.46v29.07c0,3.02,2.45,5.46,5.46,5.46h29.07c3.02,0,5.46-2.45,5.46-5.46V5.46c0-3.02-2.45-5.46-5.46-5.46h0Z"/>
  </g>
  <g>
    <path class="cls-1" d="M33.94,12.19c.28,.46,.49,.97,.7,1.46,.04,.1,.09,.2,.13,.3,.04,.1,.08,.2,.12,.31,.04,.1,.08,.2,.11,.31,.04,.1,.07,.21,.11,.31,.03,.1,.07,.21,.1,.31,.03,.1,.06,.21,.1,.31,.03,.1,.06,.21,.09,.32,.03,.11,.06,.21,.08,.32,.03,.11,.05,.21,.08,.32,.02,.11,.05,.21,.07,.32,.02,.11,.04,.21,.06,.32,.02,.11,.04,.22,.06,.32,.02,.11,.03,.22,.05,.32,.02,.11,.03,.22,.04,.33,.01,.11,.03,.22,.04,.33s.02,.22,.03,.33c0,.11,.02,.22,.02,.33,0,.11,.01,.22,.02,.33,0,.11,0,.22,.01,.33,0,.11,0,.22,0,.33,0,.11,0,.22,0,.33,0,.11,0,.22,0,.33,0,.11,0,.22-.02,.33,0,.11-.01,.22-.02,.33,0,.11-.02,.22-.03,.33-.01,.11-.02,.22-.04,.33-.01,.11-.03,.22-.04,.33-.02,.11-.03,.22-.05,.32-.02,.11-.04,.22-.06,.32-.02,.11-.04,.21-.06,.32-.02,.11-.05,.21-.07,.32-.02,.11-.05,.21-.08,.32-.03,.13-.06,.25-.1,.38-.03,.13-.07,.25-.11,.37-.04,.12-.08,.25-.12,.37-.04,.12-.08,.25-.13,.37-.04,.12-.09,.24-.13,.37-.05,.12-.09,.24-.14,.36-.05,.12-.1,.24-.15,.36-.05,.12-.11,.24-.16,.36-.06,.12-.11,.23-.17,.35-.06,.12-.12,.23-.18,.35-.06,.11-.12,.23-.19,.34-.06,.11-.13,.23-.2,.34-.07,.11-.13,.22-.2,.33-.07,.11-.14,.22-.21,.33-.07,.11-.15,.22-.22,.32-.07,.11-.15,.21-.23,.32-.08,.1-.16,.21-.24,.31-.08,.1-.16,.2-.24,.31-.08,.1-.17,.2-.25,.3-.08,.1-.17,.2-.26,.29-.09,.1-.18,.19-.26,.29-.09,.09-.18,.19-.27,.28s-.18,.18-.28,.27c-.09,.09-.19,.18-.28,.27s-.19,.17-.29,.26c-.1,.09-.2,.17-.3,.25-.1,.08-.2,.16-.3,.24s-.21,.16-.31,.24c-.1,.08-.21,.15-.32,.23-.11,.08-.21,.15-.32,.22s-.22,.14-.33,.21c-.11,.07-.22,.14-.33,.21-3.84,2.29-8.19,2.83-12.51,1.72-.09-.02-.18-.05-.26-.07-.09-.02-.18-.05-.26-.07-.09-.03-.17-.05-.26-.08-.09-.03-.17-.06-.26-.08-.09-.03-.17-.06-.26-.09-.09-.03-.17-.06-.26-.09-.09-.03-.17-.06-.26-.1-.08-.03-.17-.07-.25-.1-.08-.03-.17-.07-.25-.11-.08-.04-.17-.07-.25-.11s-.17-.08-.25-.12c-.08-.04-.16-.08-.25-.12-.08-.04-.16-.08-.24-.12-.08-.04-.16-.08-.24-.13-.08-.04-.16-.09-.24-.13-.08-.04-.16-.09-.24-.14-.08-.05-.16-.09-.23-.14s-.15-.1-.23-.14c-.08-.05-.15-.1-.23-.15-.08-.05-.15-.1-.23-.15-.08-.05-.15-.1-.22-.16-.07-.05-.15-.11-.22-.16-.07-.05-.15-.11-.22-.16-.07-.06-.14-.11-.22-.17-.07-.06-.14-.11-.21-.17-.07-.06-.14-.12-.21-.18-.07-.06-.14-.12-.21-.18-.07-.06-.14-.12-.2-.18-.07-.06-.13-.12-.2-.19-.07-.06-.13-.13-.2-.19-.06-.06-.13-.13-.19-.19-.06-.06-.13-.13-.19-.2-.32-.33-.84-.86-1.06-1.25,.24,.17,.5,.49,.73,.69,.54,.48,1.14,.93,1.74,1.33,.1,.07,.21,.14,.32,.2,.11,.07,.21,.13,.32,.19,.11,.06,.22,.12,.33,.18,.11,.06,.22,.12,.33,.18,.11,.06,.22,.11,.33,.17,.11,.05,.23,.11,.34,.16,.11,.05,.23,.1,.34,.15,.11,.05,.23,.1,.35,.14,.12,.05,.23,.09,.35,.13,.12,.04,.23,.09,.35,.13,.12,.04,.24,.08,.36,.12,.12,.04,.24,.07,.36,.11,.12,.03,.24,.07,.36,.1,.12,.03,.24,.06,.36,.09,.12,.03,.24,.06,.37,.08s.24,.05,.37,.07,.25,.04,.37,.06c.12,.02,.25,.04,.37,.05,.12,.02,.25,.03,.37,.04,.12,.01,.25,.02,.37,.03,.12,0,.25,.02,.37,.03,.12,0,.25,.01,.37,.02,.12,0,.25,0,.37,0,.12,0,.25,0,.37,0s.25,0,.37-.01c.12,0,.25-.01,.37-.02,.12,0,.25-.02,.37-.03,.12-.01,.25-.03,.37-.04,.12-.01,.25-.03,.37-.05,.12-.02,.25-.04,.37-.06,.12-.02,.25-.04,.37-.07,.12-.02,.24-.05,.37-.08,1.23-.27,2.39-.67,3.54-1.18,.35-.15,.7-.31,1.04-.49,.63-.33,1.23-.72,1.82-1.11,.77-.51,1.52-1.08,2.19-1.71,.52-.49,.97-1.01,1.42-1.56,.28-.34,.56-.7,.79-1.07,.11-.18,.23-.35,.33-.53,.11-.18,.21-.36,.32-.55,.1-.18,.2-.37,.3-.56,.1-.19,.19-.38,.28-.57,.09-.19,.17-.38,.25-.58,.08-.19,.16-.39,.23-.59,.07-.2,.15-.39,.21-.59,.07-.2,.13-.4,.19-.6,.68-2.35,.79-4.97,.4-7.38-.11-.63-.24-1.26-.41-1.88-.07-.25-.16-.49-.22-.74l.03-.05Z"/>
    <path class="cls-3" d="M7.27,29.84c-.1-.06-.21-.27-.28-.37-.57-.81-1.08-1.65-1.5-2.55-.06-.12-.11-.24-.17-.37-.05-.12-.11-.25-.16-.37-.05-.12-.1-.25-.15-.37-.05-.13-.09-.25-.14-.38-.04-.13-.09-.25-.13-.38-.04-.13-.08-.26-.12-.38-.04-.13-.07-.26-.11-.39-.03-.13-.07-.26-.1-.39-.03-.13-.06-.26-.09-.39-.03-.13-.06-.26-.08-.39-.03-.13-.05-.26-.07-.4-.02-.13-.04-.26-.06-.4-.02-.13-.04-.27-.05-.4-.02-.13-.03-.27-.04-.4-.01-.13-.02-.27-.03-.4,0-.13-.02-.27-.02-.4,0-.13,0-.27-.01-.4,0-.13,0-.27,0-.4,0-.13,0-.27,0-.4,0-.13,.01-.27,.02-.4,0-.13,.02-.27,.03-.4s.02-.27,.04-.4c.01-.13,.03-.27,.05-.4,.02-.13,.04-.27,.06-.4,.02-.13,.04-.26,.07-.4s.05-.26,.08-.39c.03-.13,.06-.26,.09-.39,.03-.13,.06-.26,.1-.39,.03-.13,.07-.26,.11-.39,.04-.13,.08-.26,.12-.39,.04-.13,.08-.26,.13-.38,.04-.13,.09-.25,.14-.38,.05-.12,.09-.24,.14-.36,.05-.12,.1-.24,.15-.36,.05-.12,.1-.24,.16-.35,.05-.12,.11-.23,.17-.35,.06-.12,.11-.23,.17-.35,.06-.11,.12-.23,.18-.34,.06-.11,.13-.23,.19-.34,.06-.11,.13-.22,.2-.33,.07-.11,.14-.22,.21-.33,.07-.11,.14-.22,.21-.32,.07-.11,.15-.21,.22-.32,.08-.1,.15-.21,.23-.31,.08-.1,.16-.2,.24-.31,.08-.1,.16-.2,.24-.3,.08-.1,.17-.2,.25-.29,.08-.1,.17-.19,.26-.29,.09-.09,.18-.19,.26-.28,.09-.09,.18-.18,.27-.28,.09-.09,.18-.18,.28-.27,.09-.09,.19-.18,.28-.26,.1-.09,.19-.17,.29-.25,.1-.08,.2-.17,.3-.25,.1-.08,.2-.16,.3-.24,.1-.08,.2-.16,.31-.23,.1-.08,.21-.15,.31-.23,.11-.07,.21-.15,.32-.22,.11-.07,.22-.14,.32-.21,.11-.07,.22-.14,.33-.2,.11-.07,.22-.13,.33-.19s.23-.13,.34-.19c.11-.06,.23-.12,.34-.18,.12-.06,.23-.11,.35-.17,.12-.06,.24-.11,.36-.16,.12-.05,.24-.1,.36-.15,.12-.05,.24-.1,.37-.14,.12-.05,.25-.09,.37-.13,.12-.04,.25-.09,.37-.13,.13-.04,.25-.08,.38-.12,.13-.04,.25-.07,.38-.11,.13-.03,.25-.07,.38-.1,.13-.03,.26-.06,.39-.09,.13-.03,.26-.05,.39-.08,.13-.02,.26-.05,.39-.07,.13-.02,.26-.04,.39-.06s.26-.04,.39-.05c.13-.02,.26-.03,.39-.04s.26-.02,.39-.03c.13,0,.26-.02,.39-.02,.13,0,.26-.01,.4-.01,.13,0,.26,0,.4,0,.13,0,.26,0,.4,0,.13,0,.26,0,.39,.02s.26,.02,.39,.03c.13,.01,.26,.02,.39,.03,.13,.01,.26,.03,.39,.04,.13,.02,.26,.03,.39,.05,.13,.02,.26,.04,.39,.06,.13,.02,.26,.05,.39,.07,.13,.03,.26,.05,.39,.08,.13,.03,.26,.06,.38,.09,.13,.03,.26,.07,.38,.1,.13,.04,.25,.07,.38,.11,.13,.04,.25,.08,.38,.12,.13,.04,.25,.08,.37,.13,.09,.03,.19,.07,.28,.1,.09,.04,.18,.07,.28,.11,.09,.04,.18,.08,.27,.11,.09,.04,.18,.08,.27,.12,.09,.04,.18,.08,.27,.12s.18,.09,.27,.13c.09,.04,.18,.09,.26,.13,.09,.05,.17,.09,.26,.14,.09,.05,.17,.1,.26,.14,.09,.05,.17,.1,.26,.15,.08,.05,.17,.1,.25,.15,.08,.05,.17,.11,.25,.16,.08,.05,.17,.11,.25,.16,.08,.06,.16,.11,.24,.17,.08,.06,.16,.11,.24,.17,.08,.06,.16,.12,.24,.18,.08,.06,.16,.12,.23,.18,.08,.06,.15,.12,.23,.19,.08,.06,.15,.13,.23,.19,.08,.06,.15,.13,.22,.19,.07,.07,.15,.13,.22,.2,.07,.07,.14,.13,.22,.2,.07,.07,.14,.14,.21,.21,.07,.07,.14,.14,.21,.21,.07,.07,.14,.14,.2,.21,.07,.07,.13,.14,.2,.22,.07,.07,.13,.15,.2,.22,.06,.07,.13,.15,.19,.23,.06,.08,.13,.15,.19,.23,.06,.08,.12,.15,.18,.23,.06,.08,.12,.16,.18,.24,.06,.08,.12,.16,.18,.24,.36,.5,.78,1.04,1.04,1.6l-.03,.05c.05,.25,.15,.49,.22,.74,.16,.62,.3,1.25,.41,1.88,.38,2.41,.28,5.03-.4,7.38-.06,.2-.12,.4-.19,.6-.07,.2-.14,.4-.21,.59-.07,.2-.15,.39-.23,.59-.08,.19-.17,.39-.25,.58-.09,.19-.18,.38-.28,.57-.1,.19-.19,.37-.3,.56-.1,.18-.21,.37-.32,.55-.11,.18-.22,.36-.33,.53-.24,.37-.52,.73-.79,1.07-.44,.55-.9,1.08-1.42,1.56-.67,.63-1.43,1.2-2.19,1.71-.59,.39-1.19,.78-1.82,1.11-.34,.18-.69,.33-1.04,.49-1.15,.51-2.31,.92-3.54,1.18-.12,.03-.24,.05-.37,.08-.12,.02-.25,.05-.37,.07-.12,.02-.25,.04-.37,.06-.12,.02-.25,.03-.37,.05-.12,.01-.25,.03-.37,.04-.12,.01-.25,.02-.37,.03-.12,0-.25,.02-.37,.02-.12,0-.25,0-.37,.01s-.25,0-.37,0c-.12,0-.25,0-.37,0-.12,0-.25,0-.37-.02-.12,0-.25-.02-.37-.03-.12,0-.25-.02-.37-.03-.12-.01-.25-.03-.37-.04-.12-.02-.25-.03-.37-.05-.12-.02-.25-.04-.37-.06s-.25-.05-.37-.07-.24-.05-.37-.08c-.12-.03-.24-.06-.36-.09-.12-.03-.24-.06-.36-.1-.12-.03-.24-.07-.36-.11-.12-.04-.24-.08-.36-.12-.12-.04-.24-.08-.35-.13-.12-.04-.23-.09-.35-.13-.12-.05-.23-.09-.35-.14-.11-.05-.23-.1-.34-.15-.11-.05-.23-.11-.34-.16-.11-.05-.22-.11-.33-.17-.11-.06-.22-.12-.33-.18-.11-.06-.22-.12-.33-.18-.11-.06-.21-.13-.32-.19-.11-.07-.21-.13-.32-.2-.61-.39-1.2-.84-1.74-1.33-.23-.2-.49-.52-.73-.69Z"/>
    <path class="cls-7" d="M19.2,4.33s.01,0,.02,0c.33-.02,.68-.01,1.01,0,3,.03,6.13,.97,8.44,2.95,2.28,1.96,3.4,4.35,3.62,7.32,.04,.6,.02,1.18-.04,1.78-.27,2.88-1.55,5.58-3.42,7.76-2.15,2.5-5.12,4.25-8.28,5.12-.55,.16-1.11,.29-1.68,.38-.44,.07-.89,.11-1.34,.14-.45,.03-.9,.03-1.35,.02-.45-.01-.9-.05-1.35-.1-.08-.01-.16-.02-.25-.03-.08-.01-.16-.03-.25-.04-.08-.01-.16-.03-.24-.04s-.16-.03-.24-.05c-.08-.02-.16-.03-.24-.05-.08-.02-.16-.04-.24-.06-.08-.02-.16-.04-.24-.06-.08-.02-.16-.04-.24-.07-.08-.02-.16-.05-.24-.07-.08-.02-.16-.05-.24-.07-.08-.03-.16-.05-.24-.08-.08-.03-.16-.05-.23-.08-.08-.03-.16-.06-.23-.09s-.15-.06-.23-.09c-.08-.03-.15-.06-.23-.1-.08-.03-.15-.07-.23-.1-.08-.03-.15-.07-.23-.1-.07-.04-.15-.07-.22-.11-.07-.04-.15-.07-.22-.11-.07-.04-.15-.08-.22-.12s-.14-.08-.22-.12c-.07-.04-.14-.08-.21-.12-.07-.04-.14-.09-.21-.13-.07-.04-.14-.09-.21-.13-.07-.04-.14-.09-.21-.14-.07-.05-.14-.09-.2-.14-.07-.05-.14-.1-.2-.14-.07-.05-.13-.1-.2-.15-.07-.05-.13-.1-.2-.15-.07-.05-.13-.1-.19-.15-.06-.05-.13-.11-.19-.16-.06-.05-.13-.11-.19-.16-1.95-1.73-3.11-4.29-3.26-6.88-.22-3.7,1.43-7.31,3.86-10.03,.09-.1,.17-.19,.26-.29,.09-.09,.18-.19,.27-.28,.09-.09,.18-.18,.28-.27,.09-.09,.19-.18,.28-.27,.1-.09,.19-.17,.29-.26,.1-.08,.2-.17,.3-.25,.1-.08,.2-.16,.3-.24,.1-.08,.2-.16,.31-.24,.1-.08,.21-.15,.31-.23,.11-.07,.21-.15,.32-.22,.11-.07,.22-.14,.32-.21,.11-.07,.22-.14,.33-.2,.11-.07,.22-.13,.33-.2,.11-.06,.23-.13,.34-.19,.11-.06,.23-.12,.34-.18,.12-.06,.23-.12,.35-.17,.12-.06,.23-.11,.35-.16,.12-.05,.24-.1,.36-.15s.24-.1,.36-.15c.12-.05,.24-.09,.36-.14,.12-.04,.24-.09,.37-.13,.12-.04,.25-.08,.37-.12s.25-.07,.37-.11c.12-.03,.25-.07,.37-.1,.13-.03,.25-.06,.38-.09,.13-.03,.25-.06,.38-.08,.13-.03,.25-.05,.38-.07,.13-.02,.25-.04,.38-.06,.13-.02,.26-.04,.38-.05,.13-.02,.26-.03,.39-.04,.13-.01,.26-.02,.39-.03,.13,0,.26-.02,.39-.02Z"/>
    <path class="cls-5" d="M7.25,21.46c-.11-.26-.18-.54-.24-.82-.03-.13-.06-.26-.08-.4-.02-.13-.05-.27-.06-.4-.02-.13-.03-.27-.05-.4-.01-.13-.02-.27-.03-.4,0-.13,0-.27,0-.4,0-.13,0-.27,0-.4,0-.13,.01-.27,.03-.4,.01-.13,.03-.27,.05-.4,.43-3.28,2.34-6.19,4.94-8.18,2.69-2.07,6.3-3.07,9.67-2.63,.11,.02,.22,.04,.33,.06,.53,.09,1.06,.17,1.58,.32,1.93,.55,3.78,1.7,4.97,3.35,1.37,1.9,1.9,4.42,1.52,6.73-.48,2.87-2.09,5.5-4.32,7.34-.21,.18-.42,.36-.65,.52-.7,.5-1.45,.92-2.23,1.29-.21,.1-.41,.22-.62,.3-.07,.03-.14,.06-.21,.09-.07,.03-.14,.06-.22,.08-.07,.03-.14,.05-.22,.08-.07,.03-.15,.05-.22,.07-.07,.02-.15,.05-.22,.07-.07,.02-.15,.05-.22,.07-.07,.02-.15,.04-.22,.06-.07,.02-.15,.04-.22,.06-.07,.02-.15,.04-.22,.06-.07,.02-.15,.03-.22,.05-.07,.02-.15,.03-.23,.05-.08,.02-.15,.03-.23,.04-.08,.01-.15,.03-.23,.04-.08,.01-.15,.02-.23,.04-.08,.01-.15,.02-.23,.03-.08,0-.15,.02-.23,.03-.08,0-.15,.02-.23,.02-.08,0-.15,.01-.23,.02-.08,0-.15,.01-.23,.02-.08,0-.15,0-.23,.01-.08,0-.15,0-.23,0-.08,0-.15,0-.23,0-.08,0-.15,0-.23,0-.08,0-.15,0-.23,0-.08,0-.15,0-.23,0-.08,0-.15,0-.23-.01-.08,0-.15-.01-.23-.02-.08,0-.15-.01-.23-.02-.08,0-.15-.02-.23-.02-.08,0-.15-.02-.23-.03-.08,0-.15-.02-.23-.03-.08-.01-.15-.02-.23-.04-.16-.03-.32-.06-.48-.09-.16-.03-.32-.07-.47-.11s-.31-.09-.47-.13c-.15-.05-.31-.1-.46-.15-.15-.05-.3-.11-.45-.17-.15-.06-.3-.13-.45-.19-.15-.07-.29-.14-.44-.21-.14-.07-.29-.15-.43-.23-.38-.21-.77-.45-1.09-.74-.18-.11-.35-.27-.51-.4-1.09-.91-1.86-2.11-2.34-3.45Z"/>
    <path class="cls-7" d="M18.6,25.44c-.16,.35-.35,.68-.53,1.02-.09-.21-.18-.44-.3-.64h0c.28-.13,.55-.25,.83-.38Z"/>
    <path class="cls-7" d="M23.8,7.87c-.12,.44-.2,.91-.29,1.36-.2-.18-.32-.46-.48-.68h0c.25-.24,.5-.47,.76-.68Z"/>
    <path class="cls-7" d="M24.56,10.9c.69-.28,1.4-.54,2.11-.76-.46,.66-.87,1.38-1.37,2.02-.28-.4-.46-.86-.74-1.25Z"/>
    <path class="cls-7" d="M20.35,24.26c.45-.27,1.07-.95,1.44-1.34l.12,1.98c.02,.45,.03,.9,.09,1.35-.23-.3-.49-.57-.73-.86-.27-.34-.63-.83-.92-1.12h0Z"/>
    <path class="cls-7" d="M25.77,13.18c1.09-.1,2.18-.27,3.28-.32l-1.65,1.09c-.35,.23-.72,.5-1.1,.68-.06-.31-.17-.64-.29-.93-.07-.17-.16-.34-.23-.51v-.02Z"/>
    <path class="cls-7" d="M26.39,15.68c1.08,.33,2.13,.78,3.23,1.01-1.23,.32-2.46,.69-3.7,.98,.21-.62,.45-1.33,.47-1.99Z"/>
    <path class="cls-7" d="M22.58,22.18h.02s.02-.02,.03-.03c.44-.3,1.13-1.06,1.48-1.5,.16,.3,.28,.62,.41,.93,.14,.35,.3,.69,.45,1.04,.18,.41,.4,.8,.55,1.22-.25-.16-.52-.3-.78-.44l-1.5-.84c-.22-.12-.44-.24-.65-.37Z"/>
    <path class="cls-7" d="M25.67,18.28c.8,.78,1.65,1.52,2.42,2.33-1.2-.19-2.41-.29-3.61-.46,.47-.54,.89-1.22,1.19-1.87Z"/>
    <path class="cls-4" d="M18.36,10.65c.27-.53,.57-1.04,.83-1.57,.2-.41,.41-.81,.62-1.22,.14-.27,.27-.55,.43-.81,.1,.73,.23,1.45,.37,2.17v.1c.1,.4,.16,.81,.27,1.2,.24-.19,.44-.43,.66-.63l1.48-1.36c.16,.22,.28,.5,.48,.68v.03c-.2,.74-.38,1.48-.53,2.23,.33-.12,.66-.24,.99-.36,.19-.07,.4-.13,.58-.23h.01c.28,.39,.45,.85,.74,1.25v.02c-.28,.39-.6,.79-.83,1.21,.42-.09,.86-.12,1.28-.2h.02s0,.02,0,.02c.07,.17,.15,.34,.23,.51,.12,.29,.24,.62,.29,.93-.34,.21-.7,.42-1.01,.67,.36,.12,.72,.24,1.09,.36h.02c-.02,.66-.25,1.38-.47,2h-.03c-.21,.06-.42,.12-.61,.21,.12,.13,.25,.28,.38,.39v.02c-.29,.65-.71,1.33-1.18,1.87-.23-.05-.44-.06-.68-.06,.09,.18,.18,.39,.3,.55h0c-.35,.45-1.04,1.2-1.48,1.51,0,0-.02,.01-.03,.02h-.02s-.02,0-.02,0c-.25-.18-.56-.33-.83-.48-.09,.11-.02,.59,0,.74,.02,.15,.03,.31,.05,.46v.02c-.38,.39-.99,1.07-1.44,1.34-.28-.32-.51-.68-.78-.99-.31,.72-.64,1.43-.94,2.15l-.03,.03c-.27,.13-.55,.25-.83,.37-.35-.74-.7-1.48-1.1-2.2-.48,.7-1,1.38-1.49,2.07-.21,.3-.44,.58-.63,.9h-.06c.02-.46-.02-.92-.05-1.39l-.09-1.32c-.03-.34-.02-.69-.06-1.03-.39,.22-.83,.62-1.23,.88-.4,.3-.8,.58-1.2,.88-.27,.2-.53,.42-.82,.59,.24-.62,.47-1.25,.69-1.87,.24-.65,.45-1.33,.71-1.97-.36,.04-.74,.17-1.09,.27l-1.77,.48c-.35,.1-.71,.2-1.06,.29-.04-.05-.09-.1-.1-.16,.75-.95,1.7-1.81,2.48-2.74-.53-.21-1.08-.38-1.61-.58-.47-.17-.95-.38-1.43-.5,.35-.12,.68-.3,1.02-.46,.72-.34,1.43-.69,2.16-.99-.32-.26-.66-.5-.99-.75-.33-.25-.66-.52-.99-.77-.27-.21-.55-.4-.81-.63,.39-.02,.79-.08,1.18-.13,.85-.11,1.71-.26,2.56-.33-.51-.99-1.16-1.91-1.67-2.89,.49,.19,1.01,.31,1.5,.47,.65,.21,1.29,.46,1.96,.64-.1-.53-.23-1.06-.35-1.59-.11-.51-.22-1.02-.35-1.52,.93,.53,1.89,.99,2.83,1.5,.13-.55,.21-1.11,.31-1.66,.09-.54,.2-1.07,.29-1.6l1.88,2.98Z"/>
    <path class="cls-2" d="M18.79,11.37c.08,0,.16,0,.24,.03,.07,.03,.12,.09,.15,.16,.04,.11-.03,.92-.08,1.02-.05,.09-.12,.11-.21,.14-.08,0-.17,0-.25-.04-.06-.03-.12-.08-.14-.14-.06-.17,.01-.89,.09-1.04,.04-.08,.13-.1,.21-.13Z"/>
    <path class="cls-2" d="M20.07,12.55c.05-.26,.21-.73,.43-.88,.06-.04,.12-.06,.2-.04,.1,.02,.21,.07,.26,.17,.06,.12,.05,.25,0,.37-.08,.24-.22,.61-.46,.72-.07,.04-.17,.05-.25,.02-.09-.04-.13-.11-.17-.2,0-.03-.02-.05-.02-.08v-.08Z"/>
    <path class="cls-2" d="M16.78,11.77c.06,0,.14-.01,.2,0,.09,.04,.14,.13,.18,.22,.09,.22,.27,.74,.17,.95-.05,.1-.13,.14-.22,.17-.04,0-.08,0-.12,0-.07,0-.13-.01-.18-.07-.11-.14-.33-.85-.29-1.02,.03-.12,.16-.2,.26-.26Z"/>
    <path class="cls-2" d="M22.48,12.44s.06,0,.09,.01c.08,.02,.2,.08,.24,.16,.04,.08,.02,.2-.01,.28-.1,.23-.59,.69-.82,.78-.07,0-.13,0-.2-.03-.07-.03-.13-.06-.16-.14-.04-.1,0-.24,.05-.34,.13-.22,.56-.64,.8-.71Z"/>
    <path class="cls-2" d="M13.53,13.8s.09,0,.13,0c.15,.04,.77,.57,.85,.71,.03,.07,.04,.15,.01,.22-.05,.12-.16,.17-.27,.22-.04,0-.08,0-.12-.01-.2-.06-.77-.5-.85-.68-.04-.08-.04-.17,0-.25,.05-.11,.15-.17,.26-.22Z"/>
    <path class="cls-2" d="M12.16,17.66c.27,0,.7-.05,.95,0,.12,.03,.16,.09,.22,.19,0,.1,.01,.21-.03,.3-.05,.1-.14,.13-.24,.17-.25,.02-.75,.07-.98-.03-.08-.04-.15-.1-.17-.19-.03-.09-.02-.24,.04-.33,.05-.07,.13-.1,.21-.12Z"/>
    <path class="cls-2" d="M17.51,21.49c.07,0,.14,0,.2,0,.08,.02,.17,.07,.21,.15,.07,.14,.1,.9,.05,1.06-.03,.09-.12,.15-.2,.19-.08,0-.16,0-.24-.02-.09-.03-.15-.09-.19-.17-.08-.16-.1-.89-.03-1.06,.04-.09,.12-.13,.2-.16Z"/>
    <path class="cls-2" d="M23.64,14.03c.07,0,.14,.02,.2,.06,.07,.04,.12,.11,.14,.2,.02,.1,0,.19-.07,.27-.15,.21-.72,.48-.98,.51-.07-.01-.14-.04-.2-.07,0,0-.02-.01-.03-.02,0,0-.02-.01-.02-.02s-.02-.02-.02-.02c0,0-.01-.02-.02-.03,0,0-.01-.02-.02-.03s0-.02-.01-.03c0,0,0-.02-.01-.03,0-.01,0-.02,0-.03-.02-.07,0-.15,.05-.21,.12-.17,.8-.51,1.01-.55Z"/>
    <path class="cls-2" d="M12.45,15.71s.07,0,.1,0c.24,.03,.86,.26,1,.45,.05,.07,.07,.15,.05,.23-.03,.13-.14,.21-.24,.28-.05,0-.09,0-.14-.01-.26-.06-.86-.23-.99-.46-.04-.07-.06-.15-.03-.22,.04-.12,.15-.2,.26-.26Z"/>
    <path class="cls-2" d="M22.04,19.21c.05,0,.11,0,.16,0,.2,.04,.75,.46,.85,.63,.05,.08,.06,.16,.04,.24-.03,.12-.14,.18-.24,.24-.07,.01-.15,.02-.22,0-.19-.06-.71-.49-.81-.65-.04-.07-.06-.16-.03-.24,.04-.11,.13-.17,.24-.22Z"/>
    <path class="cls-2" d="M14.93,12.5c.07,0,.13,0,.2,.01,.14,.04,.57,.7,.65,.86,.03,.06,.02,.14,0,.2-.05,.11-.14,.17-.25,.22-.08,0-.17,.01-.24-.02-.09-.05-.59-.73-.63-.84-.03-.08-.04-.17,0-.25,.06-.11,.16-.14,.27-.18Z"/>
    <path class="cls-2" d="M24.15,15.93c.08,0,.16,.02,.23,.07,.07,.05,.11,.13,.12,.22,0,.01,0,.02,0,.04,0,.01,0,.02,0,.04s0,.02,0,.04c0,.01,0,.02,0,.04,0,.01,0,.02-.01,.03,0,.01-.01,.02-.02,.03,0,.01-.01,.02-.02,.03,0,.01-.01,.02-.02,.03-.19,.21-.77,.19-1.04,.21-.05,0-.11-.02-.16-.05-.09-.05-.18-.16-.21-.26-.02-.07-.01-.13,.03-.19,.16-.21,.84-.24,1.11-.27Z"/>
    <path class="cls-2" d="M20.47,20.77c0-.13,.01-.21,.11-.3,.05-.05,.12-.07,.19-.07,.3,0,.59,.42,.78,.62,.08,.09,.19,.21,.18,.34,0,.09-.07,.17-.12,.24-.04,.03-.08,.06-.13,.08-.06,.03-.13,.03-.19,0-.14-.06-.79-.77-.83-.92Z"/>
    <path class="cls-2" d="M22.83,17.75c.08,0,.16,0,.24,0,.26,.04,.83,.12,.98,.34,.05,.07,.06,.15,.04,.23-.03,.12-.11,.19-.21,.26-.08,.02-.15,.03-.24,.01-.25-.03-.83-.18-.98-.39-.04-.06-.07-.13-.05-.2,.03-.12,.12-.2,.22-.26Z"/>
    <path class="cls-2" d="M13.32,19.25c.06,0,.1,0,.15,.02,.09,.03,.18,.12,.21,.21,.03,.07,.03,.14,0,.21-.11,.23-.79,.48-1.03,.56-.04,0-.08-.01-.13-.03-.11-.04-.19-.14-.23-.25-.03-.09-.04-.2,0-.29,.02-.05,.06-.09,.11-.11,.17-.1,.69-.25,.92-.32Z"/>
    <path class="cls-2" d="M14.39,20.55s.09,0,.14,.01c.09,.02,.2,.07,.25,.16,.04,.08,.02,.18,0,.26-.1,.26-.61,.72-.86,.83-.02,0-.04,0-.07,0-.09-.02-.2-.08-.25-.16-.05-.08-.11-.25-.07-.35,.04-.13,.74-.67,.88-.75Z"/>
    <path class="cls-2" d="M15.89,21.24c.1,0,.21,0,.3,.06,.06,.04,.1,.1,.11,.18,.01,.07,0,.15-.02,.22-.04,.13-.27,.77-.35,.86-.06,.07-.13,.07-.22,.09-.06,0-.11,0-.17-.02-.09-.02-.17-.09-.22-.17-.06-.12-.04-.25,0-.37,.09-.24,.31-.74,.55-.85Z"/>
    <path class="cls-2" d="M19.29,21.13c.06,0,.11,0,.16,.03,.19,.1,.52,.81,.6,1.03-.02,.06-.04,.13-.07,.18-.05,.1-.13,.15-.24,.19-.08,0-.21,0-.28-.04-.13-.07-.34-.65-.4-.81-.05-.12-.1-.26-.04-.38,.06-.12,.16-.16,.28-.2Z"/>
    <path class="cls-8" d="M19.7,19.72c-.09,.05-.19,.11-.28,.16-.03,.02-.06,.03-.09,.05-.03,.01-.06,.03-.09,.04-.03,.01-.06,.03-.09,.04-.03,.01-.06,.03-.09,.04-.03,.01-.06,.02-.09,.04-.03,.01-.06,.02-.09,.03-.03,.01-.06,.02-.1,.03-.03,.01-.06,.02-.1,.03-.03,0-.06,.02-.1,.03-.03,0-.06,.02-.1,.02-.03,0-.07,.02-.1,.02-.03,0-.07,.01-.1,.02-.03,0-.07,.01-.1,.02-.03,0-.07,.01-.1,.02-.03,0-.07,0-.1,.01-.03,0-.07,0-.1,.01-.03,0-.07,0-.1,0-.03,0-.07,0-.1,0-.03,0-.07,0-.1,0-.03,0-.07,0-.1,0-.03,0-.07,0-.1,0s-.07,0-.1,0c-.03,0-.07,0-.1,0-.03,0-.07,0-.1,0-.03,0-.07,0-.1-.01-.03,0-.07,0-.1-.01-.03,0-.07-.01-.1-.02-.03,0-.07-.01-.1-.02-.03,0-.07-.01-.1-.02-.03,0-.07-.02-.1-.02-.03,0-.06-.02-.1-.03-.03,0-.06-.02-.1-.03-.04-.01-.08-.03-.13-.04-.04-.02-.08-.03-.12-.05-.04-.02-.08-.04-.12-.06-.04-.02-.08-.04-.12-.06-.04-.02-.08-.04-.12-.07-.04-.02-.08-.05-.11-.07-.04-.03-.07-.05-.11-.08-.04-.03-.07-.05-.1-.08-.03-.03-.07-.06-.1-.09-.03-.03-.06-.06-.1-.09-.03-.03-.06-.06-.09-.1s-.06-.07-.09-.1c-.03-.03-.05-.07-.08-.11-.03-.04-.05-.07-.08-.11-.02-.04-.05-.08-.07-.11-.02-.04-.04-.08-.06-.12-.32-.63-.31-1.41-.1-2.07,.34-1.04,1.21-1.93,2.17-2.42,.29-.14,.59-.29,.89-.38,.7-.22,1.57-.23,2.27,0,.64,.19,1.19,.62,1.51,1.22,.02,.04,.04,.08,.06,.12,.02,.04,.04,.08,.06,.13,.02,.04,.03,.08,.05,.13,.02,.04,.03,.09,.04,.13,.01,.04,.03,.09,.04,.13,.01,.04,.02,.09,.03,.13,0,.04,.02,.09,.02,.14,0,.05,.01,.09,.02,.14,0,.05,0,.09,0,.14,0,.05,0,.09,0,.14,0,.05,0,.09,0,.14,0,.05,0,.09-.01,.14,0,.05-.01,.09-.02,.14,0,.05-.01,.09-.02,.13,0,.04-.02,.09-.03,.13-.01,.04-.02,.09-.04,.13-.01,.03-.02,.06-.03,.09-.01,.03-.02,.06-.03,.09-.01,.03-.02,.06-.04,.09-.01,.03-.02,.06-.04,.09-.01,.03-.03,.06-.04,.09-.01,.03-.03,.06-.04,.09-.01,.03-.03,.06-.04,.09-.02,.03-.03,.06-.05,.09-.02,.03-.03,.06-.05,.09-.02,.03-.03,.06-.05,.09-.02,.03-.03,.06-.05,.08-.02,.03-.04,.06-.05,.08-.02,.03-.04,.06-.06,.08-.02,.03-.04,.05-.06,.08-.02,.03-.04,.05-.06,.08-.02,.03-.04,.05-.06,.08-.02,.03-.04,.05-.06,.08-.02,.03-.04,.05-.07,.08-.02,.02-.04,.05-.07,.07-.02,.02-.05,.05-.07,.07-.02,.02-.05,.05-.07,.07-.02,.02-.05,.05-.07,.07-.02,.02-.05,.05-.07,.07-.02,.02-.05,.04-.08,.07-.03,.02-.05,.04-.08,.06-.03,.02-.05,.04-.08,.06-.03,.02-.05,.04-.08,.06-.03,.02-.05,.04-.08,.06-.03,.02-.05,.04-.08,.06-.03,.02-.06,.04-.08,.05-.03,.02-.06,.04-.08,.05-.03,.02-.06,.03-.09,.05Z"/>
  </g>
</svg>