<?xml version="1.0" encoding="UTF-8"?>
<svg id="_Слой_1" data-name="Слой 1" xmlns="http://www.w3.org/2000/svg" xmlns:xlink="http://www.w3.org/1999/xlink" viewBox="0 0 40 40">
  <defs>
    <style>
      .cls-1 {
        fill: #fa5b07;
      }

      .cls-2 {
        fill: #fc9539;
      }

      .cls-3 {
        fill: tomato;
      }

      .cls-4 {
        fill: #fead51;
      }

      .cls-5 {
        fill: #57c200;
      }

      .cls-6 {
        fill: #fed413;
      }

      .cls-7 {
        fill: #eaf34b;
      }

      .cls-8 {
        fill: url(#_Безымянный_градиент_3);
      }

      .cls-9 {
        fill: #9cc00f;
      }
    </style>
    <linearGradient id="_Безымянный_градиент_3" data-name="Безымянный градиент 3" x1="209.84" y1="214.55" x2="291" y2="560.59" gradientTransform="translate(.9 49.06) scale(.06 -.06)" gradientUnits="userSpaceOnUse">
      <stop offset="0" stop-color="#fd6408"/>
      <stop offset="1" stop-color="#ffdc02"/>
    </linearGradient>
  </defs>
  <g>
    <rect class="cls-3" x=".5" y=".5" width="39" height="39" rx="4.96" ry="4.96"/>
    <path d="M34.54,1c2.46,0,4.46,2,4.46,4.46v29.07c0,2.46-2,4.46-4.46,4.46H5.46c-2.46,0-4.46-2-4.46-4.46V5.46C1,3,3,1,5.46,1h29.07m0-1H5.46C2.45,0,0,2.45,0,5.46v29.07c0,3.02,2.45,5.46,5.46,5.46h29.07c3.02,0,5.46-2.45,5.46-5.46V5.46c0-3.02-2.45-5.46-5.46-5.46h0Z"/>
  </g>
  <g>
    <path class="cls-5" d="M23.8,4.04s.07-.05,.12-.04c.09,.1,.1,.26,.13,.38,.12,.52,.18,1.01,.18,1.54,0,.07,0,.14,0,.21s0,.14-.01,.21c0,.07-.01,.14-.02,.21,0,.07-.02,.14-.02,.21s-.02,.14-.03,.21c-.01,.07-.02,.14-.04,.21-.01,.07-.03,.14-.04,.21-.02,.07-.03,.14-.05,.21s-.04,.14-.05,.21c-.02,.07-.04,.14-.06,.21-.02,.07-.04,.14-.07,.2-.02,.07-.05,.13-.07,.2-.02,.07-.05,.13-.08,.2-.03,.07-.05,.13-.08,.2-.03,.07-.06,.13-.09,.19-.03,.06-.06,.13-.09,.19-.11,.21-.24,.41-.36,.61,1.32-.79,2.76-1.01,4.26-.64,.43,.11,.88,.26,1.28,.46l.07,.04s.01,.04,0,.07c-.06,.09-.36,.38-.46,.48-.71,.68-1.56,1.24-2.45,1.65-.37,.17-.75,.31-1.13,.48,.5-.06,.87,.04,1.27,.36,.29,.23,.5,.56,.55,.94,.02,.18,0,.35-.03,.53-.76-.57-1.83-.76-2.76-.62-.06,0-.12,.02-.18,.03-.06,.01-.12,.02-.18,.04-.06,.01-.12,.03-.18,.05-.06,.02-.12,.03-.18,.05-.06,.02-.12,.04-.18,.06s-.12,.05-.17,.07c-.06,.02-.11,.05-.17,.08-.06,.03-.11,.06-.17,.08-.06,.03-.11,.06-.16,.09-.05,.03-.11,.06-.16,.1-.05,.03-.1,.07-.15,.11-.05,.04-.1,.07-.15,.11-.05,.04-.1,.08-.15,.12-.05,.04-.09,.08-.14,.13-.05,.04-.09,.09-.13,.13-.04,.04-.09,.09-.13,.14-.12-.04-.25-.14-.36-.2-.19-.11-.38-.21-.57-.31-.14-.06-.27-.13-.41-.2,.01-.39,.05-.76,.17-1.13,.24-.78,.7-1.48,1.12-2.17,.51-.83,1.09-1.72,1.49-2.61,.18-.41,.35-.82,.5-1.25,.15-.42,.28-.85,.39-1.28,.15-.58,.28-1.17,.42-1.76Z"/>
    <path class="cls-9" d="M20.09,9.18c.15-.48,.28-.96,.46-1.43,.59-1.58,1.7-3,3.25-3.7-.14,.59-.26,1.18-.42,1.76-.11,.43-.24,.86-.39,1.28-.15,.42-.32,.84-.5,1.25-.4,.89-.97,1.78-1.49,2.61-.43,.69-.88,1.39-1.12,2.17-.12,.38-.15,.74-.17,1.13-.49-.18-.97-.33-1.48-.42-.01-.75-.31-1.58-.67-2.23-.68-1.24-1.47-1.63-2.78-2.01,.38-.4,.89-.66,1.44-.68,.65-.03,1.18,.32,1.64,.74-.21-.34-.39-.68-.56-1.04-.41-.88-.59-1.79-.53-2.76,.02-.31,.05-.62,.16-.92,.59,.23,1.13,.49,1.61,.91,1,.87,1.44,2.05,1.54,3.34Z"/>
    <path class="cls-8" d="M12.8,17.83c.39-1.21,.83-2.23,1.82-3.08,.73-.63,1.71-1.01,2.69-1.01,.31,0,.61,.05,.92,.08,.51,.09,.99,.24,1.48,.42,.13,.07,.27,.14,.41,.2,.19,.1,.38,.2,.57,.31,.11,.06,.24,.16,.36,.2,.26,.18,.57,.38,.78,.62,.89,.9,1.39,2.01,1.38,3.29,0,.55-.06,1.11-.18,1.64l-.05,.21c-.07,.31-.14,.63-.23,.94-.3,1.02-.74,2.02-1.21,2.96-.14,.29-.28,.61-.46,.88-.06,.1-.11,.21-.17,.31-.46,.78-.92,1.56-1.4,2.34-.23,.36-.45,.75-.71,1.09l-.07,.11c-.33,.53-.7,1.03-1.06,1.54-.23,.32-.45,.67-.72,.97l-.07,.08c-.62,.81-1.28,1.56-1.99,2.29-.54,.54-1.72,1.77-2.51,1.78-.18,0-.33-.06-.45-.19-.26-.26-.37-.75-.44-1.1v-.07c-.25-1.45-.26-2.91-.23-4.38,.02-1.08,.06-2.15,.12-3.23,.03-.6,.08-1.2,.13-1.8,.02-.32,.03-.65,.08-.97,.02-.33,.07-.67,.11-1,.08-.66,.18-1.3,.3-1.96,.1-.53,.17-1.1,.32-1.62v-.02c.02-.2,.1-.41,.15-.6,.11-.41,.22-.82,.35-1.23Z"/>
    <path class="cls-1" d="M14.47,20.87c.86,.43,1.7,.84,2.61,1.15-.74-.13-1.47-.39-2.16-.67-.18-.07-.37-.14-.54-.23,.04-.08,.05-.17,.09-.25Z"/>
    <path class="cls-1" d="M14.03,15.36c.15,0,.5,.23,.65,.32,.27,.15,.55,.28,.82,.43,.51,.27,1.01,.55,1.53,.81,.44,.22,.89,.42,1.32,.65-.22-.01-.51-.15-.72-.23-1.21-.45-2.62-1.11-3.6-1.97Z"/>
    <path class="cls-1" d="M20.89,20.4c-.24-.07-.49-.12-.73-.19-.64-.18-1.22-.43-1.8-.76,.05-.01,.62,.23,.71,.26,.56,.19,1.31,.39,1.89,.45h.02s.02,.01,.02,.01l1.31,.22c.23,.04,.5,.05,.72,.12l-.05,.21c-.69-.08-1.4-.14-2.07-.33h-.02Z"/>
    <path class="cls-7" d="M15.83,14.92c.17-.01,.39,.03,.53,.13,.09,.06,.17,.15,.19,.26,.02,.11-.02,.21-.08,.3-.12,.16-.29,.2-.48,.23-.18,0-.35,0-.51-.08-.11-.06-.2-.15-.23-.27-.02-.09,0-.19,.05-.27,.11-.18,.33-.25,.53-.29Z"/>
    <path class="cls-4" d="M12.13,24.82c.33,.24,.69,.46,1.06,.63-.04,.26-.14,.54-.21,.79-.11,.4-.2,.81-.29,1.22-.15,.66-.3,1.32-.42,1.99-.09,.49-.15,.98-.25,1.46,0,.01,0,0-.01,.03l-.02-.03h.03s0-.02,0-.02h-.03c-.04-.12-.03-.62-.04-.79-.04-1.14-.03-2.28,.04-3.43,.03-.62,.12-1.24,.13-1.86Z"/>
    <path class="cls-7" d="M13.4,18.12c.19-.58,.33-1.28,.92-1.59,.22-.11,.46-.15,.69-.07,.24,.08,.42,.25,.53,.47,.2,.41,.09,.81-.06,1.22-.09,.24-.17,.48-.27,.72-.14-.07-.31-.11-.46-.16-.43-.14-.99-.32-1.36-.59Z"/>
    <path class="cls-6" d="M12.8,17.83c.21,.07,.38,.23,.59,.29h0c.37,.26,.93,.43,1.36,.58,.15,.05,.32,.09,.46,.16-.16,.43-.32,.87-.48,1.3-.09,.23-.2,.46-.26,.69h0c-.04,.09-.05,.18-.09,.26-.23-.17-.56-.31-.81-.46-.25-.15-.47-.32-.72-.48v-.02c.02-.07,.03-.15,.05-.23-.13-.06-.45-.31-.59-.28,.02-.2,.09-.41,.15-.6,.11-.41,.22-.82,.35-1.23Z"/>
    <path class="cls-2" d="M12.9,19.95c.19,.15,1.38,.87,1.57,.91h0c-.04,.09-.05,.18-.09,.26-.23-.17-.56-.31-.81-.46-.25-.15-.47-.32-.72-.48v-.02c.02-.07,.03-.15,.05-.23Z"/>
    <path class="cls-6" d="M20.98,20.16c0-.17,.32-1.24,.38-1.49,.22-.94,.44-2.14,.47-3.1,.89,.9,1.39,2.01,1.38,3.29,0,.55-.06,1.11-.18,1.64-.22-.06-.49-.08-.72-.12l-1.31-.22h-.02Z"/>
    <path class="cls-4" d="M12.31,19.67c.14-.03,.46,.22,.59,.28-.01,.08-.02,.15-.05,.23v.02c.25,.15,.47,.33,.72,.48,.25,.15,.58,.29,.81,.46-.24,.74-.44,1.49-.65,2.24-.17,.62-.38,1.28-.5,1.92,.45,.25,.93,.46,1.4,.68-.49-.12-.97-.32-1.44-.5-.37-.17-.73-.39-1.06-.63h0c-.22-.16-.34-.38-.53-.55h-.02c.02-.34,.07-.67,.11-1.01,.08-.66,.18-1.3,.3-1.96,.1-.53,.17-1.1,.32-1.62v-.02Z"/>
    <path class="cls-1" d="M12.31,19.67c.14-.03,.46,.22,.59,.28-.01,.08-.02,.15-.05,.23v.02c-.21,.85-.35,1.72-.47,2.58-.09,.61-.19,1.22-.22,1.83h0c.35,.24,.7,.47,1.07,.67,.45,.25,.93,.46,1.4,.68-.49-.12-.97-.32-1.44-.5-.37-.17-.73-.39-1.06-.63h0c-.22-.16-.34-.38-.53-.55h-.02c.02-.34,.07-.67,.11-1.01,.08-.66,.18-1.3,.3-1.96,.1-.53,.17-1.1,.32-1.62v-.02Z"/>
    <path class="cls-6" d="M20.9,20.4c.67,.18,1.38,.25,2.07,.33-.07,.31-.14,.63-.23,.94-.3,1.02-.74,2.02-1.21,2.96-.14,.29-.28,.61-.46,.88-.25-.03-.5-.04-.75-.06-.43-.04-.85-.12-1.27-.21,.09-.26,.24-.54,.35-.81,.37-.91,.74-1.8,1.07-2.73,.15-.42,.32-.86,.41-1.3h.02Z"/>
    <path class="cls-1" d="M18.92,25.49c-.96-.21-1.91-.56-2.74-1.1,.91,.36,1.91,.61,2.86,.84h.02c.42,.09,.84,.16,1.27,.2,.25,.03,.5,.03,.75,.06-.06,.1-.11,.21-.17,.31-.46,.78-.92,1.56-1.4,2.34-.23,.36-.45,.75-.71,1.09l-.07,.11c-.33,.53-.7,1.03-1.06,1.54-.23,.32-.45,.67-.72,.97l-.07,.08c-.62,.81-1.28,1.56-1.99,2.29-.54,.54-1.72,1.77-2.51,1.78-.18,0-.33-.06-.45-.19-.26-.26-.37-.75-.44-1.1,0,0,.01,0,.02,0,0,0,.02,0,.03,0,.02,0,.26,.36,.4,.45,.11,.07,.23,.11,.36,.08,.96-.2,2.59-2.68,3.15-3.53-.31-.11-.61-.23-.9-.35-.16-.07-.32-.17-.49-.22-.04-.01-.04-.02-.07-.06h0c.13,.02,.48,.18,.63,.23,.31,.11,.63,.21,.96,.26,0-.08,.3-.48,.36-.58,.37-.59,.73-1.19,1.07-1.79-.41-.12-.82-.23-1.21-.39-.23-.09-.45-.21-.67-.31-.08-.04-.27-.08-.32-.15h0s.02,0,.02,0c.16,.04,.32,.11,.48,.16,.58,.17,1.2,.36,1.8,.46h.02c.12-.18,.21-.39,.32-.58,.24-.44,.47-.88,.7-1.32l.48-.94c.1-.2,.22-.41,.29-.63Z"/>
  </g>
</svg>