<?xml version="1.0" encoding="UTF-8"?>
<svg id="_Слой_1" data-name="Слой 1" xmlns="http://www.w3.org/2000/svg" viewBox="0 0 40 40">
  <defs>
    <style>
      .cls-1 {
        fill: #a1d962;
      }

      .cls-2 {
        fill: #209501;
      }

      .cls-3 {
        fill: #d00908;
      }

      .cls-4 {
        fill: #3aa701;
      }

      .cls-5 {
        fill: #ff1493;
      }

      .cls-6 {
        fill: #f12e2e;
      }

      .cls-7 {
        fill: #b70104;
      }

      .cls-8 {
        fill: #5fc525;
      }
    </style>
  </defs>
  <g>
    <rect class="cls-5" x=".5" y=".5" width="39" height="39" rx="4.96" ry="4.96"/>
    <path d="M34.54,1c2.46,0,4.46,2,4.46,4.46v29.07c0,2.46-2,4.46-4.46,4.46H5.46c-2.46,0-4.46-2-4.46-4.46V5.46C1,3,3,1,5.46,1h29.07m0-1H5.46C2.45,0,0,2.45,0,5.46v29.07c0,3.02,2.45,5.46,5.46,5.46h29.07c3.02,0,5.46-2.45,5.46-5.46V5.46c0-3.02-2.45-5.46-5.46-5.46h0Z"/>
  </g>
  <path class="cls-2" d="M11.6,3.54c.27-.12,.56-.18,.85-.07,.34,.13,.52,.38,.69,.68-.06,.27-.12,.55-.16,.83-.22,1.8,.28,3.38,1.24,4.88,.23,.35,.47,.7,.71,1.04,.18,.27,.34,.58,.55,.83v.06s-.1,.07-.14,.11l-.04-.02c-.25-.27-.57-.47-.84-.72-.23-.21-.42-.47-.67-.65-.17-.19-.34-.38-.49-.58-.16-.21-.29-.44-.43-.66-.83-1.36-1.58-3.2-1.49-4.82,.02-.3,.07-.64,.21-.91Z"/>
  <path class="cls-2" d="M9.68,13.36h.02c.22,.04,.45,.11,.67,.16,.4,.09,.8,.14,1.21,.14,.21,0,.42,0,.62-.02,.16-.02,.36-.08,.52-.07-.15,.19-.3,.39-.46,.57-.3,.48-.56,1.01-.72,1.55-.05,.17-.07,.36-.12,.53h-.03c-.16,.06-.3,.15-.46,.21-.47,.18-.98,.33-1.48,.39-.26,.03-.51,.07-.77,.09-.78,.05-1.58-.02-2.36-.11-.04,0-.07,0-.11-.02,0,0,0-.02,0-.03,.02-.09,.3-.4,.37-.49,.9-1.09,1.9-2.1,3.08-2.89Z"/>
  <path class="cls-4" d="M6.34,16.79c.12-.15,1.28-.55,1.53-.65,.97-.37,1.92-.79,2.86-1.25,.35-.17,.7-.36,1.05-.54,.16-.08,.31-.17,.48-.23-.3,.48-.56,1.01-.72,1.55-.05,.17-.07,.36-.12,.53h-.03c-.16,.06-.3,.15-.46,.21-.47,.18-.98,.33-1.48,.39-.26,.03-.51,.07-.77,.09-.78,.05-1.58-.02-2.36-.11Z"/>
  <path class="cls-2" d="M19.24,8.1c1.34-.91,3.2-1.63,4.82-1.72-.24,.85-.63,1.71-1.12,2.44-.17,.26-.38,.49-.56,.75v.02c-.2,.17-.36,.39-.55,.56-.17,.15-.37,.26-.53,.41-.95-.36-2.37-.29-3.35-.07,.12-.18,.26-.34,.38-.52,.22-.31,.41-.65,.57-.98,.11-.21,.26-.79,.34-.9Z"/>
  <path class="cls-8" d="M6.36,10.59c1.87-.9,4.07-1.47,6.1-.78,.23,.08,.44,.17,.65,.28,.12,.07,.59,.41,.67,.43,0,0,.01,0,.02,0,.25,.18,.45,.45,.67,.65,.27,.25,.59,.45,.84,.72l.04,.02c-.17,.21-.35,.42-.51,.64-.16,.22-.29,.46-.44,.69-.13,.21-.25,.43-.37,.65-.12,.22-.23,.44-.34,.66-.11,.22-.22,.45-.32,.67-.1,.23-.2,.46-.29,.69-.09,.23-.18,.46-.26,.7-.08,.23-.16,.47-.23,.71-.07,.24-.14,.48-.21,.72-.06,.24-.12,.48-.18,.72-.1,.43-.13,.86-.21,1.29-.49-1.2-.79-2.54-.57-3.83,.05-.17,.07-.35,.12-.53,.16-.55,.42-1.07,.72-1.55,.16-.18,.31-.38,.46-.57-.16-.01-.36,.05-.52,.07-.2,.02-.42,.02-.62,.02-.41,0-.81-.05-1.21-.14-.22-.05-.44-.12-.67-.15h-.02c-.37-.16-.75-.3-1.1-.5-.86-.49-1.55-1.32-2.11-2.11-.04-.05-.08-.11-.11-.16Z"/>
  <path class="cls-4" d="M6.47,10.75c.24,.02,.5,.12,.73,.18,.34,.09,.68,.18,1.02,.26,.79,.19,1.58,.37,2.37,.52,.8,.15,1.59,.29,2.4,.4,.34,.05,.77,.14,1.1,.15,0,0,.02,0,.03,0,.03,0,.02,0,.05,0h-.02s.04,.04,.04,.04v-.02s-.01,.01-.01,.01c-.1,.07-.21,.12-.31,.19-.42,.3-.83,.66-1.14,1.07-.16-.01-.36,.05-.52,.07-.2,.02-.42,.02-.62,.02-.41,0-.81-.05-1.21-.14-.22-.05-.44-.12-.67-.15h-.02c-.37-.16-.75-.3-1.1-.5-.86-.49-1.55-1.32-2.11-2.11Z"/>
  <path class="cls-8" d="M18.44,3.33s.06,.06,.09,.11c.61,1.14,.91,2.36,.84,3.65,0,.17-.03,.34-.06,.51-.03,.16-.09,.35-.08,.51-.08,.11-.23,.69-.34,.9-.17,.33-.36,.68-.57,.98-.12,.17-.26,.34-.38,.52,.98-.22,2.4-.29,3.35,.07l.45,.15c.9,.38,1.72,.84,2.47,1.48,.1,.08,.26,.2,.32,.31v.02s-.04,0-.04,0c-.12,.04-.24,.09-.35,.15-1.95,.93-4.46,1.53-6.56,.79-.41-.14-.79-.34-1.16-.56-.09-.07-.24-.24-.35-.25-.01,.04,0,.07,.02,.11,.05,.25,.11,.49,.12,.74,.06,1.18-.47,2.35-1.09,3.32-.1,.16-.21,.32-.32,.48-.11,.16-.23,.31-.34,.46-.12,.15-.24,.3-.36,.45-.12,.15-.25,.29-.38,.43-.13,.14-.27,.28-.4,.41-.14,.13-.28,.26-.42,.39-.14,.13-.29,.25-.44,.37-.15,.12-.3,.24-.46,.35,0-.04,0-.09,0-.14,.08-.43,.12-.86,.21-1.29,.05-.24,.11-.48,.18-.72,.06-.24,.13-.48,.21-.72,.07-.24,.15-.47,.23-.71,.08-.23,.17-.47,.26-.7,.09-.23,.19-.46,.29-.69,.1-.23,.21-.45,.32-.67,.11-.22,.22-.44,.34-.66,.12-.22,.24-.43,.37-.65,.14-.23,.28-.47,.44-.69,.16-.22,.34-.43,.51-.64,.05-.04,.1-.07,.15-.11v-.06c-.21-.25-.38-.56-.56-.83,.01-.13-.13-.44-.16-.6-.01-.09-.03-.17-.04-.26-.01-.09-.02-.17-.03-.26,0-.09-.01-.17-.02-.26,0-.09,0-.17,0-.26,0-.09,0-.17,0-.26,0-.09,0-.17,.01-.26,0-.09,.01-.17,.02-.26,0-.09,.02-.17,.03-.26,.28-1.8,1.52-3.24,2.91-4.34,.25-.2,.52-.37,.77-.55Z"/>
  <path class="cls-4" d="M18.44,3.33s.06,.06,.09,.11c.61,1.14,.91,2.36,.84,3.65,0,.17-.03,.34-.06,.51-.03,.16-.09,.35-.08,.51-.08,.11-.23,.69-.34,.9-.17,.33-.36,.68-.57,.98-.12,.17-.26,.34-.38,.52-.44,.12-.9,.23-1.31,.44-.15,.08-.99,.66-1.02,.66,.2-.39,.36-.81,.56-1.2,.82-1.68,1.77-3.57,2.13-5.41,.07-.36,.13-.74,.14-1.11,0-.18-.03-.36,0-.54,0,0,0,0,0-.01Z"/>
  <path class="cls-1" d="M15.5,11.8c.18-.03,.35-.08,.53-.09,.88-.09,1.76-.03,2.64,.06,1.35,.14,2.68,.37,4.02,.54,.37,.05,.73,.09,1.1,.13,.22,.02,.51,.02,.72,.1-.12,.04-.24,.09-.35,.15-1.95,.93-4.46,1.53-6.56,.79-.41-.14-.79-.34-1.16-.56-.09-.07-.24-.24-.35-.25-.01,.04,0,.07,.02,.11,.05,.25,.11,.49,.12,.74,.06,1.18-.47,2.35-1.09,3.32-.1,.16-.21,.32-.32,.48-.11,.16-.23,.31-.34,.46-.12,.15-.24,.3-.36,.45-.12,.15-.25,.29-.38,.43-.13,.14-.27,.28-.4,.41-.14,.13-.28,.26-.42,.39-.14,.13-.29,.25-.44,.37-.15,.12-.3,.24-.46,.35,0-.04,0-.09,0-.14,.08-.43,.12-.86,.21-1.29,.05-.24,.11-.48,.18-.72,.06-.24,.13-.48,.21-.72,.07-.24,.15-.47,.23-.71,.08-.23,.17-.47,.26-.7,.09-.23,.19-.46,.29-.69,.1-.23,.21-.45,.32-.67,.11-.22,.22-.44,.34-.66,.12-.22,.24-.43,.37-.65,.14-.23,.28-.47,.44-.69,.16-.22,.34-.43,.51-.64,.05-.04,.1-.07,.15-.11Z"/>
  <path class="cls-3" d="M16.11,12.78c.07,.03,.12,.18,.15,.25,.44,1.17,.3,2.42-.21,3.54-.56,1.21-1.35,2.12-2.37,2.97-.49,.41-1.01,.78-1.59,1.06,.33,2.46,2.07,4.91,3.86,6.56,.56,.58,1.14,1.14,1.74,1.68,.42,.38,3.31,2.92,3.67,2.93,.22,.23,.47,.39,.8,.41,.25,.17,.47,.37,.72,.54,1.08,.75,2.37,1.52,3.58,2,.23,.09,.47,.18,.71,.25,.11,.03,.57,.13,.64,.16,.03,.01,.04,.05,.06,.08-1.75,.43-4.05-.44-5.67-1.09-.5-.2-1.01-.4-1.5-.63-3.54-1.61-7.82-4.26-10.12-7.45-.12-.16-.23-.32-.33-.49-.11-.17-.21-.34-.31-.51-.1-.17-.19-.35-.28-.52-.09-.18-.17-.36-.25-.54-1.04-2.45-.94-4.72,.06-7.18,.5-.07,1.01-.21,1.48-.39,.15-.06,.3-.14,.46-.2h.03c-.21,1.28,.08,2.62,.57,3.82,0,.04,0,.09,0,.14,.16-.11,.31-.23,.46-.35,.15-.12,.3-.24,.44-.37,.14-.13,.29-.26,.42-.39,.14-.13,.27-.27,.4-.41,.13-.14,.26-.28,.38-.43,.12-.15,.25-.29,.36-.45,.12-.15,.23-.31,.34-.46,.11-.16,.22-.32,.32-.48,.62-.97,1.15-2.15,1.09-3.32-.01-.25-.06-.5-.12-.74Z"/>
  <path class="cls-7" d="M11.2,24.98s.02,0,.05,.02c.04,.02,.07,.05,.11,.07,.11,.05,.23,.07,.34,.03,.03-.01,.05-.02,.08-.02,.01,.05,0,.06-.02,.11-.02,.02-.05,.04-.08,.06-.06,.03-.13,.04-.19,.02-.14-.04-.24-.16-.3-.29Z"/>
  <path class="cls-8" d="M10.43,18.85s.07,0,.1,0c.09,.03,.2,.08,.24,.17,.05,.1,.04,.24,0,.34-.1,.28-.34,.48-.6,.61-.08,.03-.17,.07-.25,.04-.04-.02-.07-.05-.09-.09-.06-.14,0-.39,.06-.53,.1-.25,.28-.44,.54-.54Z"/>
  <path class="cls-4" d="M11.29,23.54s.07,0,.1,.02c.17,.09,.3,.34,.37,.51,.1,.25,.15,.6,.03,.85-.05,.09-.1,.13-.19,.17-.17-.04-.28-.13-.38-.27-.17-.25-.24-.61-.17-.9,.04-.17,.1-.28,.25-.38Z"/>
  <path class="cls-6" d="M22.38,9.57c1.72,0,3.08,.29,4.59,1.13,.19,.1,.37,.21,.54,.33,.18,.12,.35,.24,.52,.37,.17,.13,.33,.26,.49,.4,.16,.14,.31,.28,.47,.43,2.21,2.2,3.21,4.94,3.6,7.99,.06,.43,.1,.85,.13,1.28,.03,.43,.05,.86,.05,1.29,0,.32,0,.65-.02,.97-.01,.32-.03,.64-.06,.97-.03,.32-.06,.64-.1,.96-.04,.32-.09,.64-.15,.96-.4,2.34-1.53,6.09-3.23,7.78-.31,.31-.67,.53-1.08,.7-.09,.03-.19,.08-.28,.09-.01-.03-.03-.06-.06-.08-.06-.04-.53-.13-.64-.16-.24-.07-.48-.15-.71-.25-1.22-.49-2.5-1.26-3.58-2-.25-.17-.47-.37-.72-.54-.33-.02-.57-.18-.8-.41-.36-.01-3.26-2.55-3.67-2.93-.6-.54-1.18-1.1-1.74-1.68-1.79-1.64-3.53-4.09-3.86-6.56,.58-.28,1.1-.65,1.59-1.06,1.02-.85,1.81-1.76,2.37-2.97,.51-1.12,.65-2.37,.21-3.54-.03-.07-.08-.22-.15-.25-.01-.04-.03-.07-.02-.11,.1,.01,.26,.18,.35,.25,.37,.22,.75,.42,1.16,.56,2.1,.74,4.62,.15,6.56-.79,.11-.06,.23-.11,.35-.15h.03s0-.03,0-.03c-.06-.11-.22-.23-.32-.31-.74-.64-1.57-1.1-2.47-1.48l-.45-.15c.16-.15,.37-.26,.53-.41,.19-.18,.34-.39,.54-.56v-.02Z"/>
  <path class="cls-3" d="M25.48,30.22c0,.1,0,.22-.08,.29-.04,.04-.09,.05-.15,.05-.21-.01-.44-.2-.58-.36-.13-.15-.38-.5-.35-.71,0-.03,.03-.04,.05-.06,.14,.32,.34,.64,.68,.78,.14,.06,.29,.06,.43,0Z"/>
  <path class="cls-3" d="M14.45,21.48c.18,.34,.51,.62,.88,.73,.11,.03,.23,.05,.34,0,.03-.02,.06-.05,.09-.08,.02,.07,.03,.17,0,.24-.02,.05-.05,.09-.1,.11-.15,.06-.35,0-.49-.06-.29-.13-.59-.4-.7-.7-.03-.08-.05-.15-.02-.23Z"/>
  <path class="cls-3" d="M23.1,15.14c.14,.37,.37,.68,.74,.85,.12,.05,.27,.09,.4,.04,.04-.02,.08-.04,.11-.08,.02,.05,.03,.12,.03,.18,0,.05-.03,.09-.07,.12-.07,.06-.19,.05-.28,.04-.3-.05-.57-.24-.75-.48-.14-.19-.23-.43-.19-.67Z"/>
  <path class="cls-3" d="M15.62,25.16c.2,.31,.48,.6,.85,.68,.1,.02,.22,.02,.3-.04,.04-.03,.07-.06,.09-.1,.04,.08,.06,.19,.06,.28,0,.06-.02,.1-.07,.14-.05,.05-.14,.06-.21,.05-.27-.01-.58-.25-.76-.45-.13-.15-.29-.36-.28-.57Z"/>
  <path class="cls-3" d="M30.49,23.32s.04,.02,.06,.02c.02,.04,.03,.08,.02,.12,0,.04-.04,.09-.07,.12-.07,.05-.16,.05-.24,.04-.23-.03-.44-.19-.57-.37-.12-.17-.29-.49-.26-.7,0-.05,.02-.05,.06-.08,.09,.32,.28,.61,.58,.77,.12,.07,.27,.11,.4,.08,0,0,.01,0,.02,0Z"/>
  <path class="cls-3" d="M24.05,26.27c.03,.12,.05,.27,0,.38-.03,.05-.07,.09-.12,.11-.13,.04-.27,0-.38-.06-.31-.16-.62-.5-.72-.84-.02-.07-.04-.13,0-.2,.16,.33,.47,.67,.83,.79,.09,.03,.18,.04,.26,0,.07-.04,.11-.1,.15-.18Z"/>
  <path class="cls-3" d="M27.19,31.63c.13,.37,.36,.77,.72,.95,.1,.05,.24,.08,.35,.05,.04-.01,.08-.04,.11-.06,.01,.09,.02,.16-.03,.24-.03,.05-.07,.08-.13,.09-.16,.03-.38-.06-.51-.15-.25-.18-.5-.56-.54-.87-.01-.1-.02-.15,.04-.23Z"/>
  <path class="cls-3" d="M29.41,27.98s.01,.09,.01,.13c0,.06-.03,.13-.07,.17-.05,.05-.12,.06-.19,.06-.23,0-.47-.17-.63-.33-.22-.22-.33-.53-.32-.84,0-.07,0-.11,.06-.16,.06,.39,.24,.72,.57,.95,.1,.07,.23,.14,.36,.12,.09-.01,.16-.05,.21-.12Z"/>
  <path class="cls-3" d="M17.16,18.5c.13,.35,.36,.63,.7,.79,.14,.07,.32,.12,.47,.07,.06-.02,.1-.06,.15-.11,0,.06,.01,.13,.02,.2-.05,.08-.09,.13-.16,.19-.1,0-.2,0-.3-.02-.31-.06-.58-.27-.75-.53-.11-.17-.17-.39-.13-.59Z"/>
  <path class="cls-3" d="M25.24,18.71c.11,.36,.32,.64,.66,.81,.12,.06,.28,.12,.42,.07,.04-.01,.09-.04,.13-.07,0,.07,.02,.2-.02,.26-.03,.06-.08,.1-.14,.12-.14,.04-.33-.05-.46-.12-.29-.16-.52-.45-.6-.78-.02-.09-.04-.22,0-.3Z"/>
  <path class="cls-3" d="M19.22,16.1c.14,.36,.38,.67,.75,.82,.14,.06,.33,.1,.48,.04,.04-.02,.08-.05,.11-.08,0,.08,0,.15,0,.23-.04,.07-.08,.12-.16,.15-.17,.05-.37-.02-.52-.1-.3-.16-.56-.46-.65-.79-.02-.08-.05-.19,0-.27Z"/>
  <path class="cls-3" d="M28.41,17.7c.1,.38,.27,.69,.62,.9,.1,.06,.23,.12,.34,.09,.07-.02,.1-.07,.13-.13,.03,.11,.04,.23-.03,.33-.04,.05-.09,.09-.16,.1-.12,.02-.25-.02-.36-.08-.24-.18-.41-.44-.51-.72-.05-.13-.1-.36-.04-.49Z"/>
  <path class="cls-3" d="M21.48,20.19c.14,.37,.38,.66,.75,.82,.12,.06,.28,.1,.41,.04,.05-.02,.08-.05,.12-.08,.03,.08,.03,.23-.01,.3-.03,.05-.08,.08-.13,.09-.17,.04-.38-.05-.53-.13-.32-.19-.53-.51-.62-.86-.02-.07-.02-.12,.01-.18Z"/>
  <path class="cls-3" d="M20.17,23.83c.03,.08,.06,.25,.02,.33-.03,.05-.06,.08-.12,.1-.17,.05-.37-.03-.52-.11-.32-.18-.56-.47-.66-.83-.02-.08-.04-.16,0-.23,.13,.37,.37,.64,.72,.81,.14,.06,.28,.11,.42,.05,.06-.02,.09-.07,.13-.12Z"/>
  <path class="cls-3" d="M26.95,13.88c.14,.31,.39,.61,.71,.74,.13,.05,.26,.07,.41,.04h.05s.05-.02,.09-.02c.03,.02,.02,.03,.04,.06,0,.05-.02,.09-.05,.13-.07,.1-.13,.15-.26,.16-.19,.03-.37-.07-.52-.17-.22-.16-.47-.55-.5-.82,0-.05,0-.07,.03-.12Z"/>
  <path class="cls-3" d="M22.37,9.59c.05,0,.12,0,.16,.02-.05,.27-.61,.89-.78,1.12l-.45-.15c.16-.15,.37-.26,.53-.41,.19-.18,.34-.39,.54-.56Z"/>
  <path class="cls-3" d="M19.62,27.4c.15,.38,.42,.64,.79,.81,.11,.05,.32,.12,.43,.07,.03-.01,.05-.04,.08-.06,.02,.05,.04,.11,.04,.17,0,.06-.02,.1-.06,.14-.05,.05-.13,.06-.19,.06-.32-.02-.68-.29-.89-.51-.07-.11-.14-.21-.18-.34-.04-.1-.06-.24,0-.34Z"/>
  <path class="cls-3" d="M25.46,23.13c.12,.38,.34,.7,.7,.89,.11,.05,.23,.11,.35,.07,.1-.03,.16-.09,.2-.18,.04,.1,.03,.22,.03,.33-.03,.07-.07,.12-.14,.16-.13,.06-.28,.04-.41-.02-.3-.12-.55-.41-.67-.71-.07-.16-.13-.37-.06-.53Z"/>
  <path class="cls-8" d="M24.37,29.43c-.04-.13-.09-.32,0-.45,.03-.05,.07-.07,.13-.08,.13-.02,.26,.04,.37,.12,.28,.21,.59,.6,.65,.96,.01,.08,.01,.16-.03,.24-.14,.05-.29,.05-.43,0-.34-.14-.54-.46-.68-.78Z"/>
  <path class="cls-8" d="M21.35,31.77c-.13-.2-.34-.54-.29-.79,0-.04,.03-.08,.07-.11,.09-.06,.24-.02,.33,.01,.34,.12,.64,.47,.79,.78,.05,.12,.11,.26,.05,.39-.03,.07-.09,.1-.15,.13-.33-.02-.57-.18-.8-.41Z"/>
  <path class="cls-1" d="M29.53,21.88c.35,.07,.65,.22,.85,.52,.15,.22,.23,.5,.18,.76-.01,.06-.03,.09-.06,.14,0,0,0,0,0,.01,0,0-.01,0-.02,0-.13,.03-.28-.01-.4-.08-.3-.16-.49-.45-.58-.77-.03-.22-.04-.39,.04-.6Z"/>
  <path class="cls-8" d="M28.41,17.7c-.02-.12-.06-.36,.02-.47,.03-.05,.07-.04,.12-.05,.38,.12,.69,.39,.87,.75,.11,.21,.14,.4,.09,.63-.03,.06-.06,.11-.13,.13-.12,.03-.24-.03-.34-.09-.35-.21-.52-.52-.62-.9Z"/>
  <path class="cls-1" d="M23.1,15.14c-.02-.11-.06-.26,.01-.36,.04-.05,.1-.07,.16-.07,.26,0,.55,.16,.72,.34,.26,.27,.35,.53,.36,.9-.03,.03-.07,.06-.11,.08-.13,.05-.28,.01-.4-.04-.37-.17-.6-.47-.74-.85Z"/>
  <path class="cls-1" d="M19.62,27.4c-.03-.11-.05-.22,.02-.32,.04-.06,.1-.09,.17-.1,.22-.03,.47,.14,.63,.27,.23,.18,.49,.47,.52,.77,0,.05,0,.1-.01,.15,0,.01-.03,.04-.04,.05-.02,.02-.05,.04-.08,.06-.11,.05-.32-.02-.43-.07-.37-.16-.64-.43-.79-.81Z"/>
  <path class="cls-8" d="M26.95,13.88c-.03-.1-.15-.4-.08-.49,.03-.04,.07-.06,.12-.06,.28-.01,.65,.21,.84,.39,.17,.17,.35,.44,.35,.68,0,.09-.01,.16-.08,.23-.02,.01-.02,.02-.03,.03-.14,.03-.27,.01-.41-.04-.32-.13-.58-.43-.71-.74Z"/>
  <path class="cls-1" d="M25.24,18.71c-.01-.12-.06-.33,0-.44,.03-.04,.08-.07,.13-.07,.19-.02,.44,.14,.58,.26,.26,.22,.47,.57,.49,.91,0,.05,0,.1,0,.15-.04,.03-.08,.06-.13,.07-.14,.04-.3-.01-.42-.07-.34-.18-.55-.45-.66-.81Z"/>
  <path class="cls-1" d="M22.81,25.67c-.04-.12-.13-.36-.06-.49,.02-.04,.05-.06,.1-.08,.17-.04,.45,.09,.59,.19,.28,.19,.53,.49,.59,.83,0,.05,.01,.11,.02,.16-.03,.08-.07,.13-.15,.18-.08,.05-.17,.04-.26,0-.36-.12-.67-.46-.83-.79Z"/>
  <path class="cls-1" d="M15.62,25.16c-.06-.15-.18-.41-.11-.57,.02-.04,.05-.06,.09-.07,.2-.05,.52,.11,.69,.22,.28,.2,.51,.51,.57,.85,0,.04,0,.07,.01,.11-.03,.04-.05,.08-.09,.1-.09,.06-.2,.06-.3,.04-.37-.08-.66-.38-.85-.68Z"/>
  <path class="cls-1" d="M14.45,21.48c-.05-.13-.14-.34-.08-.47,.02-.05,.06-.08,.11-.09,.19-.05,.49,.1,.65,.2,.28,.18,.53,.45,.6,.78,.01,.05,.02,.11,.02,.16v.07s-.05,.06-.08,.08c-.1,.06-.23,.04-.34,0-.37-.11-.7-.4-.88-.73Z"/>
  <path class="cls-1" d="M21.48,20.19c-.02-.12-.08-.32-.02-.43,.03-.04,.06-.07,.11-.08,.18-.04,.48,.14,.62,.24,.31,.22,.49,.53,.55,.91,0,.05,.01,.1,.01,.15-.04,.03-.07,.06-.12,.08-.13,.05-.29,.01-.41-.04-.36-.16-.61-.45-.75-.82Z"/>
  <path class="cls-1" d="M19.22,16.1c-.02-.08-.07-.2-.03-.27,.03-.06,.1-.09,.17-.11,.25-.04,.57,.09,.76,.24,.23,.18,.41,.46,.44,.75,0,.06,0,.12,0,.17-.03,.03-.07,.06-.11,.08-.15,.06-.34,.02-.48-.04-.37-.16-.6-.46-.75-.82Z"/>
  <path class="cls-8" d="M27.19,31.63c-.04-.14-.07-.26,0-.39,.03-.05,.07-.09,.13-.11,.11-.03,.23,.03,.32,.08,.34,.21,.68,.65,.77,1.04,.03,.12,.03,.21-.03,.31-.03,.02-.07,.05-.11,.06-.11,.04-.25,0-.35-.05-.36-.18-.59-.58-.72-.95Z"/>
  <path class="cls-8" d="M28.34,26.5c.43,.14,.75,.36,.95,.77,.11,.22,.18,.46,.13,.71-.06,.07-.12,.11-.21,.12-.13,.02-.26-.05-.36-.12-.32-.23-.5-.57-.57-.95-.01-.18,.01-.35,.06-.52Z"/>
  <path class="cls-1" d="M18.89,23.09c-.03-.13-.08-.31,0-.44,.03-.05,.07-.07,.12-.09,.19-.04,.44,.12,.59,.23,.27,.2,.5,.51,.56,.85,0,.06,0,.12,0,.18-.04,.05-.07,.1-.13,.12-.15,.06-.29,.01-.42-.05-.36-.17-.59-.44-.72-.81Z"/>
  <path class="cls-1" d="M25.46,23.13c-.02-.13-.07-.3,.01-.42,.03-.04,.07-.06,.11-.07,.17-.03,.4,.12,.54,.23,.27,.21,.54,.52,.58,.87,0,.06,0,.12,0,.18-.05,.09-.1,.15-.2,.18-.12,.04-.25-.01-.35-.07-.36-.19-.57-.51-.7-.89Z"/>
  <path class="cls-1" d="M17.16,18.5c-.02-.1-.08-.3-.01-.39,.04-.05,.1-.08,.16-.08,.23-.03,.56,.13,.73,.28,.22,.18,.43,.5,.45,.78,0,.06,0,.11,0,.17-.04,.05-.08,.09-.15,.11-.16,.05-.33,0-.47-.07-.34-.16-.58-.44-.7-.79Z"/>
  <path class="cls-3" d="M24.15,12.7c.16,.12,.31,.22,.49,.3-.94,.8-2.1,1.25-3.31,1.43-1.51,.23-3.07-.05-4.31-.97-.13-.09-.56-.4-.58-.54,.37,.22,.75,.42,1.16,.56,2.1,.74,4.62,.15,6.56-.79Z"/>
</svg>