<?xml version="1.0" encoding="UTF-8"?>
<svg id="_Слой_1" data-name="Слой 1" xmlns="http://www.w3.org/2000/svg" viewBox="0 0 40 40">
  <defs>
    <style>
      .cls-1 {
        fill: #6a5acd;
      }

      .cls-2 {
        fill: #3e1c5f;
      }

      .cls-3 {
        fill: #683c87;
      }

      .cls-4 {
        fill: #cc94dd;
      }

      .cls-5 {
        fill: #4f296e;
      }

      .cls-6 {
        fill: #86d24c;
      }

      .cls-7 {
        fill: #8f4599;
      }

      .cls-8 {
        fill: #7b740b;
      }

      .cls-9 {
        fill: #4da516;
      }

      .cls-10 {
        fill: #4e4804;
      }

      .cls-11 {
        fill: #ab68b8;
      }

      .cls-12 {
        fill: #ecc0f7;
      }

      .cls-13 {
        fill: #358314;
      }
    </style>
  </defs>
  <g>
    <rect class="cls-1" x=".5" y=".5" width="39" height="39" rx="4.96" ry="4.96"/>
    <path d="M34.54,1c2.46,0,4.46,2,4.46,4.46v29.07c0,2.46-2,4.46-4.46,4.46H5.46c-2.46,0-4.46-2-4.46-4.46V5.46C1,3,3,1,5.46,1h29.07m0-1H5.46C2.45,0,0,2.45,0,5.46v29.07c0,3.02,2.45,5.46,5.46,5.46h29.07c3.02,0,5.46-2.45,5.46-5.46V5.46c0-3.02-2.45-5.46-5.46-5.46h0Z"/>
  </g>
  <g>
    <path class="cls-10" d="M25.63,4c.23,.2,.46,.56,.48,.87,0,.04,0,.07-.02,.11-.2,.12-.42,.21-.63,.31-.26,.12-.52,.25-.77,.39-.2,.11-.41,.22-.6,.35-1.21,.84-1.81,2.03-2.31,3.36-.21-.06-.43-.19-.61-.31,.15-.44,.34-.85,.54-1.27,.07-.06,.14-.18,.19-.26,.03-.05,.03-.07,.02-.12,.07-.18,.22-.33,.33-.49,.21-.3,.43-.59,.68-.86,.62-.69,1.78-1.68,2.64-2.04,.02,0,.04-.02,.06-.03Z"/>
    <path class="cls-9" d="M7.39,12.56c.17-.61,.5-1.21,.82-1.75,.28-.47,.61-.95,.97-1.36,.19-.22,.4-.42,.61-.63,1.27-1.25,2.82-2.25,4.56-2.68,2.63-.66,5.23-.02,7.52,1.36l.05-.07c.01,.06,.01,.07-.02,.12-.05,.08-.12,.2-.19,.26-.2,.42-.39,.83-.54,1.27-.07,.28-.17,.55-.25,.83-.15,.52-.27,1.08-.34,1.62-.56-.17-1.11-.29-1.7-.29-.18,0-.36,0-.54,.02-.12,.01-.63,.11-.71,.07-.39,.16-.81,.23-1.2,.38-.4,.16-.76,.39-1.15,.55-2.25,.63-4.65,.86-6.97,.48-.17-.03-.77-.1-.9-.17,0,0-.01,0-.02-.01Z"/>
    <path class="cls-6" d="M16.3,6.52c1.1-.08,2.26,.06,3.32,.35,.56,.15,1.1,.35,1.65,.53-.5-.01-1.01-.04-1.51-.01-.16,0-.32,.02-.48,.03-.16,.01-.32,.03-.48,.04-.16,.02-.32,.03-.47,.05-.16,.02-.32,.04-.47,.07-.16,.02-.31,.05-.47,.08-.16,.03-.31,.06-.47,.09-.16,.03-.31,.06-.47,.1-.16,.03-.31,.07-.46,.11-.15,.04-.31,.08-.46,.12-.15,.04-.31,.09-.46,.13-.15,.05-.3,.09-.46,.14-.15,.05-.3,.1-.45,.15-.15,.05-.3,.11-.45,.16-.15,.06-.3,.11-.44,.17-.15,.06-.29,.12-.44,.18-.15,.06-.29,.13-.44,.2-.47,.21-.93,.43-1.38,.68-.32,.16-.62,.37-.92,.56-.71,.45-1.39,.91-2.01,1.47,.11-.19,.23-.38,.36-.57,.12-.19,.25-.37,.39-.55,.13-.18,.27-.36,.42-.53,.14-.17,.29-.34,.44-.5,1.74-1.89,4.02-3.17,6.62-3.27Z"/>
    <path class="cls-13" d="M21.92,7.42c.01,.06,.01,.07-.02,.12-.05,.08-.12,.2-.19,.26-.2,.42-.39,.83-.54,1.27-.07,.28-.17,.55-.25,.83-.15,.52-.27,1.08-.34,1.62-.56-.17-1.11-.29-1.7-.29-.18,0-.36,0-.54,.02-.12,.01-.63,.11-.71,.07-.39,.16-.81,.23-1.2,.38-.4,.16-.76,.39-1.15,.55-2.25,.63-4.65,.86-6.97,.48-.17-.03-.77-.1-.9-.17,0,0-.01,0-.02-.01,.16-.07,.33-.15,.5-.2,.39-.09,.89-.11,1.3-.15,.68-.06,1.35-.15,2.02-.26,2.71-.46,5.65-1.31,8.06-2.66,.52-.29,1.01-.62,1.49-.96,.25-.17,.97-.63,1.11-.83l.05-.07Z"/>
    <path class="cls-5" d="M20.58,11.52c.07-.54,.19-1.1,.34-1.62,.08-.28,.18-.55,.25-.83,.17,.13,.4,.25,.61,.31-.24,.7-.47,1.45-.54,2.2,.13-.07,.27-.12,.41-.17,1.6-.52,3.29-.29,4.78,.47,2.13,1.08,3.75,2.96,4.77,5.1,.31,.66,.57,1.36,.79,2.05,.16,.51,.32,1.06,.38,1.6,.15,.59,.18,1.24,.21,1.84,.14,2.8-.48,5.6-1.94,8.01-.04,.06-.07,.12-.11,.18-.04,.06-.08,.12-.12,.18s-.08,.12-.12,.18c-.04,.06-.08,.12-.12,.18-.04,.06-.08,.12-.13,.18-.04,.06-.09,.12-.13,.17-.04,.06-.09,.11-.13,.17s-.09,.11-.14,.17c-.05,.06-.09,.11-.14,.17-.05,.05-.09,.11-.14,.16-.05,.05-.1,.11-.14,.16-.05,.05-.1,.11-.15,.16-.05,.05-.1,.1-.15,.15-.05,.05-.1,.1-.15,.15-.05,.05-.1,.1-.16,.15s-.11,.1-.16,.15c-.05,.05-.11,.1-.16,.14-.05,.05-.11,.09-.16,.14-.06,.05-.11,.09-.17,.14-.06,.04-.11,.09-.17,.13-.06,.04-.11,.09-.17,.13s-.12,.08-.17,.13c-.06,.04-.12,.08-.18,.12-.06,.04-.12,.08-.18,.12-.06,.04-.12,.08-.18,.12-.06,.04-.12,.08-.18,.11-.06,.04-.12,.07-.19,.11-.06,.04-.12,.07-.19,.11-.06,.03-.13,.07-.19,.1-.06,.03-.13,.07-.19,.1-.06,.03-.13,.06-.19,.1-.06,.03-.13,.06-.2,.09-.58,.27-1.17,.5-1.79,.65-.09,.02-.18,.04-.27,.06-.09,.02-.18,.04-.27,.06-.09,.02-.18,.03-.27,.05-.09,.02-.18,.03-.27,.04s-.18,.03-.27,.04c-.09,.01-.18,.02-.27,.03-.09,0-.18,.02-.27,.02-.09,0-.18,.01-.27,.02s-.18,0-.27,0c-.09,0-.18,0-.27,0-.09,0-.18,0-.27,0-.09,0-.18,0-.27-.01-.09,0-.18-.01-.27-.02-.09,0-.18-.01-.27-.02-.09,0-.18-.02-.27-.03-.09-.01-.18-.02-.27-.04-.09-.01-.18-.03-.27-.04-.09-.02-.18-.03-.27-.05s-.18-.04-.27-.06c-.09-.02-.18-.04-.27-.06-.09-.02-.18-.05-.26-.07-.09-.02-.18-.05-.26-.08-.09-.03-.17-.05-.26-.08-.09-.03-.17-.06-.26-.09-.09-.03-.17-.06-.26-.1-.08-.03-.17-.07-.25-.1-.08-.04-.17-.07-.25-.11-.08-.04-.17-.08-.25-.11-.08-.04-.16-.08-.25-.12-.08-.04-.16-.08-.24-.13-.08-.04-.16-.09-.24-.13-.08-.05-.16-.09-.24-.14-.2-.13-.4-.26-.59-.39-.19-.14-.38-.28-.56-.43-.18-.15-.36-.3-.54-.46-.17-.16-.34-.33-.51-.5-.16-.17-.34-.34-.48-.53,.17,.05,.33,.16,.49,.23,.44,.2,.91,.37,1.39,.45l.1,.05c.27-.01,.54,.03,.81,.02,.06,0,.13,0,.19-.01,.06,0,.13-.01,.19-.02,.06,0,.13-.01,.19-.02,.06,0,.13-.02,.19-.03,.06-.01,.13-.02,.19-.03,.06-.01,.13-.03,.19-.04,.06-.01,.13-.03,.19-.05s.13-.03,.19-.05c.06-.02,.12-.04,.19-.06,.06-.02,.12-.04,.18-.06,.06-.02,.12-.04,.18-.07,.06-.02,.12-.05,.18-.07,.06-.03,.12-.05,.18-.08,.06-.03,.12-.05,.18-.08,.06-.03,.12-.06,.17-.09,.06-.03,.11-.06,.17-.09,2.59-1.43,4.22-4.34,5.01-7.1,.04-.13,.07-.25,.1-.38,.03-.13,.06-.25,.09-.38,.03-.13,.06-.26,.08-.38,.03-.13,.05-.26,.07-.39,.02-.13,.04-.26,.06-.39,.02-.13,.04-.26,.05-.39,.02-.13,.03-.26,.04-.39,.01-.13,.02-.26,.03-.39,0-.13,.02-.26,.02-.39,0-.13,0-.26,.01-.39,0-.13,0-.26,0-.39s0-.26,0-.39c0-.13-.01-.26-.02-.39,0-.13-.02-.26-.03-.39-.01-.13-.02-.26-.04-.39-.01-.13-.03-.26-.05-.39-.06-.41-.14-.81-.23-1.21-.15-.7-.33-1.46-.68-2.09-.06,.31-.13,.61-.32,.86-.29,.39-.72,.62-1.21,.68-.55,.07-1.06-.04-1.5-.38-.46-.36-.69-.77-.76-1.34,.47-.19,.94-.34,1.44-.43-.24-.7-.17-1.49-.13-2.21,.04-.33,.1-.68,.11-1Z"/>
    <path class="cls-2" d="M21.24,11.59c.13-.07,.27-.12,.41-.17,.34,.18,.82,.56,1.09,.84-.36,.1-.79,.21-1.1,.42-.09,.06-.16,.14-.24,.21l-.24-.22c.01-.36,.02-.73,.08-1.09Z"/>
    <path class="cls-11" d="M21.16,12.67l.24,.22c.55,.54,.99,1.14,1.43,1.78-.21,0-.42-.04-.64-.05-.28-.02-.56-.02-.84-.02-.19-.66-.23-1.26-.19-1.94Z"/>
    <path class="cls-8" d="M20.58,11.52c.07-.54,.19-1.1,.34-1.62,.08-.28,.18-.55,.25-.83,.17,.13,.4,.25,.61,.31-.24,.7-.47,1.45-.54,2.2-.07,.35-.07,.73-.08,1.09-.04,.68,0,1.28,.19,1.94l.06,.18c.04,.16,.07,.3-.02,.45-.04,.08-.11,.13-.2,.15-.1,.02-.21-.01-.29-.07-.16-.12-.22-.31-.28-.49l-.02-.09c-.24-.7-.17-1.49-.13-2.21,.04-.33,.1-.68,.11-1Z"/>
    <path class="cls-2" d="M21.03,34.91c2.36,.08,4.36-.44,6.24-1.92,.62-.49,1.18-1.08,1.68-1.68,.05-.06,.09-.11,.14-.17,.05-.06,.09-.12,.14-.17,.05-.06,.09-.12,.13-.18,.04-.06,.09-.12,.13-.18,.04-.06,.09-.12,.13-.18,.04-.06,.08-.12,.12-.18,.04-.06,.08-.12,.12-.19,.04-.06,.08-.12,.12-.19,.04-.06,.08-.13,.11-.19,.04-.06,.07-.13,.11-.19,.04-.06,.07-.13,.11-.19,.03-.07,.07-.13,.1-.2,.03-.07,.07-.13,.1-.2,.03-.07,.06-.13,.1-.2,.03-.07,.06-.13,.09-.2,.03-.07,.06-.14,.09-.2,.03-.07,.06-.14,.08-.2,.03-.07,.05-.14,.08-.21,.03-.07,.05-.14,.08-.21,.02-.07,.05-.14,.07-.21,.02-.07,.05-.14,.07-.21,.02-.07,.04-.14,.07-.21,.02-.07,.04-.14,.06-.21,.02-.07,.04-.14,.06-.21,.02-.07,.04-.14,.05-.21,.02-.07,.03-.14,.05-.22,.02-.07,.03-.14,.05-.22s.03-.14,.04-.22c.01-.07,.03-.15,.04-.22,.01-.07,.02-.15,.03-.22,.01-.07,.02-.15,.03-.22,0-.07,.02-.15,.03-.22,.02-.16,.03-.31,.04-.47,.01-.16,.02-.32,.03-.47,0-.16,.01-.32,.02-.47,0-.16,0-.32,0-.47,0-.16,0-.32-.01-.47,0-.16-.02-.32-.03-.47-.01-.16-.03-.32-.04-.47-.02-.16-.03-.31-.06-.47-.02-.16-.04-.31-.07-.47s-.05-.31-.08-.47c-.03-.16-.06-.31-.1-.46-.03-.15-.07-.31-.11-.46-.04-.15-.08-.31-.13-.46-.04-.15-.09-.3-.14-.45s-.1-.3-.15-.45c-.05-.15-.11-.3-.17-.44-.14-.36-.32-.72-.49-1.07-.2-.44-.43-.86-.68-1.28-.05-.09-.09-.17-.15-.25-.02-.02-.01,0-.01-.04,.08,.02,.22,.29,.27,.36,.39,.58,.7,1.18,1.01,1.81,.25,.52,1.45,3.44,1.74,3.66,0,0,.02,.01,.02,.02,.15,.59,.18,1.24,.21,1.84,.14,2.8-.48,5.6-1.94,8.01-.04,.06-.07,.12-.11,.18-.04,.06-.08,.12-.12,.18s-.08,.12-.12,.18c-.04,.06-.08,.12-.12,.18-.04,.06-.08,.12-.13,.18-.04,.06-.09,.12-.13,.17-.04,.06-.09,.11-.13,.17s-.09,.11-.14,.17c-.05,.06-.09,.11-.14,.17-.05,.05-.09,.11-.14,.16-.05,.05-.1,.11-.14,.16-.05,.05-.1,.11-.15,.16-.05,.05-.1,.1-.15,.15-.05,.05-.1,.1-.15,.15-.05,.05-.1,.1-.16,.15s-.11,.1-.16,.15c-.05,.05-.11,.1-.16,.14-.05,.05-.11,.09-.16,.14-.06,.05-.11,.09-.17,.14-.06,.04-.11,.09-.17,.13-.06,.04-.11,.09-.17,.13s-.12,.08-.17,.13c-.06,.04-.12,.08-.18,.12-.06,.04-.12,.08-.18,.12-.06,.04-.12,.08-.18,.12-.06,.04-.12,.08-.18,.11-.06,.04-.12,.07-.19,.11-.06,.04-.12,.07-.19,.11-.06,.03-.13,.07-.19,.1-.06,.03-.13,.07-.19,.1-.06,.03-.13,.06-.19,.1-.06,.03-.13,.06-.2,.09-.58,.27-1.17,.5-1.79,.65-.09,.02-.18,.04-.27,.06-.09,.02-.18,.04-.27,.06-.09,.02-.18,.03-.27,.05-.09,.02-.18,.03-.27,.04s-.18,.03-.27,.04c-.09,.01-.18,.02-.27,.03-.09,0-.18,.02-.27,.02-.09,0-.18,.01-.27,.02s-.18,0-.27,0c-.09,0-.18,0-.27,0-.09,0-.18,0-.27,0-.09,0-.18,0-.27-.01-.09,0-.18-.01-.27-.02-.09,0-.18-.01-.27-.02-.09,0-.18-.02-.27-.03-.09-.01-.18-.02-.27-.04-.09-.01-.18-.03-.27-.04-.09-.02-.18-.03-.27-.05s-.18-.04-.27-.06c-.09-.02-.18-.04-.27-.06-.09-.02-.18-.05-.26-.07-.09-.02-.18-.05-.26-.08-.09-.03-.17-.05-.26-.08-.09-.03-.17-.06-.26-.09-.09-.03-.17-.06-.26-.1-.08-.03-.17-.07-.25-.1-.08-.04-.17-.07-.25-.11-.08-.04-.17-.08-.25-.11-.08-.04-.16-.08-.25-.12-.08-.04-.16-.08-.24-.13-.08-.04-.16-.09-.24-.13-.08-.05-.16-.09-.24-.14-.2-.13-.4-.26-.59-.39-.19-.14-.38-.28-.56-.43-.18-.15-.36-.3-.54-.46-.17-.16-.34-.33-.51-.5-.16-.17-.34-.34-.48-.53,.17,.05,.33,.16,.49,.23,.44,.2,.91,.37,1.39,.45l.1,.05c1.64,1.37,3.48,1.84,5.56,2.02,.23,.03,.49,0,.71,.04-.11,.05-.58,.21-.64,.27h0s.06-.04,.06-.04v.03c.22-.06,.45-.17,.67-.22Z"/>
    <path class="cls-7" d="M21.35,14.61c.28,0,.56,0,.84,.02,.21,.01,.42,.05,.64,.05,.29,.45,.5,.98,.7,1.48,.85,2.13,1.15,4.32,1.22,6.59,.05,1.66-.05,3.32-.4,4.94-.45,2.09-1.43,4.37-2.85,5.99-.39,.44-.77,.82-1.27,1.14-2.09-.18-3.93-.66-5.56-2.02,.27-.01,.54,.03,.81,.02,.06,0,.13,0,.19-.01,.06,0,.13-.01,.19-.02,.06,0,.13-.01,.19-.02,.06,0,.13-.02,.19-.03,.06-.01,.13-.02,.19-.03,.06-.01,.13-.03,.19-.04,.06-.01,.13-.03,.19-.05s.13-.03,.19-.05c.06-.02,.12-.04,.19-.06,.06-.02,.12-.04,.18-.06,.06-.02,.12-.04,.18-.07,.06-.02,.12-.05,.18-.07,.06-.03,.12-.05,.18-.08,.06-.03,.12-.05,.18-.08,.06-.03,.12-.06,.17-.09,.06-.03,.11-.06,.17-.09,2.59-1.43,4.22-4.34,5.01-7.1,.04-.13,.07-.25,.1-.38,.03-.13,.06-.25,.09-.38,.03-.13,.06-.26,.08-.38,.03-.13,.05-.26,.07-.39,.02-.13,.04-.26,.06-.39,.02-.13,.04-.26,.05-.39,.02-.13,.03-.26,.04-.39,.01-.13,.02-.26,.03-.39,0-.13,.02-.26,.02-.39,0-.13,0-.26,.01-.39,0-.13,0-.26,0-.39s0-.26,0-.39c0-.13-.01-.26-.02-.39,0-.13-.02-.26-.03-.39-.01-.13-.02-.26-.04-.39-.01-.13-.03-.26-.05-.39-.06-.41-.14-.81-.23-1.21-.15-.7-.33-1.46-.68-2.09-.06,.31-.13,.61-.32,.86-.29,.39-.72,.62-1.21,.68-.55,.07-1.06-.04-1.5-.38-.46-.36-.69-.77-.76-1.34,.47-.19,.94-.34,1.44-.43l.02,.09c.06,.18,.12,.37,.28,.49,.08,.06,.19,.09,.29,.07,.09-.02,.16-.07,.2-.15,.09-.15,.06-.29,.02-.45l-.06-.18Z"/>
    <path class="cls-3" d="M21.42,14.79c.14,.03,.27,.11,.37,.2,.03,.19,.01,.35-.11,.51-.13,.16-.33,.25-.53,.27-.21,.02-.46-.03-.63-.17-.09-.07-.16-.18-.17-.3-.01-.2,.15-.35,.28-.48,.06,.18,.12,.37,.28,.49,.08,.06,.19,.09,.29,.07,.09-.02,.16-.07,.2-.15,.09-.15,.06-.29,.02-.45Z"/>
    <path class="cls-3" d="M22.74,12.25c.3-.06,.61-.12,.92-.13,1.18-.05,2.39,.37,3.35,1.03,.45,.31,.84,.68,1.21,1.09,.27,.3,.53,.61,.75,.94,.69,1.05,1.15,2.45,1.38,3.69,.45,2.42,.03,5.28-.89,7.54-.43,1.07-1.02,2.11-1.67,3.06-1.09,1.58-2.57,3.2-4.24,4.18-.68,.4-1.42,.71-2.12,1.06-.04,0-.07,.01-.11,.02v-.02s.08-.06,.08-.06c.05-.03,.11-.06,.16-.08,.05-.03,.11-.06,.16-.09,.05-.03,.1-.06,.16-.09,.05-.03,.1-.06,.15-.09,.05-.03,.1-.06,.15-.1,.05-.03,.1-.07,.15-.1,.05-.03,.1-.07,.15-.1,.05-.03,.1-.07,.15-.11,.05-.04,.1-.07,.14-.11,.05-.04,.1-.07,.14-.11,.05-.04,.09-.08,.14-.11,.05-.04,.09-.08,.14-.12,.05-.04,.09-.08,.14-.12,.04-.04,.09-.08,.13-.12,.04-.04,.09-.08,.13-.12,.04-.04,.09-.08,.13-.13,.04-.04,.08-.09,.13-.13,.04-.04,.08-.09,.12-.13,.04-.04,.08-.09,.12-.13,.04-.05,.08-.09,.12-.14,.04-.05,.08-.09,.11-.14,.04-.05,.08-.09,.11-.14,.04-.05,.07-.1,.11-.14,.04-.05,.07-.1,.11-.15,.03-.05,.07-.1,.1-.15s.07-.1,.1-.15c.03-.05,.07-.1,.1-.15,.03-.05,.06-.1,.09-.15,.03-.05,.06-.1,.09-.16,.03-.05,.06-.11,.09-.16,.03-.05,.06-.11,.08-.16,.03-.05,.05-.11,.08-.16,.27-.55,.5-1.13,.69-1.71,.14-.41,.26-.83,.36-1.26s.19-.85,.26-1.28c.61-3.57,.23-7.36-1.4-10.62-.69-1.39-1.46-2.4-2.55-3.49Z"/>
    <path class="cls-11" d="M17.63,11.32c.08,.04,.59-.06,.71-.07,.18-.02,.36-.02,.54-.02,.59,0,1.14,.12,1.7,.29-.01,.33-.08,.68-.11,1-.04,.72-.11,1.51,.13,2.21-.5,.09-.97,.24-1.44,.43,.07,.57,.3,.98,.76,1.34,.44,.34,.95,.46,1.5,.38,.48-.06,.91-.3,1.21-.68,.19-.25,.26-.55,.32-.86,.35,.63,.53,1.39,.68,2.09,.09,.4,.17,.8,.23,1.21,.02,.13,.03,.26,.05,.39,.01,.13,.03,.26,.04,.39,.01,.13,.02,.26,.03,.39,0,.13,.01,.26,.02,.39,0,.13,0,.26,0,.39s0,.26,0,.39c0,.13,0,.26-.01,.39,0,.13-.01,.26-.02,.39,0,.13-.02,.26-.03,.39-.01,.13-.03,.26-.04,.39-.02,.13-.03,.26-.05,.39-.02,.13-.04,.26-.06,.39-.02,.13-.05,.26-.07,.39-.03,.13-.05,.26-.08,.38-.03,.13-.06,.26-.09,.38-.03,.13-.07,.25-.1,.38-.79,2.76-2.42,5.67-5.01,7.1-.06,.03-.11,.06-.17,.09-.06,.03-.12,.06-.17,.09-.06,.03-.12,.06-.18,.08-.06,.03-.12,.05-.18,.08-.06,.03-.12,.05-.18,.07-.06,.02-.12,.05-.18,.07-.06,.02-.12,.04-.18,.06-.06,.02-.12,.04-.19,.06-.06,.02-.12,.03-.19,.05s-.13,.03-.19,.05c-.06,.01-.13,.03-.19,.04-.06,.01-.13,.02-.19,.03-.06,.01-.13,.02-.19,.03-.06,0-.13,.02-.19,.02-.06,0-.13,.01-.19,.02-.06,0-.13,0-.19,.01-.27,.01-.54-.04-.81-.02l-.1-.05c-.48-.07-.95-.24-1.39-.45-.16-.08-.32-.18-.49-.23-.01-.01-.02-.02-.04-.04-.34-.36-.64-.81-.92-1.23-1.54-2.35-2.2-5.13-2.17-7.92,0-.09,0-.17,0-.26,0-.09,0-.17,.01-.26,0-.09,0-.17,.02-.26,0-.09,.01-.17,.02-.26s.02-.17,.03-.26c0-.09,.02-.17,.03-.26,.01-.08,.02-.17,.03-.25,.01-.08,.03-.17,.04-.25,.01-.08,.03-.17,.04-.25,.02-.08,.03-.17,.05-.25,.02-.08,.03-.17,.05-.25,.02-.08,.04-.17,.06-.25,.02-.08,.04-.17,.06-.25s.04-.17,.07-.25c.02-.08,.05-.16,.07-.25,.02-.08,.05-.16,.08-.25,.03-.08,.05-.16,.08-.24,.03-.08,.06-.16,.09-.24,.03-.08,.06-.16,.09-.24,.03-.08,.06-.16,.09-.24,.03-.08,.07-.16,.1-.24s.07-.16,.1-.24c.04-.08,.07-.16,.11-.23,.04-.08,.07-.15,.11-.23,.04-.08,.08-.15,.12-.23,.04-.08,.08-.15,.12-.23,.04-.08,.08-.15,.12-.22,.04-.07,.09-.15,.13-.22,.04-.07,.09-.15,.13-.22,.04-.07,.09-.15,.14-.22,.05-.07,.09-.14,.14-.21,.05-.07,.1-.14,.14-.21,.35-.49,.72-.96,1.16-1.38,.37-.36,.77-.7,1.2-.99,.19-.13,.73-.41,.85-.54,0,0,.01-.01,.02-.02,.4-.16,.76-.39,1.15-.55,.39-.15,.81-.23,1.2-.38Z"/>
    <path class="cls-12" d="M15.78,14.57c.51-.42,1.08-.77,1.78-.7,.29,.03,.58,.15,.76,.38,.18,.22,.24,.5,.21,.78-.03,.22-.1,.46-.22,.66,0,.01-.01,.02-.02,.03-.21,.43-.59,.87-1.06,1.03-.01,0-.03,0-.04,.01l-.08,.07c-.21,.05-.4,.14-.61,.18-.31,.06-.66,.01-.92-.18-.23-.16-.36-.4-.4-.67-.1-.7,.22-1.07,.61-1.59Z"/>
    <path class="cls-3" d="M17.63,11.32c.08,.04,.59-.06,.71-.07,.18-.02,.36-.02,.54-.02,.59,0,1.14,.12,1.7,.29-.01,.33-.08,.68-.11,1-.32-.07-.64-.15-.97-.19-1.47-.18-2.91,.2-4.15,1-.25,.16-.5,.33-.74,.52-.24,.18-.47,.38-.69,.58-1.65,1.54-2.7,3.67-3.16,5.87-.62,2.92-.35,6.05,.95,8.76,.25,.51,.55,1.01,.86,1.48,.17,.26,.36,.52,.56,.76,.2,.24,.41,.48,.63,.7,.26,.26,.54,.5,.81,.76-.48-.07-.95-.24-1.39-.45-.16-.08-.32-.18-.49-.23-.01-.01-.02-.02-.04-.04-.34-.36-.64-.81-.92-1.23-1.54-2.35-2.2-5.13-2.17-7.92,0-.09,0-.17,0-.26,0-.09,0-.17,.01-.26,0-.09,0-.17,.02-.26,0-.09,.01-.17,.02-.26s.02-.17,.03-.26c0-.09,.02-.17,.03-.26,.01-.08,.02-.17,.03-.25,.01-.08,.03-.17,.04-.25,.01-.08,.03-.17,.04-.25,.02-.08,.03-.17,.05-.25,.02-.08,.03-.17,.05-.25,.02-.08,.04-.17,.06-.25,.02-.08,.04-.17,.06-.25s.04-.17,.07-.25c.02-.08,.05-.16,.07-.25,.02-.08,.05-.16,.08-.25,.03-.08,.05-.16,.08-.24,.03-.08,.06-.16,.09-.24,.03-.08,.06-.16,.09-.24,.03-.08,.06-.16,.09-.24,.03-.08,.07-.16,.1-.24s.07-.16,.1-.24c.04-.08,.07-.16,.11-.23,.04-.08,.07-.15,.11-.23,.04-.08,.08-.15,.12-.23,.04-.08,.08-.15,.12-.23,.04-.08,.08-.15,.12-.22,.04-.07,.09-.15,.13-.22,.04-.07,.09-.15,.13-.22,.04-.07,.09-.15,.14-.22,.05-.07,.09-.14,.14-.21,.05-.07,.1-.14,.14-.21,.35-.49,.72-.96,1.16-1.38,.37-.36,.77-.7,1.2-.99,.19-.13,.73-.41,.85-.54,0,0,.01-.01,.02-.02,.4-.16,.76-.39,1.15-.55,.39-.15,.81-.23,1.2-.38Z"/>
    <path class="cls-4" d="M17.1,16.83c-.17,.24-.39,.46-.57,.69-.39,.49-.71,.99-1.01,1.55-1.35,2.49-1.69,5.12-1.05,7.88,.12,.54,.27,1.1,.47,1.61,.16,.42,.36,.83,.58,1.23,.21,.38,.47,.7,.59,1.12,.08,.26,.14,.58,0,.82-.09,.16-.27,.26-.44,.3-.28,.06-.57-.03-.8-.18-.96-.62-2.07-2.47-2.51-3.51-.16-.38-.3-.76-.42-1.15-.12-.39-.22-.79-.31-1.19-.02-.09-.04-.19-.06-.29-.02-.1-.03-.19-.05-.29-.02-.1-.03-.19-.04-.29-.01-.1-.02-.19-.04-.29-.01-.1-.02-.19-.03-.29,0-.1-.02-.19-.02-.29,0-.1-.01-.19-.01-.29,0-.1,0-.19,0-.29,0-.1,0-.19,0-.29,0-.1,0-.19,0-.29,0-.1,0-.19,.01-.29,0-.1,.01-.19,.02-.29,0-.1,.02-.19,.03-.29,.01-.1,.02-.19,.04-.29,.01-.1,.03-.19,.04-.29,.02-.1,.03-.19,.05-.29,.02-.1,.04-.19,.06-.29,.02-.09,.04-.19,.06-.28,.02-.09,.05-.19,.07-.28,.02-.09,.05-.19,.08-.28,.03-.09,.05-.19,.08-.28,.03-.09,.06-.18,.09-.28,.03-.09,.06-.18,.1-.27,.03-.09,.07-.18,.1-.27,.04-.09,.07-.18,.11-.27,.04-.09,.08-.18,.12-.27,.04-.09,.08-.18,.12-.26,.04-.09,.09-.17,.13-.26,.04-.09,.09-.17,.14-.26,.05-.09,.09-.17,.14-.25,.05-.08,.1-.17,.15-.25,.05-.08,.1-.17,.15-.25,.07-.1,.14-.21,.21-.31,.07-.1,.15-.2,.22-.3,.08-.1,.15-.19,.23-.29,.08-.09,.16-.19,.24-.28s.17-.18,.26-.27c.09-.09,.18-.17,.27-.26,.09-.08,.18-.17,.28-.24,.09-.08,.19-.16,.29-.23,.14-.11,.33-.29,.51-.33-.39,.52-.71,.89-.61,1.59,.04,.27,.17,.51,.4,.67,.26,.19,.61,.23,.92,.18,.21-.04,.4-.13,.61-.18Z"/>
    <path class="cls-12" d="M14.52,16.76c.14,0,.26,0,.37,.09,.12,.08,.18,.21,.2,.35,.08,.42-.05,.85-.29,1.2-.19,.28-.44,.52-.78,.59-.11,0-.21-.02-.31-.07-.14-.08-.22-.2-.25-.35-.1-.38,.05-.82,.25-1.14,.19-.29,.46-.58,.81-.66Z"/>
  </g>
</svg>