<?xml version="1.0" encoding="UTF-8"?>
<svg id="_Слой_1" data-name="Слой 1" xmlns="http://www.w3.org/2000/svg" viewBox="0 0 40 40">
  <defs>
    <style>
      .cls-1 {
        fill: #0b2574;
      }

      .cls-2 {
        fill: #3c9329;
      }

      .cls-3 {
        fill: #8aa7ee;
      }

      .cls-4 {
        fill: #1e378d;
      }

      .cls-5 {
        fill: #2a4aaa;
      }

      .cls-6 {
        fill: #4682b4;
      }

      .cls-7 {
        fill: #7aa933;
      }

      .cls-8 {
        fill: #476dcc;
      }

      .cls-9 {
        fill: #8ebe41;
      }
    </style>
  </defs>
  <g>
    <rect class="cls-6" x=".5" y=".5" width="39" height="39" rx="4.96" ry="4.96"/>
    <path d="M34.54,1c2.46,0,4.46,2,4.46,4.46v29.07c0,2.46-2,4.46-4.46,4.46H5.46c-2.46,0-4.46-2-4.46-4.46V5.46C1,3,3,1,5.46,1h29.07m0-1H5.46C2.45,0,0,2.45,0,5.46v29.07c0,3.02,2.45,5.46,5.46,5.46h29.07c3.02,0,5.46-2.45,5.46-5.46V5.46c0-3.02-2.45-5.46-5.46-5.46h0Z"/>
  </g>
  <g>
    <path class="cls-2" d="M18.92,7.22c.22,.11,.42,.27,.61,.42,.9,.71,1.39,1.5,1.75,2.57v.02c-.21-.06-.41-.05-.63-.02-.18-.83-.62-1.63-1.16-2.29-.13-.16-.51-.54-.56-.71Z"/>
    <path class="cls-7" d="M18.85,7.18l.07,.04c.05,.16,.44,.55,.56,.71,.54,.66,.98,1.46,1.16,2.29-.46,.06-.89,.16-1.31,.36-.14-.62-.21-1.26-.29-1.9-.07-.5-.16-1-.18-1.5Z"/>
    <path class="cls-9" d="M10.14,13.55c1.08-.38,2.44-.22,3.46,.27,.21,.1,.4,.25,.61,.35-.04,.03-.07,.05-.1,.08-.03,.03-.07,.05-.1,.08-.03,.03-.07,.06-.1,.09-.03,.03-.06,.06-.1,.09s-.06,.06-.09,.09c-.03,.03-.06,.06-.09,.1-.03,.03-.06,.07-.09,.1-.03,.03-.06,.07-.08,.1-.03,.03-.05,.07-.08,.1-.03,.04-.05,.07-.08,.11-.02,.04-.05,.07-.07,.11-.02,.04-.05,.07-.07,.11-.02,.04-.04,.08-.06,.11-.02,.04-.04,.08-.06,.12-.02,.04-.04,.08-.06,.12-.02,.04-.03,.08-.05,.12-.2-.22-.47-.4-.7-.6-.68-.57-1.39-1.11-2.09-1.66Z"/>
    <path class="cls-9" d="M25.23,14.63c.23-.22,.41-.47,.66-.67,.95-.75,2.43-1.33,3.65-1.18,.06,0,.1,0,.14,.06l-.03,.07c-.73,.84-1.4,1.73-2.11,2.58-.21,.25-.39,.52-.62,.75-.24-.39-.49-.72-.83-1.03-.26-.23-.56-.44-.88-.58Z"/>
    <path class="cls-9" d="M17.32,12.74c-.2-.29-.31-1.05-.33-1.4-.06-1.09,.31-2.25,.92-3.15,.18-.26,.38-.49,.59-.72,.09-.1,.23-.28,.36-.29,.03,.5,.12,1,.18,1.5,.08,.63,.15,1.27,.29,1.9-.22,.11-.43,.22-.63,.36-.61,.43-1.12,1.11-1.38,1.81Z"/>
    <path class="cls-7" d="M29.68,12.83c.46,1.13,.31,2.48-.15,3.59-.06,.15-.13,.3-.2,.44-.07,.14-.15,.28-.24,.42-.27,0-.61-.03-.87,.04-.25,.1-.52,.16-.78,.27-.09-.49-.25-.93-.51-1.36,.22-.23,.41-.5,.62-.75,.71-.85,1.38-1.74,2.11-2.58l.03-.07Z"/>
    <path class="cls-2" d="M29.68,12.83c.46,1.13,.31,2.48-.15,3.59-.06,.15-.13,.3-.2,.44-.07,.14-.15,.28-.24,.42-.27,0-.61-.03-.87,.04,.1-.24,.41-.64,.55-.9,.61-1.13,.9-2.23,.89-3.52l.03-.07Z"/>
    <path class="cls-7" d="M10.09,13.73c0-.06,0-.14,.05-.19,.71,.54,1.41,1.09,2.09,1.66,.23,.19,.5,.38,.7,.6-.26,.75-.32,1.51-.17,2.29,.03,.11,.06,.22,.1,.32-.15-.04-.29-.09-.43-.13-.28-.11-.53-.16-.82-.18-.18-.18-.36-.35-.52-.55-.88-1.1-1.14-2.44-1-3.82Z"/>
    <path class="cls-2" d="M10.09,13.73c.1,.15,.14,.51,.19,.7,.05,.17,.1,.33,.16,.49,.36,.95,.97,1.88,1.68,2.61,.2,.2,.44,.36,.64,.57,.03,.11,.06,.22,.1,.32-.15-.04-.29-.09-.43-.13-.28-.11-.53-.16-.82-.18-.18-.18-.36-.35-.52-.55-.88-1.1-1.14-2.44-1-3.82Z"/>
    <path class="cls-8" d="M7.7,23.77l.4,.03c.47,.06,.89,.19,1.31,.4,.09,.05,.21,.09,.28,.16,.72,.39,1.4,1.21,1.63,2,0,.02,0,.03,.01,.05,.06,.13,.09,.29,.15,.4-.1,.22-.2,.45-.25,.68-.16,.5-.14,1.07-.11,1.58,0,.33,.16,.63,.21,.95-.02,.03-.03,.05-.05,.08-.02,.03-.04,.05-.05,.08-.02,.03-.04,.05-.05,.08-.02,.03-.04,.05-.06,.08s-.04,.05-.06,.07c-.02,.02-.04,.05-.06,.07-.02,.02-.04,.05-.06,.07-.02,.02-.04,.05-.06,.07-.02,.02-.04,.05-.07,.07-.02,.02-.04,.04-.07,.07-.02,.02-.05,.04-.07,.06-.02,.02-.05,.04-.07,.06-.02,.02-.05,.04-.07,.06-.02,.02-.05,.04-.07,.06s-.05,.04-.08,.06c-.03,.02-.05,.04-.08,.06-.03,.02-.05,.04-.08,.05-.03,.02-.05,.03-.08,.05-.03,.02-.05,.03-.08,.05-.03,.02-.05,.03-.08,.05-.03,.02-.05,.03-.08,.05-.03,.01-.06,.03-.08,.04-.03,.01-.06,.03-.08,.04s-.06,.03-.09,.04c-.03,.01-.06,.02-.09,.04-.03,.01-.06,.02-.09,.03-.03,.01-.06,.02-.09,.03-.03,.01-.06,.02-.09,.03-.03,0-.06,.02-.09,.03-.03,0-.06,.02-.09,.03-.03,0-.06,.02-.09,.02-.03,0-.06,.01-.09,.02-.03,0-.07,.01-.1,.02-.03,0-.07,.01-.1,.02-.03,0-.07,.01-.1,.02-.03,0-.07,0-.1,.01-.03,0-.07,0-.1,.01-.03,0-.07,0-.1,0-.03,0-.07,0-.1,0-.03,0-.07,0-.1,0-.03,0-.07,0-.1,0-.03,0-.07,0-.1,0-.03,0-.07,0-.1,0-.03,0-.07,0-.1,0-.03,0-.07,0-.1,0-.03,0-.07,0-.1-.01-.03,0-.07,0-.1-.01-.03,0-.07-.01-.1-.02-.03,0-.07-.01-.1-.02-.03,0-.07-.01-.1-.02-.03,0-.07-.02-.1-.02-.03,0-.07-.02-.1-.03-.03,0-.07-.02-.1-.03-.03,0-.07-.02-.1-.03-.03-.01-.06-.02-.1-.03-.03-.01-.06-.02-.1-.04-.03-.01-.06-.02-.1-.04-.03-.01-.06-.03-.09-.04-.03-.01-.06-.03-.09-.04-.03-.01-.06-.03-.09-.04-.03-.02-.06-.03-.09-.05-.03-.02-.06-.03-.09-.05-.03-.02-.06-.03-.09-.05-.03-.02-.06-.04-.09-.05-.15-.1-.3-.2-.43-.32-.17-.12-.32-.31-.46-.46-.52-.69-.79-1.28-.9-2.14-.02-.05-.02-.12-.03-.18-.08-1.02,.29-2.12,.95-2.9,.02-.03,.04-.05,.07-.08,.02-.02,.05-.05,.07-.07,.02-.02,.05-.05,.07-.07,.02-.02,.05-.05,.07-.07,.02-.02,.05-.05,.07-.07,.02-.02,.05-.04,.07-.07,.03-.02,.05-.04,.08-.06,.03-.02,.05-.04,.08-.06,.03-.02,.05-.04,.08-.06,.03-.02,.05-.04,.08-.06,.03-.02,.05-.04,.08-.06,.03-.02,.06-.04,.08-.05,.03-.02,.06-.04,.09-.05,.03-.02,.06-.03,.09-.05,.03-.02,.06-.03,.09-.05,.03-.02,.06-.03,.09-.05,.03-.01,.06-.03,.09-.04,.03-.01,.06-.03,.09-.04,.03-.01,.06-.03,.09-.04,.03-.01,.06-.02,.09-.04,.03-.01,.06-.02,.09-.03,.03-.01,.06-.02,.09-.03s.06-.02,.1-.03c.03,0,.06-.02,.1-.03,.03,0,.06-.02,.1-.02,.03,0,.06-.02,.1-.02,.03,0,.07-.01,.1-.02,.03,0,.07-.01,.1-.02,.03,0,.07-.01,.1-.02,.03,0,.07,0,.1-.01,.03,0,.07,0,.1-.01,.03,0,.07,0,.1,0Z"/>
    <path class="cls-4" d="M7.51,25.55c.22,.19,.38,.45,.4,.74,0,.02,0,.03,0,.05,0,.02,0,.03,0,.05,0,.02,0,.03,0,.05,0,.02,0,.03,0,.05,0,.02,0,.03,0,.05,0,.02,0,.03,0,.05,0,.02,0,.03-.01,.05,0,.02,0,.03-.01,.05,0,.02-.01,.03-.02,.05,0,.02-.01,.03-.02,.04,0,.01-.01,.03-.02,.04,0,.01-.01,.03-.02,.04s-.02,.03-.02,.04c0,.01-.02,.03-.03,.04s-.02,.03-.03,.04c0,.01-.02,.03-.03,.04-.18,.21-.44,.31-.71,.33-.27,.01-.53-.07-.74-.25-.11-.1-.21-.23-.26-.37,.1,.06,.16,.15,.27,.2,.26,.1,.58,.09,.83-.03,.23-.11,.4-.32,.48-.56,.07-.21,.09-.48-.02-.68-.01-.02-.02-.04-.03-.06,0,0,0-.01,0-.02Z"/>
    <path class="cls-5" d="M5.88,26.51c-.02-.05-.03-.1-.03-.16,0-.05,0-.11,0-.16,0-.02,0-.03,0-.05,0-.02,0-.03,0-.05,0-.02,0-.03,0-.04,0-.01,0-.03,.01-.04,0-.01,0-.03,.01-.04,0-.01,0-.03,.02-.04,0-.01,.01-.03,.02-.04,0-.01,.01-.03,.02-.04,0-.01,.01-.03,.02-.04,0-.01,.02-.03,.02-.04,0-.01,.02-.03,.03-.04,0-.01,.02-.02,.03-.04,0-.01,.02-.02,.03-.04,.01-.01,.02-.02,.03-.03,.01-.01,.02-.02,.03-.03,.01-.01,.02-.02,.03-.03,.23-.2,.48-.26,.78-.24,.16,.03,.46,.1,.56,.23,0,0,0,.01,0,.02,0,.03,.01,.04,.03,.06,.11,.21,.09,.47,.02,.68-.08,.24-.25,.45-.48,.56-.25,.12-.57,.13-.83,.03-.12-.04-.17-.14-.27-.2-.05-.06-.07-.14-.09-.21Z"/>
    <path class="cls-3" d="M4.91,27.77c-.13-.32-.13-.64-.06-.98,0-.02,0-.05,.01-.07,0-.02,0-.05,.02-.07,0-.02,.01-.05,.02-.07,0-.02,.01-.05,.02-.07s.01-.05,.02-.07c0-.02,.01-.05,.02-.07,0-.02,.02-.05,.02-.07,0-.02,.02-.04,.03-.07,0-.02,.02-.04,.03-.07,0-.02,.02-.04,.03-.07,0-.02,.02-.04,.03-.06,.01-.02,.02-.04,.03-.06,.01-.02,.02-.04,.03-.06,.01-.02,.02-.04,.04-.06,.01-.02,.02-.04,.04-.06,.01-.02,.03-.04,.04-.06,.01-.02,.03-.04,.04-.06,.01-.02,.03-.04,.04-.06,.01-.02,.03-.04,.04-.06,.01-.02,.03-.04,.04-.06,.02-.02,.03-.04,.05-.06,.02-.02,.03-.04,.05-.05,.02-.02,.03-.04,.05-.05,.02-.02,.03-.03,.05-.05s.03-.03,.05-.05c.02-.02,.03-.03,.05-.05,.02-.02,.04-.03,.05-.05,.02-.02,.04-.03,.05-.05,.02-.02,.04-.03,.06-.05,.02-.01,.04-.03,.06-.04,.02-.01,.04-.03,.06-.04,.02-.01,.04-.03,.06-.04,.56-.38,1.22-.53,1.88-.41-.39,.31-.63,.4-1.01,.8-.29-.02-.55,.04-.78,.24-.01,0-.02,.02-.03,.03-.01,.01-.02,.02-.03,.03-.01,.01-.02,.02-.03,.03-.01,.01-.02,.02-.03,.04,0,.01-.02,.02-.03,.04,0,.01-.02,.03-.03,.04,0,.01-.02,.03-.02,.04,0,.01-.01,.03-.02,.04,0,.01-.01,.03-.02,.04,0,.01-.01,.03-.02,.04,0,.01-.01,.03-.02,.04,0,.01,0,.03-.01,.04,0,.01,0,.03-.01,.04,0,.01,0,.03,0,.04,0,.02,0,.03,0,.05,0,.02,0,.03,0,.05,0,.05,0,.11,0,.16,0,.05,.02,.11,.03,.16-.4,.27-.73,.85-.97,1.26Z"/>
    <path class="cls-5" d="M9.7,24.35c.72,.39,1.4,1.21,1.63,2,0,.02,0,.03,.01,.05,.06,.13,.09,.29,.15,.4-.1,.22-.2,.45-.25,.68-.16,.5-.14,1.07-.11,1.58,0,.33,.16,.63,.21,.95-.02,.03-.03,.05-.05,.08-.02,.03-.04,.05-.05,.08-.02,.03-.04,.05-.05,.08-.02,.03-.04,.05-.06,.08s-.04,.05-.06,.07c-.02,.02-.04,.05-.06,.07-.02,.02-.04,.05-.06,.07-.02,.02-.04,.05-.06,.07-.02,.02-.04,.05-.07,.07-.02,.02-.04,.04-.07,.07-.02,.02-.05,.04-.07,.06-.02,.02-.05,.04-.07,.06-.02,.02-.05,.04-.07,.06-.02,.02-.05,.04-.07,.06s-.05,.04-.08,.06c-.03,.02-.05,.04-.08,.06-.03,.02-.05,.04-.08,.05-.03,.02-.05,.03-.08,.05-.03,.02-.05,.03-.08,.05-.03,.02-.05,.03-.08,.05-.03,.02-.05,.03-.08,.05-.03,.01-.06,.03-.08,.04-.03,.01-.06,.03-.08,.04s-.06,.03-.09,.04c-.03,.01-.06,.02-.09,.04-.03,.01-.06,.02-.09,.03-.03,.01-.06,.02-.09,.03-.03,.01-.06,.02-.09,.03-.03,0-.06,.02-.09,.03-.03,0-.06,.02-.09,.03-.03,0-.06,.02-.09,.02-.03,0-.06,.01-.09,.02-.03,0-.07,.01-.1,.02-.03,0-.07,.01-.1,.02-.03,0-.07,.01-.1,.02-.03,0-.07,0-.1,.01-.03,0-.07,0-.1,.01-.03,0-.07,0-.1,0-.03,0-.07,0-.1,0-.03,0-.07,0-.1,0-.03,0-.07,0-.1,0-.03,0-.07,0-.1,0-.03,0-.07,0-.1,0-.03,0-.07,0-.1,0-.03,0-.07,0-.1,0-.03,0-.07,0-.1-.01-.03,0-.07,0-.1-.01-.03,0-.07-.01-.1-.02-.03,0-.07-.01-.1-.02-.03,0-.07-.01-.1-.02-.03,0-.07-.02-.1-.02-.03,0-.07-.02-.1-.03-.03,0-.07-.02-.1-.03-.03,0-.07-.02-.1-.03-.03-.01-.06-.02-.1-.03-.03-.01-.06-.02-.1-.04-.03-.01-.06-.02-.1-.04-.03-.01-.06-.03-.09-.04-.03-.01-.06-.03-.09-.04-.03-.01-.06-.03-.09-.04-.03-.02-.06-.03-.09-.05-.03-.02-.06-.03-.09-.05-.03-.02-.06-.03-.09-.05-.03-.02-.06-.04-.09-.05-.15-.1-.3-.2-.43-.32-.17-.12-.32-.31-.46-.46-.52-.69-.79-1.28-.9-2.14,.11,.07,.21,.22,.31,.31,.26,.25,.59,.46,.91,.62,.68,.35,1.52,.45,2.25,.21,.03,0,.06-.02,.09-.03,.03-.01,.06-.02,.09-.03,.03-.01,.06-.02,.09-.03,.03-.01,.06-.02,.09-.04,.03-.01,.06-.03,.08-.04,.03-.01,.06-.03,.08-.04,.03-.01,.06-.03,.08-.04,.03-.01,.05-.03,.08-.04,.03-.02,.05-.03,.08-.05,.03-.02,.05-.03,.08-.05,.03-.02,.05-.03,.08-.05,.03-.02,.05-.03,.08-.05,.03-.02,.05-.04,.08-.05s.05-.04,.07-.06c.02-.02,.05-.04,.07-.06,.02-.02,.05-.04,.07-.06,.02-.02,.05-.04,.07-.06,.02-.02,.05-.04,.07-.06,.02-.02,.04-.04,.07-.06,.02-.02,.04-.04,.07-.07,.02-.02,.04-.05,.06-.07,.02-.02,.04-.05,.06-.07,.02-.02,.04-.05,.06-.07,.02-.02,.04-.05,.06-.07s.04-.05,.06-.07c.02-.02,.04-.05,.05-.08,.02-.03,.04-.05,.05-.08,.02-.03,.03-.05,.05-.08,.02-.03,.03-.05,.05-.08,.02-.03,.03-.05,.05-.08,.02-.03,.03-.05,.05-.08,.01-.03,.03-.05,.04-.08,.56-1.1,.4-2.01,.03-3.13Z"/>
    <path class="cls-4" d="M11.34,26.4c.06,.13,.09,.29,.15,.4-.1,.22-.2,.45-.25,.68-.16,.5-.14,1.07-.11,1.58,0,.33,.16,.63,.21,.95-.02,.03-.03,.05-.05,.08-.02,.03-.04,.05-.05,.08-.02,.03-.04,.05-.05,.08-.02,.03-.04,.05-.06,.08s-.04,.05-.06,.07c-.02,.02-.04,.05-.06,.07-.02,.02-.04,.05-.06,.07-.02,.02-.04,.05-.06,.07-.02,.02-.04,.05-.07,.07-.02,.02-.04,.04-.07,.07-.02,.02-.05,.04-.07,.06-.02,.02-.05,.04-.07,.06-.02,.02-.05,.04-.07,.06-.02,.02-.05,.04-.07,.06s-.05,.04-.08,.06c-.03,.02-.05,.04-.08,.06-.03,.02-.05,.04-.08,.05-.03,.02-.05,.03-.08,.05-.03,.02-.05,.03-.08,.05-.03,.02-.05,.03-.08,.05-.03,.02-.05,.03-.08,.05-.03,.01-.06,.03-.08,.04-.03,.01-.06,.03-.08,.04s-.06,.03-.09,.04c-.03,.01-.06,.02-.09,.04-.03,.01-.06,.02-.09,.03-.03,.01-.06,.02-.09,.03-.03,.01-.06,.02-.09,.03-.03,0-.06,.02-.09,.03-.03,0-.06,.02-.09,.03-.03,0-.06,.02-.09,.02-.03,0-.06,.01-.09,.02-.03,0-.07,.01-.1,.02-.03,0-.07,.01-.1,.02-.03,0-.07,.01-.1,.02-.03,0-.07,0-.1,.01-.03,0-.07,0-.1,.01-.03,0-.07,0-.1,0-.03,0-.07,0-.1,0-.03,0-.07,0-.1,0-.03,0-.07,0-.1,0-.03,0-.07,0-.1,0-.03,0-.07,0-.1,0-.03,0-.07,0-.1,0-.03,0-.07,0-.1,0-.03,0-.07,0-.1-.01-.03,0-.07,0-.1-.01-.03,0-.07-.01-.1-.02-.03,0-.07-.01-.1-.02-.03,0-.07-.01-.1-.02-.03,0-.07-.02-.1-.02-.03,0-.07-.02-.1-.03-.03,0-.07-.02-.1-.03-.03,0-.07-.02-.1-.03-.03-.01-.06-.02-.1-.03-.03-.01-.06-.02-.1-.04-.03-.01-.06-.02-.1-.04-.03-.01-.06-.03-.09-.04-.03-.01-.06-.03-.09-.04-.03-.01-.06-.03-.09-.04-.03-.02-.06-.03-.09-.05-.03-.02-.06-.03-.09-.05-.03-.02-.06-.03-.09-.05-.03-.02-.06-.04-.09-.05-.15-.1-.3-.2-.43-.32,.15,.02,.29,.1,.43,.14,.97,.3,2.17,.11,3.05-.37,1.32-.72,1.93-1.77,2.34-3.17,.14-.35,.17-.67,.16-1.04Z"/>
    <path class="cls-8" d="M20.65,10.22c.22-.03,.42-.04,.64,.02,.19,.03,.39,.06,.58,.11,.66,.17,1.24,.45,1.76,.89,.81,.72,1.35,1.68,1.42,2.76,0,.13,.01,.27,0,.4,0,.06,0,.12,.03,.17,.05,.03,.1,.04,.15,.05,.32,.14,.62,.35,.88,.58,.33,.31,.59,.64,.83,1.03,.26,.43,.41,.87,.51,1.36-.28,.14-.55,.31-.81,.48-.14,.11-.28,.24-.41,.36-.06,.05-.11,.12-.17,.17-.14,.17-.25,.35-.38,.52-.14-.06-.31-.09-.46-.09l-.05-.02c-1.14-.19-2.26-.02-3.21,.67-.08,.06-.15,.11-.23,.17-.07-.26-.27-.52-.39-.76-.28-.36-.56-.66-.9-.96l-.17-.12c-.2-.11-.4-.21-.6-.29,.12-.64,.33-1.2,.67-1.76-.08-.14-.14-.29-.22-.43-.07-.13-.15-.25-.22-.38-.12-.14-.22-.28-.34-.42-.39-.45-.79-.69-1.31-.96-.11-.04-.22-.09-.33-.12-.23-.07-.53-.11-.74-.2,.04-.08,.13-.55,.17-.71,.27-.7,.77-1.38,1.38-1.81,.2-.14,.42-.25,.63-.36,.42-.2,.85-.3,1.31-.36Z"/>
    <path class="cls-4" d="M22.85,15.86c.22,.12,.36,.34,.43,.57,.07,.24,.07,.52-.06,.74-.12,.22-.35,.37-.59,.43-.24,.06-.5,.03-.72-.1-.2-.12-.34-.3-.43-.51,.1,.1,.2,.18,.34,.23,.21,.08,.46,.05,.65-.05,.21-.1,.35-.27,.43-.49,.12-.34,.1-.49-.05-.81,0,0,0-.01,0-.02Z"/>
    <path class="cls-5" d="M22.07,15.69c.27-.02,.57-.02,.78,.16,0,0,0,.01,0,.02,.15,.32,.17,.47,.05,.81-.08,.22-.22,.39-.43,.49-.2,.09-.45,.12-.65,.05-.14-.05-.23-.13-.34-.23-.03-.05-.04-.1-.06-.15-.05-.16-.03-.39,.02-.54,.11-.31,.34-.47,.62-.6Z"/>
    <path class="cls-3" d="M20.24,18.01c0-.13,0-.27,0-.4,.06-.82,.45-1.55,1.08-2.09,.09-.07,.18-.16,.28-.22,.22-.14,.66-.32,.93-.29,.05,0,.07,.02,.1,.06,0,.18-.44,.47-.56,.61-.28,.13-.51,.3-.62,.6-.05,.15-.07,.38-.02,.54-.31,.46-.63,.9-1.02,1.29l-.17-.12Z"/>
    <path class="cls-5" d="M21.86,10.35c.66,.17,1.24,.45,1.76,.89,.81,.72,1.35,1.68,1.42,2.76,0,.13,.01,.27,0,.4,0,.06,0,.12,.03,.17,.05,.03,.1,.04,.15,.05,.32,.14,.62,.35,.88,.58,.33,.31,.59,.64,.83,1.03,.26,.43,.41,.87,.51,1.36-.28,.14-.55,.31-.81,.48-.14,.11-.28,.24-.41,.36-.06,.05-.11,.12-.17,.17-.14,.17-.25,.35-.38,.52-.14-.06-.31-.09-.46-.09l-.05-.02c-1.14-.19-2.26-.02-3.21,.67-.08,.06-.15,.11-.23,.17-.07-.26-.27-.52-.39-.76,.33,.06,.63,.08,.96,.03,.31-.05,.62-.15,.93-.24,.71-.2,1.22-.28,1.68-.92,.02-.03,.05-.07,.07-.11,.02-.04,.05-.07,.07-.11,.02-.04,.04-.07,.06-.11,.02-.04,.04-.08,.06-.11,.02-.04,.03-.08,.05-.12,.02-.04,.03-.08,.04-.12s.03-.08,.04-.12c.01-.04,.02-.08,.03-.12,0-.04,.02-.08,.03-.12,0-.04,.01-.08,.02-.13,0-.04,.01-.08,.01-.13s0-.08,0-.13c0-.04,0-.08,0-.13,0-.04,0-.08,0-.13,0-.04,0-.08-.01-.13,0-.04-.01-.08-.02-.13-.12-.68-.53-1.25-1.09-1.64-.38-.27-1.09-.15-1.52-.08-1.01,.18-1.86,.83-2.43,1.66-.08-.14-.14-.29-.22-.43-.07-.13-.15-.25-.22-.38,.17,0,.35,0,.52-.05,.28-.07,.49-.26,.73-.41,.17-.1,.35-.19,.53-.27,.27-.11,.63-.15,.87-.3,.3-.17,.5-.63,.57-.95,.2-.85-.15-1.77-.75-2.38-.1-.1-.43-.34-.47-.43,0,0,0-.01,0-.02Z"/>
    <path class="cls-4" d="M25.15,19.02c.1-.07,.25-.1,.36-.15,.15-.07,.3-.17,.46-.24,.03-.01,.05-.01,.07-.01-.14,.17-.25,.35-.38,.52-.14-.06-.31-.09-.46-.09l-.05-.02Z"/>
    <path class="cls-4" d="M26.1,15.21c.33,.31,.59,.64,.83,1.03,.26,.43,.41,.87,.51,1.36-.28,.14-.55,.31-.81,.48,0-.12,.05-.25,.07-.37,.06-.34,.05-.65-.01-.99-.08-.44-.26-.87-.48-1.26-.04-.08-.1-.15-.1-.25Z"/>
    <path class="cls-4" d="M23.63,11.24c.81,.72,1.35,1.68,1.42,2.76,0,.13,.01,.27,0,.4,0,.04-.02,.09-.03,.13-.13-.01-.56-.18-.74-.22,.13-.57,.15-1.15-.02-1.71-.09-.28-.22-.56-.37-.81-.07-.12-.21-.29-.26-.42-.01-.04-.01-.08,0-.12Z"/>
    <path class="cls-8" d="M20.65,10.22c.22-.03,.42-.04,.64,.02,.19,.03,.39,.06,.58,.11,0,0,0,.01,0,.02,.05,.09,.38,.33,.47,.43,.6,.61,.95,1.53,.75,2.38-.07,.32-.27,.78-.57,.95-.25,.14-.6,.18-.87,.3-.18,.08-.36,.17-.53,.27-.24,.15-.45,.34-.73,.41-.17,.04-.34,.04-.52,.05-.12-.14-.22-.28-.34-.42-.39-.45-.79-.69-1.31-.96-.11-.04-.22-.09-.33-.12-.23-.07-.53-.11-.74-.2,.04-.08,.13-.55,.17-.71,.27-.7,.77-1.38,1.38-1.81,.2-.14,.42-.25,.63-.36,.42-.2,.85-.3,1.31-.36Z"/>
    <path class="cls-4" d="M20.83,11.97c.21,.24,.35,.5,.33,.83,0,.01,0,.03,0,.04,0,.01,0,.03,0,.04,0,.01,0,.03,0,.04,0,.01,0,.03,0,.04,0,.01,0,.03-.01,.04,0,.01,0,.03-.01,.04,0,.01-.01,.03-.02,.04,0,.01-.01,.03-.02,.04,0,.01-.01,.03-.02,.04,0,.01-.01,.02-.02,.04,0,.01-.02,.02-.02,.04,0,.01-.02,.02-.03,.03,0,.01-.02,.02-.03,.03s-.02,.02-.03,.03c0,.01-.02,.02-.03,.03-.01,0-.02,.02-.03,.03-.21,.18-.48,.24-.75,.21-.28-.03-.53-.16-.7-.38-.07-.09-.12-.18-.16-.28,.1,.06,.17,.16,.27,.23,.17,.11,.4,.14,.6,.09,.02,0,.03,0,.05-.01,.02,0,.03,0,.04-.01s.03-.01,.04-.02c.01,0,.03-.01,.04-.02,.01,0,.03-.01,.04-.02,.01,0,.03-.01,.04-.02,.01,0,.03-.02,.04-.02,.01,0,.03-.02,.04-.03,.01,0,.03-.02,.04-.03,.01,0,.02-.02,.04-.03,.01-.01,.02-.02,.03-.03,.01-.01,.02-.02,.03-.03,.01-.01,.02-.02,.03-.04,.01-.01,.02-.02,.03-.04,0-.01,.02-.03,.03-.04,0-.01,.02-.03,.03-.04,.16-.27,.17-.57,.1-.86Z"/>
    <path class="cls-5" d="M19.92,11.6c.33-.01,.57,.05,.81,.27,.04,.03,.07,.07,.1,.1,.07,.3,.06,.6-.1,.86,0,.01-.02,.03-.03,.04,0,.01-.02,.03-.03,.04,0,.01-.02,.02-.03,.04-.01,.01-.02,.02-.03,.04-.01,.01-.02,.02-.03,.03-.01,.01-.02,.02-.03,.03-.01,.01-.02,.02-.04,.03-.01,0-.02,.02-.04,.03-.01,0-.03,.02-.04,.03-.01,0-.03,.02-.04,.02-.01,0-.03,.02-.04,.02-.01,0-.03,.01-.04,.02-.01,0-.03,.01-.04,.02-.01,0-.03,.01-.04,.02s-.03,0-.04,.01c-.02,0-.03,0-.05,.01-.2,.05-.43,.02-.6-.09-.1-.07-.17-.16-.27-.23-.09-.16-.1-.36-.11-.55,.02-.06,.04-.12,.07-.18,.13-.33,.39-.48,.7-.62Z"/>
    <path class="cls-3" d="M17.89,13.65s.01-.1,.02-.15c0-.05,.01-.1,.02-.15,0-.05,.02-.1,.03-.15,.01-.05,.02-.1,.04-.14,.01-.05,.03-.1,.04-.14,.02-.05,.03-.09,.05-.14,.02-.05,.04-.09,.06-.14,.02-.05,.04-.09,.06-.14,.02-.04,.04-.09,.07-.13,.02-.04,.05-.09,.07-.13,.03-.04,.05-.08,.08-.13,.03-.04,.06-.08,.08-.12,.03-.04,.06-.08,.09-.12,.03-.04,.06-.08,.1-.11,.03-.04,.07-.07,.1-.11,.03-.04,.07-.07,.11-.11,.36-.35,.93-.69,1.45-.67,.09,0,.17,0,.23,.08,.01,.03,.02,.05,0,.09-.03,.15-.53,.46-.67,.56-.31,.13-.57,.29-.7,.62-.02,.06-.04,.12-.07,.18-.11,.21-.12,.4-.2,.62-.04,.12-.61,.67-.74,.76-.11-.04-.22-.09-.33-.12Z"/>
    <path class="cls-8" d="M14.21,14.17c.13-.09,.27-.18,.41-.26,.6-.33,1.25-.5,1.93-.5,.18,0,.38,0,.55,.05h.05c.21,.08,.51,.13,.74,.19,.11,.03,.22,.08,.33,.12,.52,.27,.92,.51,1.31,.96,.12,.14,.22,.28,.34,.42,.07,.13,.15,.25,.22,.38,.08,.14,.14,.29,.22,.43-.34,.56-.55,1.12-.67,1.76,.21,.09,.41,.18,.6,.29l.17,.12c.34,.3,.63,.6,.9,.96,.12,.24,.32,.5,.39,.76-.13,.12-.27,.24-.39,.38-.02-.11-.05-.22-.08-.33-.03-.11-.07-.21-.12-.32-.36-.82-1.02-1.37-1.84-1.7-.18-.07-.76-.28-.92-.21-.86-.13-1.84,.17-2.53,.69-.46,.34-.87,.82-1.15,1.31-.08,.15-.16,.31-.23,.47-.07,.21-.13,.42-.17,.64-.05,.26-.16,1.18-.03,1.42,0,.02,.02,.02,.03,.03,.01,.38,.19,.7,.3,1.05-.07,.06-.16,.08-.22,.13,.07,.17,.14,.33,.23,.49,.1,.17,.24,.36,.3,.55-.04,.05-.16,.19-.15,.25h.02s-.02,.02-.02,.02c-.21,.05-.44,.03-.65,.08-.06,.01-.11,.03-.17,.04-.06,.02-.11,.03-.17,.05-.06,.02-.11,.04-.17,.06-.05,.02-.11,.04-.16,.07-.05,.02-.11,.05-.16,.07-.05,.03-.1,.05-.16,.08-.05,.03-.1,.06-.15,.09-.05,.03-.1,.06-.15,.09-.05,.03-.1,.07-.14,.1-.05,.03-.09,.07-.14,.11-.05,.04-.09,.07-.13,.11s-.09,.08-.13,.12c-.04,.04-.08,.08-.12,.12-.04,.04-.08,.09-.12,.13-.04,.04-.08,.09-.11,.14-.04,.05-.07,.09-.11,.14-.1,.15-.21,.31-.29,.47-.06-.12-.09-.28-.15-.4,0-.02,0-.03-.01-.05-.23-.79-.91-1.6-1.63-2-.08-.07-.19-.11-.28-.16-.43-.21-.84-.34-1.31-.4l-.4-.03c-.05-.14-.12-.27-.17-.41-.09-.26-.14-.52-.19-.79,0-.06-.01-.11-.01-.17-.08-1.1,.22-2.11,.96-2.95,.57-.65,1.43-1.16,2.3-1.29,.34-.05,.68-.04,1.02-.06,.29,.02,.55,.08,.82,.18,.15,.04,.29,.09,.43,.13-.04-.11-.07-.21-.1-.32-.15-.78-.09-1.55,.17-2.29,.02-.04,.03-.08,.05-.12,.02-.04,.04-.08,.06-.12,.02-.04,.04-.08,.06-.12,.02-.04,.04-.08,.06-.11,.02-.04,.04-.08,.07-.11,.02-.04,.05-.07,.07-.11,.02-.04,.05-.07,.08-.11,.03-.04,.05-.07,.08-.1,.03-.03,.05-.07,.08-.1,.03-.03,.06-.07,.09-.1,.03-.03,.06-.06,.09-.1,.03-.03,.06-.06,.09-.09s.06-.06,.1-.09c.03-.03,.07-.06,.1-.09,.03-.03,.07-.06,.1-.08,.03-.03,.07-.05,.1-.08Z"/>
    <path class="cls-4" d="M15.89,15.07s.03,.01,.05,.02c.02,0,.03,.01,.05,.02,.02,0,.03,.02,.05,.02,.02,0,.03,.02,.05,.03,.02,0,.03,.02,.05,.03,.02,.01,.03,.02,.04,.03,.01,.01,.03,.02,.04,.03,.01,.01,.03,.02,.04,.04,.01,.01,.03,.03,.04,.04,.01,.01,.03,.03,.04,.04,.01,.01,.02,.03,.04,.04,.01,.01,.02,.03,.03,.04,.01,.01,.02,.03,.03,.05,.01,.02,.02,.03,.03,.05,0,.02,.02,.03,.03,.05,0,.02,.02,.03,.02,.05,.1,.22,.13,.47,.04,.7-.09,.24-.27,.42-.5,.53-.29,.13-.64,.13-.93,.01-.24-.1-.42-.27-.53-.51,.02,0,.03,.02,.05,.03,.08,.07,.18,.14,.29,.17,.24,.06,.52,.03,.74-.1,.2-.12,.36-.31,.42-.53,.08-.33-.04-.61-.21-.88Z"/>
    <path class="cls-5" d="M15.38,14.96c.18,.02,.34,.05,.51,.11,.16,.27,.29,.55,.21,.88-.06,.22-.22,.41-.42,.53-.22,.13-.49,.16-.74,.1-.11-.03-.21-.1-.29-.17-.01-.01-.03-.03-.05-.03-.03-.05-.05-.12-.07-.18-.01-.04-.02-.09-.03-.13-.04-.26,.03-.54,.19-.75,.17-.22,.41-.32,.68-.36Z"/>
    <path class="cls-3" d="M13.48,17.83c-.02-.08-.05-.15-.06-.23-.17-.75,.04-1.64,.45-2.28,.3-.46,.71-.82,1.2-1.04,.1-.05,.2-.1,.31-.12,.19-.04,.42-.08,.61-.01,.02,.03,.03,.03,.03,.06,0,.21-.49,.61-.65,.75-.27,.03-.51,.13-.68,.36-.16,.21-.24,.49-.19,.75,0,.04,.02,.09,.03,.13-.13,.19-.29,.36-.43,.54-.26,.34-.45,.7-.62,1.09Z"/>
    <path class="cls-4" d="M17.1,13.46h.05c.21,.08,.51,.13,.74,.19,.11,.03,.22,.08,.33,.12,.52,.27,.92,.51,1.31,.96,.12,.14,.22,.28,.34,.42,.07,.13,.15,.25,.22,.38,.08,.14,.14,.29,.22,.43-.34,.56-.55,1.12-.67,1.76,.21,.09,.41,.18,.6,.29l.17,.12c.34,.3,.63,.6,.9,.96,.12,.24,.32,.5,.39,.76-.13,.12-.27,.24-.39,.38-.02-.11-.05-.22-.08-.33-.03-.11-.07-.21-.12-.32-.36-.82-1.02-1.37-1.84-1.7-.18-.07-.76-.28-.92-.21-.86-.13-1.84,.17-2.53,.69-.46,.34-.87,.82-1.15,1.31-.08,.15-.16,.31-.23,.47-.07,.21-.13,.42-.17,.64-.05,.26-.16,1.18-.03,1.42,0,.02,.02,.02,.03,.03,.01,.38,.19,.7,.3,1.05-.07,.06-.16,.08-.22,.13,.07,.17,.14,.33,.23,.49,.1,.17,.24,.36,.3,.55-.04,.05-.16,.19-.15,.25h.02s-.02,.02-.02,.02c-.21,.05-.44,.03-.65,.08-.06,.01-.11,.03-.17,.04-.06,.02-.11,.03-.17,.05-.06,.02-.11,.04-.17,.06-.05,.02-.11,.04-.16,.07-.05,.02-.11,.05-.16,.07-.05,.03-.1,.05-.16,.08-.05,.03-.1,.06-.15,.09-.05,.03-.1,.06-.15,.09-.05,.03-.1,.07-.14,.1-.05,.03-.09,.07-.14,.11-.05,.04-.09,.07-.13,.11s-.09,.08-.13,.12c-.04,.04-.08,.08-.12,.12-.04,.04-.08,.09-.12,.13-.04,.04-.08,.09-.11,.14-.04,.05-.07,.09-.11,.14-.1-.14-.16-.32-.24-.47-.15-.3-.35-.58-.57-.84,.91-.14,1.74-.53,2.5-1.06,.28-.2,.54-.43,.87-.55-.48-1.15-.4-2.1,.04-3.25,.03-.06,.05-.12,.08-.18-.31-.49-.82-1.03-1.36-1.27-.18-.18-.44-.3-.67-.43,.15,.04,.29,.09,.43,.13,.49,.07,1.45,.75,1.75,1.16,.05-.18,.17-.35,.29-.49,.02-.03,.04-.05,.07-.08,.02-.03,.04-.05,.07-.08,.02-.03,.05-.05,.07-.08,.02-.03,.05-.05,.07-.08,.02-.03,.05-.05,.07-.07,.02-.02,.05-.05,.08-.07s.05-.05,.08-.07c.03-.02,.05-.05,.08-.07,.03-.02,.05-.04,.08-.07,.03-.02,.05-.04,.08-.06,.03-.02,.06-.04,.08-.06,.03-.02,.06-.04,.08-.06,.03-.02,.06-.04,.09-.06,.03-.02,.06-.04,.09-.06,.03-.02,.06-.04,.09-.05,.03-.02,.06-.04,.09-.05,.03-.02,.06-.03,.09-.05,.03-.02,.06-.03,.09-.05,.03-.02,.06-.03,.09-.05,.03-.01,.06-.03,.1-.04,.03-.01,.06-.03,.1-.04,.03-.01,.06-.03,.1-.04,.03-.01,.07-.02,.1-.04,.03-.01,.07-.02,.1-.03,.03-.01,.07-.02,.1-.03,.03-.01,.07-.02,.1-.03,.03,0,.07-.02,.1-.03,.03,0,.07-.02,.1-.02,.03,0,.07-.01,.1-.02,.03,0,.07-.01,.1-.02s.07-.01,.1-.02c.03,0,.07,0,.1-.01,.2-.08,.35-.24,.49-.4,.38-.45,.62-1.04,.56-1.64-.07-.71-.46-1.24-.99-1.68-.22-.14-.49-.18-.71-.31Z"/>
    <path class="cls-5" d="M17.8,13.77s.08,0,.11,.02c.2,.1,.84,.61,1,.8,.46,.53,.78,1.26,.73,1.97-.03,.37-.14,.73-.18,1.1-.34-.08-.66-.14-1.02-.16-.22,0-.49,.04-.71-.02,.2-.08,.35-.24,.49-.4,.38-.45,.62-1.04,.56-1.64-.07-.71-.46-1.24-.99-1.68Z"/>
    <path class="cls-5" d="M13.1,18.71c.54,.24,1.05,.78,1.36,1.27-.02,.06-.04,.13-.08,.18-.44,1.15-.52,2.1-.04,3.25-.33,.12-.59,.35-.87,.55-.75,.53-1.58,.91-2.5,1.06,.22,.26,.41,.54,.57,.84,.08,.15,.14,.33,.24,.47-.1,.15-.21,.31-.29,.47-.06-.12-.09-.28-.15-.4,0-.02,0-.03-.01-.05-.23-.79-.91-1.6-1.63-2-.08-.07-.19-.11-.28-.16-.43-.21-.84-.34-1.31-.4l-.4-.03c-.05-.14-.12-.27-.17-.41-.09-.26-.14-.52-.19-.79,.44,.29,1.18,.53,1.69,.66,1.05,.27,2.14,.21,3.09-.36,.7-.42,1.2-1.05,1.39-1.84,.2-.79,0-1.63-.42-2.32Z"/>
    <path class="cls-1" d="M8.1,23.8v-.02c.09-.02,.19-.01,.29,0,.63,.01,1.28,.26,1.8,.61,.28,.19,.54,.42,.79,.64,.22,.26,.41,.54,.57,.84,.08,.15,.14,.33,.24,.47-.1,.15-.21,.31-.29,.47-.06-.12-.09-.28-.15-.4,0-.02,0-.03-.01-.05-.23-.79-.91-1.6-1.63-2-.08-.07-.19-.11-.28-.16-.43-.21-.84-.34-1.31-.4Z"/>
    <path class="cls-8" d="M11.61,18.1c.29,.02,.55,.08,.82,.18,.22,.12,.49,.25,.67,.43,.41,.69,.62,1.52,.42,2.32-.2,.79-.7,1.43-1.39,1.84-.95,.56-2.03,.63-3.09,.36-.51-.13-1.25-.37-1.69-.66,0-.06-.01-.11-.01-.17-.08-1.1,.22-2.11,.96-2.95,.57-.65,1.43-1.16,2.3-1.29,.34-.05,.68-.04,1.02-.06Z"/>
    <path class="cls-4" d="M11.06,19.86c.21,.19,.36,.44,.37,.73,.01,.23-.08,.47-.24,.64-.18,.19-.44,.29-.7,.29-.26,0-.53-.08-.72-.26-.13-.13-.21-.28-.28-.46,.03,0,.02,0,.04,.02,.06,.06,.11,.12,.17,.17,.15,.12,.35,.13,.54,.12,.26-.02,.49-.13,.66-.33,.14-.17,.22-.41,.2-.63,0-.09-.04-.17-.05-.25,0,0,0-.02,0-.03Z"/>
    <path class="cls-5" d="M9.43,20.31s0-.03,0-.04c.05-.25,.23-.49,.45-.62,.19-.12,.38-.14,.6-.09,.22,.07,.4,.14,.57,.3,0,0,0,.02,0,.03,0,.09,.04,.17,.05,.25,.03,.22-.06,.46-.2,.63-.16,.2-.4,.31-.66,.33-.18,.02-.39,0-.54-.12-.06-.05-.12-.11-.17-.17-.02-.02-.01-.01-.04-.02-.07-.15-.07-.31-.07-.48Z"/>
    <path class="cls-3" d="M8.2,22.05c-.14-.43-.04-.94,.11-1.36,.23-.65,.75-1.27,1.38-1.57,.46-.21,1-.31,1.48-.14-.18,.22-.46,.39-.68,.58-.22-.05-.41-.03-.6,.09-.21,.13-.4,.37-.45,.62,0,.02,0,.02,0,.04-.01,.06,0,.13,0,.19-.34,.28-.62,.62-.86,.99-.12,.18-.22,.37-.35,.54v.02Z"/>
    <path class="cls-4" d="M29.59,24.61c.1-.1,.23-.19,.34-.27,.48-.34,1-.61,1.59-.72,.19-.04,.45-.01,.63-.09,.11,0,.22,0,.32,.02,.03,0,.06,0,.09,0,.03,0,.06,0,.09,0,.03,0,.06,0,.09,.01,.03,0,.06,0,.09,.01,.03,0,.06,.01,.09,.02,.03,0,.06,.01,.09,.02,.03,0,.06,.01,.09,.02,.03,0,.06,.01,.09,.02,.03,0,.06,.02,.09,.02,.03,0,.06,.02,.09,.03,.03,0,.06,.02,.09,.03,.03,.01,.06,.02,.09,.03,.03,.01,.06,.02,.09,.03,.03,.01,.06,.02,.08,.04s.06,.02,.08,.04c.03,.01,.06,.03,.08,.04,.03,.01,.05,.03,.08,.04,.03,.01,.05,.03,.08,.04,.03,.01,.05,.03,.08,.05,.03,.02,.05,.03,.08,.05,.03,.02,.05,.03,.08,.05,.03,.02,.05,.03,.08,.05,.03,.02,.05,.04,.07,.05,.02,.02,.05,.04,.07,.06,.02,.02,.05,.04,.07,.06,.02,.02,.05,.04,.07,.06,.02,.02,.05,.04,.07,.06,.02,.02,.05,.04,.07,.06,.02,.02,.04,.04,.07,.06,.02,.02,.04,.04,.06,.07,.02,.02,.04,.04,.06,.07,.02,.02,.04,.05,.06,.07,.32,.37,.56,.79,.72,1.24,.31,1.13,.3,2.23-.3,3.27-.19,.33-.42,.65-.71,.89-1.03,.88-1.82,1.18-3.18,1.17-.87,.84-1.92,1.25-3.13,1.22-1.17-.02-2.23-.55-3.03-1.39-.02-.02-.03-.03-.05-.05l-.02-.03-.31-.37c.12-.19,.22-.42,.29-.65,.05-.17,.13-.85,.2-.91,0,0,0-.01,0-.02,.03-.11,0-.27,0-.38-.07-.65-.27-1.31-.6-1.88,.04-.11,.1-.22,.15-.33,.06-.08,.12-.2,.17-.29,.14-.22,.3-.42,.47-.61,.16-.11,.36-.33,.54-.47,.93-.67,2.23-.81,3.34-.63Z"/>
    <path class="cls-1" d="M31.57,31.38c.1-.15,.23-.29,.34-.44,.23-.31,.4-.65,.54-1.01,.13-.36,.22-.76,.23-1.15,0-.4-.05-.81-.1-1.21-.02-.15-.05-.31-.06-.46,0-.03,0-.05,.02-.08,.04,.09,.08,.18,.11,.26,.03,.09,.06,.18,.09,.27,.03,.09,.05,.18,.07,.28,.02,.09,.04,.19,.05,.28,.07,.59,.03,1.16-.12,1.73-.25,.63-.49,1.04-.98,1.52-.06,.01-.14,.01-.2,.01Z"/>
    <path class="cls-5" d="M32.47,23.55s.06,0,.09,0c.03,0,.06,0,.09,0,.03,0,.06,0,.09,.01,.03,0,.06,0,.09,.01,.03,0,.06,.01,.09,.02,.03,0,.06,.01,.09,.02,.03,0,.06,.01,.09,.02,.03,0,.06,.01,.09,.02,.03,0,.06,.02,.09,.02,.03,0,.06,.02,.09,.03,.03,0,.06,.02,.09,.03,.03,.01,.06,.02,.09,.03,.03,.01,.06,.02,.09,.03,.03,.01,.06,.02,.08,.04s.06,.02,.08,.04c.03,.01,.06,.03,.08,.04,.03,.01,.05,.03,.08,.04,.03,.01,.05,.03,.08,.04,.03,.01,.05,.03,.08,.05,.03,.02,.05,.03,.08,.05,.03,.02,.05,.03,.08,.05,.03,.02,.05,.03,.08,.05,.03,.02,.05,.04,.07,.05,.02,.02,.05,.04,.07,.06,.02,.02,.05,.04,.07,.06,.02,.02,.05,.04,.07,.06,.02,.02,.05,.04,.07,.06,.02,.02,.05,.04,.07,.06,.02,.02,.04,.04,.07,.06,.02,.02,.04,.04,.06,.07,.02,.02,.04,.04,.06,.07,.02,.02,.04,.05,.06,.07,.32,.37,.56,.79,.72,1.24-.03,.03-.05,.06-.07,.09-.12,.29-.16,.67-.3,1.01-.01,.03-.03,.07-.04,.1-.01,.03-.03,.06-.04,.1-.01,.03-.03,.06-.05,.1-.02,.03-.03,.06-.05,.09-.02,.03-.03,.06-.05,.09-.02,.03-.03,.06-.05,.09-.02,.03-.04,.06-.05,.09-.02,.03-.04,.06-.06,.09-.02,.03-.04,.06-.06,.09-.02,.03-.04,.06-.06,.09-.02,.03-.04,.06-.06,.09-.02,.03-.04,.06-.06,.09-.02,.03-.04,.06-.06,.08-.02,.03-.04,.06-.07,.08-.02,.03-.05,.05-.07,.08-.02,.03-.05,.05-.07,.08-.02,.03-.05,.05-.07,.08-.02,.03-.05,.05-.07,.08-.02,.03-.05,.05-.07,.07-.03,.02-.05,.05-.08,.07-.03,.02-.05,.05-.08,.07-.03,.02-.05,.05-.08,.07-.03,.02-.05,.05-.08,.07-.03,.02-.05,.04-.08,.07-.03,.02-.06,.04-.08,.06-.03,.02-.06,.04-.09,.06-.03,.02-.06,.04-.09,.06s-.06,.04-.09,.06c-.03,.02-.06,.04-.09,.06-.03,.02-.06,.04-.09,.05-.03,.02-.06,.04-.09,.05s-.06,.03-.09,.05c-.14,.08-.27,.19-.43,.23,.15-.57,.19-1.14,.12-1.73,.35-.27,.65-.66,.82-1.07,.3-.7,.34-1.5,.05-2.21-.25-.62-.63-.96-1.23-1.21l-.03-.08Z"/>
    <path class="cls-8" d="M29.59,24.61c.1-.1,.23-.19,.34-.27,.48-.34,1-.61,1.59-.72,.19-.04,.45-.01,.63-.09,.11,0,.22,0,.32,.02l.03,.08c.61,.25,.98,.6,1.23,1.21,.29,.71,.25,1.5-.05,2.21-.18,.41-.47,.79-.82,1.07-.02-.09-.03-.19-.05-.28-.02-.09-.05-.19-.07-.28-.03-.09-.06-.18-.09-.27-.03-.09-.07-.18-.11-.26-.09-.35-.49-.83-.72-1.12-.3-.4-1.01-.92-1.5-1.04-.06,0-.17-.08-.23-.1-.16-.07-.32-.12-.49-.16Z"/>
    <path class="cls-5" d="M30.31,24.87c.49,.12,1.2,.63,1.5,1.04,0,0,0,.02,0,.02,.02,.11,.1,.25,.14,.37,.05,.14,.09,.28,.12,.43,.27,1.05,.02,2.02-.6,2.89-.75,1.04-1.98,1.8-3.25,2-.09,.01-.18,.02-.27,.03-.09,0-.18,.01-.27,.01-.09,0-.18,0-.27,0-.09,0-.18,0-.27-.02-.09,0-.18-.02-.27-.03-.09-.01-.18-.03-.26-.05s-.17-.04-.26-.07c-.09-.02-.17-.05-.25-.08-.25-.08-.47-.21-.73-.24l-.02-.03-.31-.37c.12-.19,.22-.42,.29-.65,.05-.17,.13-.85,.2-.91v.03c.61,.35,1.2,.59,1.91,.65,.94,.08,1.75-.18,2.46-.79,.69-.59,1.05-1.37,1.11-2.28,.05-.73-.22-1.41-.69-1.96Z"/>
    <path class="cls-1" d="M25.52,29.22v.03c-.01,.24,0,.5,0,.74,0,.39-.07,.78-.17,1.16l-.31-.37c.12-.19,.22-.42,.29-.65,.05-.17,.13-.85,.2-.91Z"/>
    <path class="cls-8" d="M25.72,25.71c.16-.11,.36-.33,.54-.47,.93-.67,2.23-.81,3.34-.63,.17,.04,.33,.09,.49,.16,.06,.03,.17,.1,.23,.1,.47,.54,.74,1.23,.69,1.96-.06,.91-.42,1.69-1.11,2.28-.71,.61-1.53,.87-2.46,.79-.7-.06-1.29-.3-1.9-.65v-.03s0-.01,0-.02c.03-.11,0-.27,0-.38-.07-.65-.27-1.31-.6-1.88,.04-.11,.1-.22,.15-.33,.06-.08,.12-.2,.17-.29,.14-.22,.3-.42,.47-.61Z"/>
    <path class="cls-4" d="M28.32,26.28c.21,.15,.38,.38,.42,.64,.04,.24-.01,.5-.16,.7-.15,.2-.39,.33-.63,.37-.23,.03-.47-.01-.66-.15-.15-.12-.27-.28-.34-.46,.04,.02,.08,.07,.12,.09,.19,.14,.42,.19,.65,.15,.23-.04,.43-.17,.56-.36,.12-.19,.19-.44,.13-.66-.02-.09-.07-.18-.09-.28,0-.01,0-.02,0-.03Z"/>
    <path class="cls-5" d="M26.87,26.75s0-.01,0-.02c.06-.24,.23-.46,.44-.58,.01,0,.02-.01,.04-.02,.01,0,.02-.01,.04-.02,.01,0,.03-.01,.04-.02,.01,0,.03,0,.04-.01,.01,0,.03,0,.04-.01,.01,0,.03,0,.04,0,.01,0,.03,0,.04,0,.01,0,.03,0,.04,0,.01,0,.03,0,.04,0,.01,0,.03,0,.04,0,.01,0,.03,0,.04,0,.01,0,.03,0,.04,0,.01,0,.03,0,.04,0,.01,0,.03,0,.04,0,.01,0,.03,0,.04,0,.01,0,.03,0,.04,.01,.13,.04,.27,.12,.38,.21,0,.01,0,.02,0,.03,.02,.1,.06,.19,.09,.28,.06,.22-.01,.48-.13,.66-.13,.19-.33,.32-.56,.36-.23,.04-.47,0-.65-.15-.04-.03-.08-.07-.12-.09-.1-.18-.08-.42-.09-.63Z"/>
    <path class="cls-3" d="M26.87,26.75s0,.01,0,.02c0,0-.96,.95-1.04,1.01-.04,.03-.07,.06-.12,.07-.05-.01-.08-.03-.1-.08-.11-.24,.08-.82,.18-1.05,.25-.61,.79-1.1,1.39-1.36,.27-.12,.99-.36,1.28-.23,.04,.02,.08,.05,.09,.1,.05,.19-.47,.65-.59,.85-.01,0-.03,0-.04-.01-.01,0-.03,0-.04,0-.01,0-.03,0-.04,0-.01,0-.03,0-.04,0-.01,0-.03,0-.04,0-.01,0-.03,0-.04,0-.01,0-.03,0-.04,0-.01,0-.03,0-.04,0-.01,0-.03,0-.04,0-.01,0-.03,0-.04,0-.01,0-.03,0-.04,0-.01,0-.03,0-.04,.01-.01,0-.03,0-.04,.01-.01,0-.03,0-.04,.02-.01,0-.02,.01-.04,.02-.01,0-.02,.01-.04,.02-.21,.12-.38,.34-.44,.58,0,0,0,.01,0,.02Z"/>
    <path class="cls-5" d="M29.08,17.28c.54,.05,1.1,.16,1.59,.39,.55,.27,1.05,.64,1.41,1.15,.06,.08,.13,.18,.18,.27,.57,.89,.73,1.96,.51,2.99-.11,.51-.33,1.01-.62,1.45-.18,.07-.44,.05-.63,.09-.58,.11-1.11,.38-1.59,.72-.11,.08-.24,.17-.34,.27-1.1-.18-2.41-.04-3.34,.63-.19,.13-.38,.36-.54,.47-.18,.19-.33,.39-.47,.61-.06,.09-.11,.21-.17,.29-.05,.11-.11,.22-.15,.33,.34,.57,.53,1.23,.6,1.88,.01,.11,.03,.27,0,.38,0,0,0,.01,0,.02-.07,.07-.15,.75-.2,.91-.06,.22-.16,.45-.29,.65-.14,.19-.25,.4-.41,.59-.02,.02-.04,.05-.06,.07-.02,.02-.04,.05-.06,.07-.02,.02-.04,.05-.06,.07-.02,.02-.04,.04-.06,.07-.02,.02-.04,.04-.07,.06-.02,.02-.04,.04-.07,.06-.02,.02-.05,.04-.07,.06s-.05,.04-.07,.06c-.02,.02-.05,.04-.07,.06-.02,.02-.05,.04-.07,.06-.02,.02-.05,.04-.07,.05-.02,.02-.05,.04-.08,.05-.03,.02-.05,.03-.08,.05-.03,.02-.05,.03-.08,.05-.03,.02-.05,.03-.08,.05-.03,.02-.05,.03-.08,.05-.03,.02-.05,.03-.08,.04-.03,.01-.05,.03-.08,.04-.03,.01-.06,.03-.08,.04-.03,.01-.06,.03-.08,.04-.03,.01-.06,.02-.08,.04-.03,.01-.06,.02-.09,.03-.03,.01-.06,.02-.09,.03-.03,.01-.06,.02-.09,.03-.03,0-.06,.02-.09,.03-.03,0-.06,.02-.09,.03-.03,0-.06,.02-.09,.02-.03,0-.06,.02-.09,.02-.03,0-.06,.01-.09,.02-.03,0-.06,.01-.09,.02-.03,0-.06,.01-.09,.02s-.06,.01-.09,.01c-.03,0-.07,0-.1,.01-.03,0-.07,0-.1,.01-.03,0-.07,0-.1,0-.03,0-.07,0-.1,0-.03,0-.07,0-.1,0-.03,0-.07,0-.1,0-.03,0-.07,0-.1,0-.03,0-.07,0-.1,0-.03,0-.07,0-.1,0-.03,0-.07,0-.1,0-.03,0-.07,0-.1-.01-.03,0-.07,0-.1-.01-.03,0-.07-.01-.1-.02-.03,0-.07-.01-.1-.02-.03,0-.07-.01-.1-.02-.03,0-.06-.01-.1-.02-.03,0-.06-.02-.1-.03s-.06-.02-.1-.03c-.03,0-.06-.02-.09-.03-.03-.01-.06-.02-.09-.03-.03-.01-.06-.02-.09-.03-.03-.01-.06-.02-.09-.04-.03-.01-.06-.03-.09-.04-.03-.01-.06-.03-.09-.04s-.06-.03-.09-.04c-.03-.01-.06-.03-.09-.05-.03-.02-.06-.03-.09-.05-.03-.02-.06-.03-.09-.05-.03-.02-.06-.03-.08-.05-.03-.02-.06-.04-.08-.05-.03-.02-.06-.04-.08-.06-.03-.02-.05-.04-.08-.06-.12-.09-.25-.19-.36-.3-.22-.14-.44-.45-.6-.66-.69,.86-1.56,1.38-2.67,1.5-.03,0-.06,0-.1,0-.03,0-.06,0-.1,0-.03,0-.06,0-.1,0-.03,0-.06,0-.1,0-.03,0-.06,0-.1,0-.03,0-.06,0-.1,0-.03,0-.06,0-.1,0-.03,0-.06,0-.1,0-.03,0-.06,0-.1,0-.03,0-.06,0-.1-.01-.03,0-.06,0-.09-.01-.03,0-.06-.01-.09-.02-.03,0-.06-.01-.09-.02-.03,0-.06-.01-.09-.02-.03,0-.06-.01-.09-.02-.03,0-.06-.02-.09-.03-.03,0-.06-.02-.09-.03-.03,0-.06-.02-.09-.03-.03-.01-.06-.02-.09-.03-.03-.01-.06-.02-.09-.03-.03-.01-.06-.02-.09-.04-.03-.01-.06-.03-.09-.04-.03-.01-.06-.03-.09-.04-.03-.01-.06-.03-.09-.04-.03-.01-.06-.03-.08-.04-.03-.02-.06-.03-.08-.05-.03-.02-.06-.03-.08-.05-.03-.02-.05-.03-.08-.05-.03-.02-.05-.04-.08-.05-.03-.02-.05-.04-.08-.05-.03-.02-.05-.04-.08-.06s-.05-.04-.08-.06c-.12-.09-.23-.19-.34-.3-.43-.38-.69-.9-.93-1.42-.05-.32-.21-.62-.21-.95-.03-.52-.05-1.08,.11-1.58,.05-.24,.16-.46,.25-.68,.08-.17,.19-.32,.29-.47,.03-.05,.07-.09,.11-.14,.04-.05,.07-.09,.11-.14,.04-.04,.08-.09,.12-.13,.04-.04,.08-.08,.12-.12,.04-.04,.09-.08,.13-.12s.09-.08,.13-.11c.05-.04,.09-.07,.14-.11,.05-.03,.1-.07,.14-.1,.05-.03,.1-.06,.15-.09,.05-.03,.1-.06,.15-.09,.05-.03,.1-.05,.16-.08,.05-.03,.11-.05,.16-.07,.05-.02,.11-.04,.16-.07,.05-.02,.11-.04,.17-.06,.06-.02,.11-.03,.17-.05,.06-.02,.11-.03,.17-.04,.21-.05,.44-.04,.65-.08h.02s-.02-.02-.02-.02c0-.06,.11-.2,.15-.25-.06-.19-.2-.38-.3-.55-.09-.16-.16-.32-.23-.49,.06-.06,.15-.07,.22-.13-.1-.35-.29-.67-.3-1.05-.01-.01-.02-.02-.03-.03-.13-.24-.02-1.16,.03-1.42,.04-.22,.1-.43,.17-.64,.07-.16,.15-.31,.23-.47,.28-.5,.69-.97,1.15-1.31,.69-.52,1.67-.81,2.53-.69,.16-.07,.74,.14,.92,.21,.83,.32,1.48,.88,1.84,1.7,.04,.1,.08,.21,.12,.32,.03,.11,.06,.22,.08,.33,.12-.13,.26-.25,.39-.38,.08-.06,.15-.11,.23-.17,.95-.68,2.07-.85,3.21-.67l.05,.02c.15,0,.32,.04,.46,.09,.13-.18,.24-.35,.38-.52,.06-.05,.12-.12,.17-.17,.13-.13,.27-.25,.41-.36,.27-.17,.53-.34,.81-.48,.26-.1,.53-.16,.78-.27,.26-.08,.6-.05,.87-.04Z"/>
    <path class="cls-4" d="M17.92,26.21c.13,.09,.21,.23,.33,.33l-.07,.11c-.1-.12-.2-.29-.25-.44Z"/>
    <path class="cls-4" d="M12.26,31.44c.23,.03,.48,.15,.7,.22,.63,.19,1.33,.17,1.96,0,1.14-.31,2-1.06,2.58-2.08,.06,.19,.1,.39,.17,.58,.12,.32,.29,.61,.46,.91-.69,.86-1.56,1.38-2.67,1.5-.03,0-.06,0-.1,0-.03,0-.06,0-.1,0-.03,0-.06,0-.1,0-.03,0-.06,0-.1,0-.03,0-.06,0-.1,0-.03,0-.06,0-.1,0-.03,0-.06,0-.1,0-.03,0-.06,0-.1,0-.03,0-.06,0-.1,0-.03,0-.06,0-.1-.01-.03,0-.06,0-.09-.01-.03,0-.06-.01-.09-.02-.03,0-.06-.01-.09-.02-.03,0-.06-.01-.09-.02-.03,0-.06-.01-.09-.02-.03,0-.06-.02-.09-.03-.03,0-.06-.02-.09-.03-.03,0-.06-.02-.09-.03-.03-.01-.06-.02-.09-.03-.03-.01-.06-.02-.09-.03-.03-.01-.06-.02-.09-.04-.03-.01-.06-.03-.09-.04-.03-.01-.06-.03-.09-.04-.03-.01-.06-.03-.09-.04-.03-.01-.06-.03-.08-.04-.03-.02-.06-.03-.08-.05-.03-.02-.06-.03-.08-.05-.03-.02-.05-.03-.08-.05-.03-.02-.05-.04-.08-.05-.03-.02-.05-.04-.08-.05-.03-.02-.05-.04-.08-.06s-.05-.04-.08-.06c-.12-.09-.23-.19-.34-.3Z"/>
    <path class="cls-4" d="M14.57,23.29c.16,.32,.34,.61,.56,.9l.12,.13s.02,0,.02,0c.11,0,.24,.03,.34,.05,.2,.03,.4,.06,.6,.07,1.22,.06,2.28-.02,3.39-.59,.25-.13,.53-.27,.72-.48,.01-.01,.03-.03,.04-.05,.2,.63,.56,1.1,.94,1.64l-.29,.02c-.26,.04-.53,.08-.79,.15-.8,.23-1.49,.76-1.99,1.42-.12-.1-.2-.24-.33-.33-.53-.64-1.05-1.01-1.82-1.31-.17-.04-.32-.12-.49-.14-.29-.03-.57-.05-.86-.04h-.02c0-.07,.11-.21,.15-.26-.06-.19-.2-.38-.3-.55-.09-.16-.16-.32-.23-.49,.06-.06,.15-.07,.22-.13Z"/>
    <path class="cls-1" d="M14.57,23.29c.16,.32,.34,.61,.56,.9l.12,.13c.08,.12,.22,.36,.36,.42l.02-.03s-.05-.06-.08-.1h0s.02,0,.02,0c.21,.14,.48,.22,.71,.32,.28,.12,.56,.25,.86,.33,.55,.15,1.31,.07,1.87-.05,.08-.02,.15-.04,.23-.06,.08-.02,.15-.04,.22-.07,.07-.02,.15-.05,.22-.08,.07-.03,.14-.06,.22-.09,.07-.03,.14-.07,.21-.1,.07-.04,.14-.07,.2-.11,.07-.04,.13-.08,.2-.12,.06-.04,.13-.09,.19-.13,.1,.19,.18,.37,.32,.54-.26,.04-.53,.08-.79,.15-.8,.23-1.49,.76-1.99,1.42-.12-.1-.2-.24-.33-.33-.53-.64-1.05-1.01-1.82-1.31-.17-.04-.32-.12-.49-.14-.29-.03-.57-.05-.86-.04h-.02c0-.07,.11-.21,.15-.26-.06-.19-.2-.38-.3-.55-.09-.16-.16-.32-.23-.49,.06-.06,.15-.07,.22-.13Z"/>
    <path class="cls-4" d="M24.18,26.13c.18,.08,.25,.28,.41,.38,.11,.13,.25,.27,.34,.42,.34,.57,.53,1.23,.6,1.88,.01,.11,.03,.27,0,.38,0,0,0,.01,0,.02-.07,.07-.15,.75-.2,.91-.06,.22-.16,.45-.29,.65-.14,.19-.25,.4-.41,.59-.02,.02-.04,.05-.06,.07-.02,.02-.04,.05-.06,.07-.02,.02-.04,.05-.06,.07-.02,.02-.04,.04-.06,.07-.02,.02-.04,.04-.07,.06-.02,.02-.04,.04-.07,.06-.02,.02-.05,.04-.07,.06s-.05,.04-.07,.06c-.02,.02-.05,.04-.07,.06-.02,.02-.05,.04-.07,.06-.02,.02-.05,.04-.07,.05-.02,.02-.05,.04-.08,.05-.03,.02-.05,.03-.08,.05-.03,.02-.05,.03-.08,.05-.03,.02-.05,.03-.08,.05-.03,.02-.05,.03-.08,.05-.03,.02-.05,.03-.08,.04-.03,.01-.05,.03-.08,.04-.03,.01-.06,.03-.08,.04-.03,.01-.06,.03-.08,.04-.03,.01-.06,.02-.08,.04-.03,.01-.06,.02-.09,.03-.03,.01-.06,.02-.09,.03-.03,.01-.06,.02-.09,.03-.03,0-.06,.02-.09,.03-.03,0-.06,.02-.09,.03-.03,0-.06,.02-.09,.02-.03,0-.06,.02-.09,.02-.03,0-.06,.01-.09,.02-.03,0-.06,.01-.09,.02-.03,0-.06,.01-.09,.02s-.06,.01-.09,.01c-.03,0-.07,0-.1,.01-.03,0-.07,0-.1,.01-.03,0-.07,0-.1,0-.03,0-.07,0-.1,0-.03,0-.07,0-.1,0-.03,0-.07,0-.1,0-.03,0-.07,0-.1,0-.03,0-.07,0-.1,0-.03,0-.07,0-.1,0-.03,0-.07,0-.1,0-.03,0-.07,0-.1-.01-.03,0-.07,0-.1-.01-.03,0-.07-.01-.1-.02-.03,0-.07-.01-.1-.02-.03,0-.07-.01-.1-.02-.03,0-.06-.01-.1-.02-.03,0-.06-.02-.1-.03s-.06-.02-.1-.03c-.03,0-.06-.02-.09-.03-.03-.01-.06-.02-.09-.03-.03-.01-.06-.02-.09-.03-.03-.01-.06-.02-.09-.04-.03-.01-.06-.03-.09-.04-.03-.01-.06-.03-.09-.04s-.06-.03-.09-.04c-.03-.01-.06-.03-.09-.05-.03-.02-.06-.03-.09-.05-.03-.02-.06-.03-.09-.05-.03-.02-.06-.03-.08-.05-.03-.02-.06-.04-.08-.05-.03-.02-.06-.04-.08-.06-.03-.02-.05-.04-.08-.06-.12-.09-.25-.19-.36-.3,.26,.08,.53,.16,.8,.21,.81,.15,1.69,.03,2.45-.29,1.03-.43,1.92-1.26,2.34-2.3,.44-1.08,.29-2.16-.15-3.21Z"/>
    <path class="cls-8" d="M21.71,19.85c.08-.06,.15-.11,.23-.17,.95-.68,2.07-.85,3.21-.67l.05,.02c.16,.15,.34,.28,.49,.43,.4,.4,.66,.92,.7,1.49,.04,.69-.27,1.32-.72,1.82-.67,.74-1.66,1.14-2.64,1.19-.68,.03-1.49-.13-2-.61-.3-.28-.59-.76-.61-1.17-.02-.51,.35-1.22,.65-1.62,.08-.11,.2-.21,.26-.32,.12-.13,.26-.25,.39-.38Z"/>
    <path class="cls-4" d="M23.55,20.19c.26,.07,.49,.23,.63,.47,.14,.23,.2,.51,.12,.77-.06,.23-.23,.44-.44,.55-.24,.13-.54,.13-.8,.05-.24-.08-.44-.23-.55-.46-.04-.07-.06-.14-.08-.21,.08,.05,.18,.23,.35,.33,.16,.09,.35,.08,.52,.03,.24-.07,.44-.25,.55-.47,.1-.2,.13-.44,.06-.65-.07-.19-.18-.3-.36-.38v-.02Z"/>
    <path class="cls-5" d="M22.4,20.98c.01-.22,.13-.45,.29-.6,.2-.17,.45-.23,.71-.21,.05,0,.11,0,.15,.02v.02c.18,.09,.29,.19,.36,.38,.07,.21,.05,.45-.06,.65-.11,.22-.31,.4-.55,.47-.17,.05-.36,.06-.52-.03-.18-.1-.27-.28-.35-.33-.05-.11-.03-.25-.03-.37Z"/>
    <path class="cls-3" d="M22.38,21.19c-.18,.16-1.03,.99-1.19,1.03-.06,.01-.09,0-.14-.03-.06-.12-.02-.29,0-.42,.17-.78,.73-1.46,1.39-1.88,.31-.2,1.21-.47,1.57-.37,.05,.01,.07,.03,.09,.07,0,.07-.03,.11-.07,.16-.1,.11-.49,.41-.63,.42,0,0-.01,0-.02,0-.25-.02-.51,.04-.71,.21-.17,.15-.28,.38-.29,.6-.02,.07-.01,.14-.01,.21Z"/>
    <path class="cls-8" d="M14.75,24.72c.29-.01,.57,.01,.86,.04,.17,.02,.32,.1,.49,.14h0c.09,.14,.19,.26,.28,.39,.5,.69,.77,1.21,.61,2.09-.16,.86-.7,1.58-1.42,2.07-.79,.53-1.79,.75-2.73,.56-.62-.12-1.31-.45-1.73-.95-.03-.52-.05-1.08,.11-1.58,.05-.24,.16-.46,.25-.68,.08-.17,.19-.32,.29-.47,.03-.05,.07-.09,.11-.14,.04-.05,.07-.09,.11-.14,.04-.04,.08-.09,.12-.13,.04-.04,.08-.08,.12-.12,.04-.04,.09-.08,.13-.12s.09-.08,.13-.11c.05-.04,.09-.07,.14-.11,.05-.03,.1-.07,.14-.1,.05-.03,.1-.06,.15-.09,.05-.03,.1-.06,.15-.09,.05-.03,.1-.05,.16-.08,.05-.03,.11-.05,.16-.07,.05-.02,.11-.04,.16-.07,.05-.02,.11-.04,.17-.06,.06-.02,.11-.03,.17-.05,.06-.02,.11-.03,.17-.04,.21-.05,.44-.04,.65-.08h.02Z"/>
    <path class="cls-4" d="M14.33,26.21c.26,.16,.47,.37,.54,.68,0,.02,0,.03,0,.05,0,.02,0,.03,0,.05,0,.02,0,.03,0,.05,0,.02,0,.03,0,.05,0,.02,0,.03,0,.05,0,.02,0,.03,0,.05,0,.02,0,.03,0,.05,0,.02,0,.03,0,.05,0,.02,0,.03,0,.05,0,.02,0,.03-.01,.05,0,.02,0,.03-.01,.05,0,.01-.01,.03-.02,.04,0,.01-.01,.03-.02,.04,0,.01-.01,.03-.02,.04,0,.01-.01,.03-.02,.04,0,.01-.02,.03-.02,.04-.13,.21-.34,.36-.59,.41-.25,.05-.53-.02-.73-.17-.14-.1-.26-.25-.34-.41,.04,.01,.02,0,.05,.03,.09,.09,.23,.21,.36,.23,.23,.04,.5-.02,.69-.15,.2-.14,.34-.35,.37-.6,.04-.29-.07-.52-.24-.75Z"/>
    <path class="cls-5" d="M12.98,27.08c0-.08,0-.17,0-.25,0-.02,0-.03,0-.05,0-.02,0-.03,.01-.04,0-.01,0-.03,.01-.04,0-.01,0-.03,.02-.04,0-.01,.01-.03,.02-.04,0-.01,.01-.03,.02-.04,0-.01,.01-.03,.02-.04,0-.01,.02-.03,.02-.04s.02-.03,.03-.04c0-.01,.02-.02,.03-.04,0-.01,.02-.02,.03-.04,.01-.01,.02-.02,.03-.03,.01-.01,.02-.02,.03-.03,.01-.01,.02-.02,.03-.03,.01,0,.02-.02,.04-.03,.01,0,.02-.02,.04-.03,.21-.14,.44-.18,.68-.14,.07,.02,.23,.06,.27,.12,.17,.23,.28,.46,.24,.75-.03,.25-.17,.46-.37,.6-.19,.14-.46,.19-.69,.15-.13-.02-.27-.14-.36-.23-.03-.03-.01-.02-.05-.03-.07-.12-.09-.24-.11-.37Z"/>
    <path class="cls-3" d="M11.82,28.12c-.03-.23-.01-.45,.04-.67,.15-.73,.59-1.35,1.22-1.76,.45-.29,1.14-.58,1.69-.44,.06,.02,.13,.05,.16,.11-.03,.09-.75,.61-.88,.72-.24-.04-.47,0-.68,.14-.01,0-.03,.02-.04,.03-.01,0-.02,.02-.04,.03-.01,0-.02,.02-.03,.03-.01,.01-.02,.02-.03,.03-.01,.01-.02,.02-.03,.03-.01,.01-.02,.02-.03,.04,0,.01-.02,.02-.03,.04,0,.01-.02,.03-.03,.04s-.02,.03-.02,.04c0,.01-.01,.03-.02,.04,0,.01-.01,.03-.02,.04,0,.01-.01,.03-.02,.04,0,.01-.01,.03-.02,.04,0,.01,0,.03-.01,.04,0,.01,0,.03-.01,.04,0,.02,0,.03,0,.05-.01,.08-.02,.17,0,.25-.35,.16-.88,.74-1.16,1.05Z"/>
    <path class="cls-8" d="M14.68,19.68c.28-.5,.69-.97,1.15-1.31,.69-.52,1.67-.81,2.53-.69,.65,.22,1.23,.59,1.54,1.23,.28,.57,.31,1.33,.1,1.93-.3,.87-1.03,1.56-1.85,1.95-.03,.01-.05,.02-.08,.04s-.05,.02-.08,.03c-.03,.01-.05,.02-.08,.03-.03,.01-.05,.02-.08,.03s-.05,.02-.08,.03-.05,.02-.08,.03c-.03,0-.05,.02-.08,.02-.03,0-.05,.01-.08,.02-.03,0-.05,.01-.08,.02-.03,0-.05,.01-.08,.02-.03,0-.05,.01-.08,.02-.03,0-.05,0-.08,.01-.03,0-.06,0-.08,.01-.03,0-.06,0-.08,0-.03,0-.06,0-.08,0-.03,0-.06,0-.08,0-.03,0-.06,0-.08,0-.03,0-.06,0-.08,0-.03,0-.06,0-.08,0-.03,0-.06,0-.08,0-.03,0-.06,0-.08,0-.03,0-.06,0-.08,0-.03,0-.06,0-.08,0-.03,0-.06,0-.08-.01-.03,0-.06,0-.08-.01-.03,0-.05-.01-.08-.02-.03,0-.05-.01-.08-.02-.03,0-.05-.01-.08-.02-.03,0-.05-.01-.08-.02-.03,0-.05-.02-.08-.02-.03,0-.05-.02-.08-.03s-.05-.02-.08-.03c-.45-.16-.86-.43-1.26-.68-.01-.01-.02-.02-.03-.03-.13-.24-.02-1.16,.03-1.42,.04-.22,.1-.43,.17-.64,.07-.16,.15-.31,.23-.47Z"/>
    <path class="cls-4" d="M17.34,19.16c.25,.08,.45,.24,.56,.48,0,.01,.01,.03,.02,.04,0,.01,.01,.03,.02,.04,0,.01,.01,.03,.02,.04,0,.01,0,.03,.01,.04,0,.01,0,.03,.01,.05,0,.02,0,.03,0,.05,0,.02,0,.03,0,.05,0,.02,0,.03,0,.05,0,.02,0,.03,0,.05,0,.02,0,.03,0,.05,0,.02,0,.03,0,.05,0,.02,0,.03,0,.05,0,.02,0,.03,0,.05,0,.02,0,.03-.01,.05,0,.02,0,.03-.01,.04,0,.01,0,.03-.01,.04-.08,.24-.25,.43-.48,.53-.24,.11-.53,.11-.78,.02-.21-.08-.36-.22-.47-.41,.12,.08,.26,.16,.41,.19,.23,.04,.45-.04,.64-.17,.2-.14,.34-.34,.38-.58,.05-.34-.12-.51-.3-.75v-.02Z"/>
    <path class="cls-5" d="M16.06,19.95c.01-.22,.06-.42,.2-.58,.19-.22,.45-.28,.73-.3,.11,.02,.25,.03,.35,.09v.02c.2,.24,.37,.41,.31,.75-.04,.24-.18,.45-.38,.58-.19,.13-.41,.21-.64,.17-.15-.02-.29-.1-.41-.19,0,0,0,0-.01,0-.11-.12-.15-.38-.16-.54Z"/>
    <path class="cls-3" d="M15.07,21.56c-.15-.6-.08-1.19,.15-1.77,.24-.61,.67-1.09,1.27-1.35,.47-.2,.84-.16,1.31,.02-.22,.21-.51,.5-.8,.61-.28,.02-.53,.08-.73,.3-.15,.17-.19,.37-.2,.58-.37,.42-.8,1.09-.99,1.61Z"/>
    <path class="cls-8" d="M21.31,24.95c.33,0,1.17,.02,1.4,.27,.1,.11,.18,.24,.26,.36,.33,.52,.54,1.1,.51,1.72-.04,.87-.41,1.65-1.06,2.23-.66,.59-1.58,.96-2.48,.9-.83-.05-1.68-.45-2.23-1.08-.09-.1-.16-.21-.23-.32-.01-.98,.19-1.55,.69-2.37l.07-.11c.5-.66,1.19-1.19,1.99-1.42,.26-.07,.53-.11,.79-.15l.29-.02Z"/>
    <path class="cls-4" d="M20.61,26.68c.23,.1,.42,.25,.51,.5,.09,.23,.07,.49-.04,.71-.1,.21-.29,.36-.51,.44-.25,.09-.53,.08-.77-.05-.21-.11-.36-.28-.47-.49v-.03s.01-.02,.01-.02c.07,.01,.28,.24,.51,.29,.21,.04,.41,0,.59-.11,.19-.13,.33-.32,.36-.55,.04-.27-.04-.48-.2-.69Z"/>
    <path class="cls-5" d="M20.13,26.49c.18,.01,.34,.09,.48,.19,.16,.21,.24,.42,.2,.69-.04,.22-.17,.42-.36,.55-.18,.12-.38,.16-.59,.11-.23-.05-.43-.27-.51-.29l-.02,.02c-.05-.09-.07-.19-.09-.3,0-.01,0-.03,0-.04,0-.01,0-.03,0-.04,0-.01,0-.03,0-.04,0-.01,0-.03,0-.04,0-.01,0-.03,0-.04s0-.03,0-.04c0-.01,0-.03,0-.04,0-.01,0-.03,.01-.04,0-.01,0-.03,.01-.04,0-.01,0-.03,.02-.04,0-.01,.01-.03,.02-.04,0-.01,.01-.03,.02-.04,0-.01,.01-.03,.02-.04s.02-.02,.02-.04c0-.01,.02-.02,.02-.04,0-.01,.02-.02,.03-.03,.19-.22,.42-.3,.7-.33Z"/>
    <path class="cls-3" d="M18.15,29.04s-.01-.07-.02-.11c0-.04-.01-.07-.02-.11,0-.04,0-.07-.01-.11,0-.04,0-.07,0-.11,0-.04,0-.07,0-.11,0-.04,0-.07,0-.11,0-.04,0-.07,0-.11,0-.04,0-.07,.01-.11s.01-.07,.02-.11c0-.04,.01-.07,.02-.11s.02-.07,.03-.11c0-.04,.02-.07,.03-.11,.01-.04,.02-.07,.04-.11,.01-.03,.03-.07,.04-.1,.01-.03,.03-.07,.04-.1,.02-.03,.03-.07,.05-.1,.38-.74,1.1-1.37,1.9-1.61,.12-.04,.3-.08,.41-.01,.06,.04,.08,.08,.09,.15-.04,.2-.49,.5-.65,.66-.28,.03-.51,.11-.7,.33,0,.01-.02,.02-.03,.03,0,.01-.02,.02-.02,.04,0,.01-.02,.02-.02,.04s-.01,.02-.02,.04c0,.01-.01,.03-.02,.04,0,.01-.01,.03-.02,.04,0,.01-.01,.03-.02,.04,0,.01,0,.03-.01,.04,0,.01,0,.03-.01,.04,0,.01,0,.03,0,.04,0,.01,0,.03,0,.04s0,.03,0,.04c0,.01,0,.03,0,.04,0,.01,0,.03,0,.04,0,.01,0,.03,0,.04,0,.01,0,.03,0,.04,.01,.11,.04,.2,.09,.3v.03s0,.02-.03,.03c-.3,.22-.57,.45-.8,.75-.12,.15-.22,.33-.35,.47Z"/>
    <path class="cls-4" d="M29.08,17.28c.54,.05,1.1,.16,1.59,.39,.55,.27,1.05,.64,1.41,1.15,.06,.08,.13,.18,.18,.27,.57,.89,.73,1.96,.51,2.99-.11,.51-.33,1.01-.62,1.45-.18,.07-.44,.05-.63,.09-.58,.11-1.11,.38-1.59,.72-.11,.08-.24,.17-.34,.27-1.1-.18-2.41-.04-3.34,.63-.19,.13-.38,.36-.54,.47-.18,.19-.33,.39-.47,.61-.06,.09-.11,.21-.17,.29-.05,.11-.11,.22-.15,.33-.09-.15-.23-.29-.34-.42-.15-.1-.23-.3-.41-.38-.15-.2-.4-.41-.61-.55-.07-.04-.14-.08-.21-.12,.45-.03,.96-.12,1.38-.28,1.06-.41,2-1.17,2.46-2.23,.43-.99,.3-1.81-.17-2.76-.07-.15-.29-.38-.32-.49,0,0,0-.01,0-.02-.09-.07-.2-.13-.3-.18-.25-.13-.51-.23-.75-.37,.13-.18,.24-.35,.38-.52,.06-.05,.12-.12,.17-.17,.13-.13,.27-.25,.41-.36,.27-.17,.53-.34,.81-.48,.26-.1,.53-.16,.78-.27,.26-.08,.6-.05,.87-.04Z"/>
    <path class="cls-1" d="M23.57,25.58s.02,0,.03,0c.11,.02,.22,.07,.33,.09,.29,.06,.62,.07,.91,.08,.22,0,.72-.07,.87-.05-.18,.19-.33,.39-.47,.61-.06,.09-.11,.21-.17,.29-.05,.11-.11,.22-.15,.33-.09-.15-.23-.29-.34-.42-.15-.1-.23-.3-.41-.38-.15-.2-.4-.41-.61-.55Z"/>
    <path class="cls-5" d="M30.68,17.68c.55,.27,1.05,.64,1.41,1.15,.06,.08,.13,.18,.18,.27,0,0,0,.01-.01,.02-.02,.03-.07,.91-.1,1.05-.32,1.76-1.77,3.2-3.47,3.7-.08,.02-.17,.05-.26,.05-.03-.09,.06-.3,.08-.41,.03-.18,.06-.67,0-.82h.02c.11-.01,.23-.08,.34-.14,.07-.04,.15-.08,.22-.12,.07-.04,.14-.09,.21-.13,.07-.05,.14-.09,.2-.14,.07-.05,.13-.1,.2-.16,.06-.05,.13-.11,.19-.17,.06-.06,.12-.12,.18-.18,.06-.06,.11-.12,.16-.19,.05-.06,.1-.13,.15-.2,.02-.02,.03-.05,.05-.07,.02-.02,.03-.05,.05-.07,.02-.02,.03-.05,.05-.07,.02-.02,.03-.05,.05-.07,.01-.03,.03-.05,.04-.08,.01-.03,.03-.05,.04-.08,.01-.03,.03-.05,.04-.08,.01-.03,.02-.05,.04-.08,.01-.03,.02-.05,.03-.08,.01-.03,.02-.05,.03-.08,.01-.03,.02-.05,.03-.08,0-.03,.02-.06,.03-.08,0-.03,.02-.06,.03-.08,0-.03,.02-.06,.02-.08,0-.03,.01-.06,.02-.08,0-.03,.01-.06,.02-.09,0-.03,.01-.06,.02-.09,0-.03,.01-.06,.01-.09,0-.03,0-.06,.01-.09,0-.03,0-.06,0-.09,0-.03,0-.06,0-.09,0-.03,0-.06,0-.09,0-.03,0-.06,0-.09,0-.03,0-.06,0-.09,0-.03,0-.06,0-.09,0-.03,0-.06,0-.09,0-.03,0-.06,0-.09,0-.03,0-.06,0-.09,0-.03,0-.06-.01-.09,0-.03,0-.06-.01-.09,0-.03-.01-.06-.02-.09,0-.03-.01-.06-.02-.09-.07-.3-.21-.6-.26-.91,0,0,0-.01,0-.02Z"/>
    <path class="cls-8" d="M29.08,17.28c.54,.05,1.1,.16,1.59,.39,0,0,0,.01,0,.02,.05,.3,.19,.61,.26,.91,0,.03,.01,.06,.02,.09,0,.03,.01,.06,.02,.09,0,.03,0,.06,.01,.09,0,.03,0,.06,.01,.09,0,.03,0,.06,0,.09,0,.03,0,.06,0,.09,0,.03,0,.06,0,.09,0,.03,0,.06,0,.09,0,.03,0,.06,0,.09,0,.03,0,.06,0,.09,0,.03,0,.06,0,.09,0,.03,0,.06,0,.09,0,.03,0,.06,0,.09,0,.03,0,.06-.01,.09,0,.03,0,.06-.01,.09,0,.03-.01,.06-.02,.09,0,.03-.01,.06-.02,.09,0,.03-.01,.06-.02,.08,0,.03-.02,.06-.02,.08,0,.03-.02,.06-.03,.08,0,.03-.02,.06-.03,.08,0,.03-.02,.05-.03,.08-.01,.03-.02,.05-.03,.08-.01,.03-.02,.05-.03,.08-.01,.03-.02,.05-.04,.08-.01,.03-.03,.05-.04,.08-.01,.03-.03,.05-.04,.08-.01,.03-.03,.05-.04,.08-.01,.03-.03,.05-.05,.07-.02,.02-.03,.05-.05,.07-.02,.02-.03,.05-.05,.07-.02,.02-.03,.05-.05,.07-.05,.07-.1,.13-.15,.2-.05,.06-.11,.13-.16,.19-.06,.06-.11,.12-.18,.18-.06,.06-.12,.11-.19,.17-.06,.05-.13,.11-.2,.16-.07,.05-.13,.1-.2,.14-.07,.05-.14,.09-.21,.13-.07,.04-.15,.08-.22,.12-.1,.05-.22,.13-.34,.15h-.02s0-.05,0-.07c-.09-1.12-.78-2.15-1.62-2.86l-.18-.08c-.09-.07-.2-.13-.3-.18-.25-.13-.51-.23-.75-.37,.13-.18,.24-.35,.38-.52,.06-.05,.12-.12,.17-.17,.13-.13,.27-.25,.41-.36,.27-.17,.53-.34,.81-.48,.26-.1,.53-.16,.78-.27,.26-.08,.6-.05,.87-.04Z"/>
    <path class="cls-4" d="M28.94,18.75c.22,.17,.38,.4,.41,.69,.02,.23-.04,.46-.19,.64-.17,.2-.42,.32-.68,.34-.23,.02-.46-.05-.63-.2-.15-.13-.22-.28-.28-.46,.08,.05,.14,.13,.23,.18,.17,.11,.41,.12,.6,.08,.01,0,.03,0,.04-.01,.01,0,.03,0,.04-.01,.01,0,.02,0,.04-.01,.01,0,.02-.01,.04-.02,.01,0,.02-.01,.04-.02,.01,0,.02-.01,.03-.02,.01,0,.02-.01,.03-.02,.01,0,.02-.01,.03-.02,.01,0,.02-.02,.03-.02,.01,0,.02-.02,.03-.03,0,0,.02-.02,.03-.03,0,0,.02-.02,.03-.03,0,0,.02-.02,.03-.03,0-.01,.02-.02,.02-.03,0-.01,.02-.02,.02-.03,0-.01,.01-.02,.02-.03,.17-.29,.14-.59,.06-.9Z"/>
    <path class="cls-5" d="M27.49,19.38c.02-.09,.03-.19,.07-.27,.08-.22,.24-.39,.45-.48,.27-.11,.55-.07,.81,.04,.04,.03,.09,.05,.13,.08,.08,.31,.11,.61-.06,.9,0,.01-.01,.02-.02,.03,0,.01-.01,.02-.02,.03,0,.01-.02,.02-.02,.03,0,.01-.02,.02-.03,.03,0,0-.02,.02-.03,.03,0,0-.02,.02-.03,.03,0,0-.02,.02-.03,.03-.01,0-.02,.02-.03,.02-.01,0-.02,.02-.03,.02-.01,0-.02,.01-.03,.02-.01,0-.02,.01-.03,.02-.01,0-.02,.01-.04,.02-.01,0-.02,.01-.04,.02-.01,0-.02,0-.04,.01-.01,0-.03,0-.04,.01-.01,0-.03,0-.04,.01-.19,.05-.43,.03-.6-.08-.08-.05-.15-.12-.23-.18-.05-.13-.08-.24-.07-.38Z"/>
    <path class="cls-3" d="M26.4,19.5c.09-.28,.29-.55,.49-.76,.46-.48,1.15-.85,1.82-.87,.14,0,.32,0,.42,.12,.04,.04,.06,.1,.06,.16-.02,.2-.24,.39-.38,.52-.26-.11-.54-.15-.81-.04-.21,.09-.37,.26-.45,.48-.03,.09-.05,.18-.07,.27-.18,.14-.38,.32-.6,.38l-.18-.08c-.09-.07-.2-.13-.3-.18Z"/>
  </g>
</svg>