<?xml version="1.0" encoding="UTF-8"?>
<svg id="_Слой_1" data-name="Слой 1" xmlns="http://www.w3.org/2000/svg" viewBox="0 0 40 40">
  <defs>
    <style>
      .cls-1 {
        fill: #eab901;
      }

      .cls-2 {
        fill: #fedb3f;
      }

      .cls-3 {
        fill: gold;
      }

      .cls-4 {
        fill: #694d3d;
      }

      .cls-5 {
        fill: #f9e98f;
      }

      .cls-6 {
        fill: #b68b19;
      }

      .cls-7 {
        fill: #85714b;
      }
    </style>
  </defs>
  <g>
    <rect class="cls-3" x=".5" y=".5" width="39" height="39" rx="4.96" ry="4.96"/>
    <path d="M34.54,1c2.46,0,4.46,2,4.46,4.46v29.07c0,2.46-2,4.46-4.46,4.46H5.46c-2.46,0-4.46-2-4.46-4.46V5.46C1,3,3,1,5.46,1h29.07m0-1H5.46C2.45,0,0,2.45,0,5.46v29.07c0,3.02,2.45,5.46,5.46,5.46h29.07c3.02,0,5.46-2.45,5.46-5.46V5.46c0-3.02-2.45-5.46-5.46-5.46h0Z"/>
  </g>
  <g>
    <path class="cls-7" d="M32.35,4.22c.23,.06,.66,.16,.79,.38,.05,.09,.04,.18,.01,.28-.05,.16-.11,.32-.16,.48-.15,.52-.23,1.04-.29,1.58-.18,.13-.36,.25-.56,.34,.05-.57,.18-1.15,.31-1.71,.06-.25,.16-.51,.18-.77,.02-.19-.16-.44-.28-.57Z"/>
    <path class="cls-4" d="M4.05,28.67l-.02-.02c-.1-.53,.14-1.42,.34-1.92,.12-.31,.32-.83,.65-.97,.23,.4,.13,.98,.02,1.41-.07,.29-.17,.57-.31,.83-.17,.29-.33,.52-.62,.7l-.06-.02Z"/>
    <path class="cls-6" d="M4.78,26.54c.08,.08,.08,.21,.08,.32,0,.51-.25,1.06-.61,1.43,0,0,0,0,0,0-.02-.02-.03-.04-.04-.06-.07-.1-.04-.27-.02-.38,.06-.31,.25-.91,.44-1.16,.04-.06,.1-.1,.16-.14Z"/>
    <path class="cls-6" d="M30.34,7.37c-.16-.4-.3-.81-.52-1.19-.11-.19-.42-.41-.4-.64,.02-.22,.34-.49,.51-.62,.7-.56,1.54-.81,2.43-.71,.12,.14,.29,.38,.28,.57-.02,.26-.12,.52-.18,.77-.13,.56-.26,1.14-.31,1.71l-.03,.02c-.57,.21-1.19,.3-1.77,.08Z"/>
    <path class="cls-6" d="M32.74,9.11c.05,.16,.05,.36,.07,.53,.06,.45,.17,.88,.35,1.3,.25,.59,.72,1.02,1.12,1.51,.32,.39,.59,.79,.82,1.24,1.83,3.63,.6,8.37-1.2,11.78-.34,.64-.76,1.27-1.18,1.85-.3,.43-.62,.84-.95,1.24-.33,.4-.68,.79-1.05,1.16-.3,.3-.62,.58-.93,.85-.21,.18-.42,.37-.64,.54-.22,.18-.43,.35-.66,.52-.22,.17-.45,.33-.68,.49-.23,.16-.46,.31-.7,.46-.24,.15-.47,.29-.71,.44-.24,.14-.48,.28-.73,.41s-.49,.26-.75,.38c-.25,.12-.5,.24-.76,.35-.65,.29-1.3,.54-1.98,.75-4.24,1.3-8.71,1.31-12.69-.82-.78-.42-1.55-.94-2.24-1.49-1.12-.91-2.7-2.58-3.21-3.93l.06,.02c.72,.75,1.43,1.52,2.23,2.19,.07,.06,.14,.11,.21,.17,.07,.06,.14,.11,.21,.17,.07,.05,.14,.11,.21,.16,.07,.05,.14,.11,.22,.16,.07,.05,.15,.1,.22,.15,.07,.05,.15,.1,.22,.15,.07,.05,.15,.1,.23,.15,.08,.05,.15,.1,.23,.14,.08,.05,.15,.09,.23,.14,.08,.05,.15,.09,.23,.13,.08,.04,.16,.09,.24,.13,.08,.04,.16,.08,.24,.13,.08,.04,.16,.08,.24,.12,.08,.04,.16,.08,.24,.12,.08,.04,.16,.08,.24,.11,.08,.04,.16,.07,.25,.11,.08,.04,.16,.07,.25,.1,.08,.03,.17,.07,.25,.1,.08,.03,.17,.06,.25,.09,.08,.03,.17,.06,.25,.09,.08,.03,.17,.06,.25,.09,.09,.03,.17,.05,.26,.08,.09,.03,.17,.05,.26,.08,.09,.02,.17,.05,.26,.07,.09,.02,.17,.05,.26,.07,.09,.02,.17,.04,.26,.06,.09,.02,.17,.04,.26,.06,.09,.02,.18,.04,.26,.05,.09,.02,.18,.03,.26,.05,.09,.02,.18,.03,.26,.04,.09,.01,.18,.03,.27,.04,.09,.01,.18,.02,.27,.03,4.61,.52,9.11-.9,12.94-3.45,.68-.45,1.35-.97,1.98-1.48,.19-.15,.37-.3,.55-.46,.18-.16,.36-.32,.53-.48,.18-.16,.35-.33,.52-.5,.17-.17,.33-.34,.5-.52,.16-.18,.32-.36,.48-.54,.16-.18,.31-.37,.46-.56,.15-.19,.29-.38,.44-.57,.14-.19,.28-.39,.41-.59,.34-.51,.63-1.05,.91-1.6,1.37-2.7,2.14-5.99,1.1-8.94-.19-.55-.44-1.1-.77-1.58-.31-.45-.68-.86-.92-1.35-.25-.5-.37-1.09-.44-1.64-.03-.22-.1-.62-.07-.83,0,0,0-.01,0-.02Z"/>
    <path class="cls-1" d="M32.7,6.93c-.04,.74,0,1.44,.04,2.18,0,0,0,.01,0,.02-.03,.21,.04,.61,.07,.83,.08,.55,.2,1.14,.44,1.64,.24,.49,.61,.9,.92,1.35,.33,.48,.58,1.03,.77,1.58,1.04,2.95,.27,6.24-1.1,8.94-.28,.55-.57,1.09-.91,1.6-.13,.2-.27,.39-.41,.59-.14,.19-.29,.38-.44,.57-.15,.19-.3,.37-.46,.56-.16,.18-.31,.36-.48,.54-.16,.18-.33,.35-.5,.52-.17,.17-.34,.34-.52,.5-.18,.16-.35,.32-.53,.48-.18,.16-.37,.31-.55,.46-.64,.51-1.3,1.03-1.98,1.48-3.82,2.55-8.32,3.97-12.94,3.45-.09-.01-.18-.02-.27-.03-.09-.01-.18-.03-.27-.04-.09-.01-.18-.03-.26-.04-.09-.02-.18-.03-.26-.05-.09-.02-.18-.03-.26-.05-.09-.02-.17-.04-.26-.06-.09-.02-.17-.04-.26-.06-.09-.02-.17-.04-.26-.07-.09-.02-.17-.05-.26-.07-.09-.02-.17-.05-.26-.08-.09-.03-.17-.05-.26-.08-.09-.03-.17-.06-.25-.09-.08-.03-.17-.06-.25-.09-.08-.03-.17-.06-.25-.09-.08-.03-.17-.07-.25-.1-.08-.03-.17-.07-.25-.1-.08-.04-.16-.07-.25-.11-.08-.04-.16-.07-.24-.11-.08-.04-.16-.08-.24-.12-.08-.04-.16-.08-.24-.12-.08-.04-.16-.08-.24-.13-.08-.04-.16-.09-.24-.13-.08-.04-.16-.09-.23-.13-.08-.05-.15-.09-.23-.14-.08-.05-.15-.09-.23-.14-.08-.05-.15-.1-.23-.15-.07-.05-.15-.1-.22-.15-.07-.05-.15-.1-.22-.15-.07-.05-.15-.1-.22-.16-.07-.05-.14-.11-.21-.16-.07-.05-.14-.11-.21-.17-.07-.06-.14-.11-.21-.17-.8-.67-1.51-1.44-2.23-2.19,.29-.18,.45-.41,.62-.7,.52,.14,1.11,.64,1.63,.82,.39,.26,.95,.48,1.39,.66,2.4,.98,4.99,1.26,7.56,1.07,.5-.04,1-.07,1.5-.15,.2-.03,.4-.07,.59-.1,.2-.04,.39-.08,.59-.12,.2-.04,.39-.09,.59-.14,.19-.05,.39-.1,.58-.16,.19-.06,.38-.11,.58-.18,.19-.06,.38-.13,.57-.19,.19-.07,.38-.14,.56-.21,.19-.07,.37-.15,.56-.23,.99-.44,1.92-.98,2.83-1.58,1.92-1.27,3.69-2.79,5.05-4.65,.33-.46,.67-.92,.96-1.4,.08-.12,.15-.25,.22-.37s.14-.25,.21-.38c.07-.13,.13-.26,.2-.39,.06-.13,.13-.26,.19-.39,.06-.13,.12-.26,.18-.4,.06-.13,.11-.27,.17-.4,.05-.13,.11-.27,.16-.41,.05-.14,.1-.27,.15-.41,.05-.14,.09-.28,.13-.41,.04-.14,.08-.28,.12-.42,.04-.14,.08-.28,.11-.42,.04-.14,.07-.28,.1-.42,.03-.14,.06-.28,.09-.43,.03-.14,.05-.29,.08-.43,.02-.14,.04-.29,.06-.43,.02-.14,.04-.29,.05-.43,.11-.95,.16-1.9,0-2.84,0-.29-.11-.76-.16-1.06-.09-.52-.16-1.05-.21-1.57-.03-.41-.06-.82-.05-1.24,0-.28,.08-.6,.04-.88l.03-.02c.2-.09,.38-.21,.56-.34Z"/>
    <path class="cls-2" d="M32.11,7.29c.03,.28-.04,.6-.04,.88-.01,.41,.01,.83,.05,1.24,.05,.53,.12,1.05,.21,1.57,.05,.3,.17,.77,.16,1.06,.15,.94,.1,1.89,0,2.84-.02,.14-.03,.29-.05,.43-.02,.14-.04,.29-.06,.43-.02,.14-.05,.29-.08,.43-.03,.14-.06,.28-.09,.43-.03,.14-.06,.28-.1,.42-.04,.14-.07,.28-.11,.42-.04,.14-.08,.28-.12,.42-.04,.14-.09,.28-.13,.41-.05,.14-.09,.27-.15,.41-.05,.14-.1,.27-.16,.41-.05,.13-.11,.27-.17,.4-.06,.13-.12,.27-.18,.4-.06,.13-.12,.26-.19,.39-.06,.13-.13,.26-.2,.39-.07,.13-.14,.25-.21,.38s-.15,.25-.22,.37c-.29,.48-.63,.94-.96,1.4-1.36,1.87-3.14,3.38-5.05,4.65-.9,.6-1.83,1.15-2.83,1.58-.18,.08-.37,.16-.56,.23-.19,.07-.37,.14-.56,.21-.19,.07-.38,.13-.57,.19-.19,.06-.38,.12-.58,.18-.19,.06-.39,.11-.58,.16-.19,.05-.39,.1-.59,.14-.2,.04-.39,.08-.59,.12-.2,.04-.39,.07-.59,.1-.5,.08-1,.12-1.5,.15-2.57,.19-5.16-.09-7.56-1.07-.44-.18-1-.39-1.39-.66-.51-.18-1.1-.68-1.63-.82,.14-.26,.24-.54,.31-.83,.11-.42,.21-1.01-.02-1.41,.78,0,1.57-.1,2.35-.06,0,0,.01,0,.02,0,.21,.01,.53-.06,.75-.08,.85-.08,1.7-.17,2.54-.29,2.02-.26,4.06-.71,5.97-1.45,.28-.11,.55-.24,.83-.36,.86-.37,1.71-.77,2.52-1.24,2.35-1.37,4.31-3.32,6.04-5.39,.76-.91,1.49-1.87,2.2-2.82,.73-.97,1.36-1.96,2.31-2.74,.04-.28,.1-.54,.13-.82,.09-1.04-.1-2.11-.33-3.13,.58,.22,1.21,.13,1.77-.08Z"/>
    <path class="cls-5" d="M30.54,11.32c.2-.11,.4-.2,.63-.21-.02,.07-.44,.73-.52,.86-.27,.48-.52,.98-.76,1.47-.33,.69-.67,1.38-1.02,2.07-.21,.44-.42,.88-.65,1.31-.53,.96-1.12,1.91-1.8,2.77-.09,.12-.19,.23-.28,.35-.1,.11-.19,.23-.29,.34-.1,.11-.2,.22-.3,.33-.1,.11-.2,.22-.31,.33-.1,.11-.21,.21-.31,.32-.11,.1-.21,.21-.32,.31-.11,.1-.22,.2-.33,.3-.11,.1-.22,.2-.34,.29-.11,.1-.23,.19-.34,.29-.12,.09-.23,.19-.35,.28-.12,.09-.24,.18-.36,.27-.12,.09-.24,.18-.36,.26-.12,.09-.25,.17-.37,.25-.12,.08-.25,.16-.38,.24-.13,.08-.25,.16-.38,.23-.13,.08-.26,.15-.39,.22-3.22,1.8-6.94,2.55-10.61,2.5-.67,0-1.34-.04-2-.1-.18-.02-.76-.12-.9-.11-.63-.09-1.27-.13-1.89-.24,.33-.14,.65-.28,1-.37,.22-.06,.44-.09,.66-.15,.04-.01,.06-.01,.08-.05,0,0,.01,0,.02,0,.21,.01,.53-.06,.75-.08,.85-.08,1.7-.17,2.54-.29,2.02-.26,4.06-.71,5.97-1.45,.28-.11,.55-.24,.83-.36,.86-.37,1.71-.77,2.52-1.24,2.35-1.37,4.31-3.32,6.04-5.39,.76-.91,1.49-1.87,2.2-2.82,.73-.97,1.36-1.96,2.31-2.74Z"/>
  </g>
</svg>